<svg id="Layer_1" data-name="Layer 1" xmlns="http://www.w3.org/2000/svg" width="100" height="100" viewBox="0 0 100 100"><title>GLOSSARY</title><path d="M20.39,83.72H73.85a1.28,1.28,0,0,0,0-2.57H20.39a1.28,1.28,0,1,0,0,2.57Z" style="fill:#fff"/><path d="M20.39,87.08H73.85a1.28,1.28,0,0,0,0-2.57H20.39a1.28,1.28,0,1,0,0,2.57Z" style="fill:#fff"/><path d="M88.86,23.72V13a1.28,1.28,0,0,0-.91-1.23h0l-5-1.51V6.45a1.28,1.28,0,0,0-1.28-1.28H19.71a8.58,8.58,0,0,0-8.57,8.57V84c0,4,1.38,6.71,3.37,8.44a10.56,10.56,0,0,0,6.92,2.43h60.2a1.28,1.28,0,0,0,1.28-1.28V83.36l5-1.5h0a1.28,1.28,0,0,0,.91-1.23V70a1.28,1.28,0,0,0-.91-1.23l-1.84-.55,1.84-.55a1.28,1.28,0,0,0,.92-1.23V55.73a1.28,1.28,0,0,0-.91-1.23L86.11,54l1.84-.55a1.28,1.28,0,0,0,.92-1.23V41.5a1.28,1.28,0,0,0-.92-1.23l-1.84-.55,1.84-.55a1.28,1.28,0,0,0,.92-1.23V27.28A1.28,1.28,0,0,0,87.95,26l-1.84-.55,1.84-.55A1.28,1.28,0,0,0,88.86,23.72ZM86.3,70.91v8.76l-3.39,1V69.9Zm-3.39-4.46V55.68l3.39,1v8.76Zm0-14.23V41.45l3.39,1v8.76Zm0-14.23V27.22l3.39,1V37Zm0-14.23V13l3.39,1v8.76ZM21.43,69.83a1.28,1.28,0,0,0-1.28,1.28v2.43a8.35,8.35,0,0,0-4.58,1.68h0A1.28,1.28,0,0,0,15.26,77h0a1.28,1.28,0,0,0,1.79.3h0a5.8,5.8,0,0,1,3.17-1.21H80.35v1.14H21.75a6.72,6.72,0,1,0,0,13.44h58.6v1.58H21.43a8.75,8.75,0,0,1-4.36-1.19C15.31,90,13.71,88,13.7,84V13.74a6,6,0,0,1,6-6h.44V64.14a1.28,1.28,0,0,0,2.57,0V7.74H78.55a1.8,1.8,0,0,1,1.8,1.8v64H22.71V71.11A1.28,1.28,0,0,0,21.43,69.83ZM18.81,81a4.14,4.14,0,0,1,2.94-1.22h58.6v8.31H21.75A4.15,4.15,0,0,1,18.81,81Z" style="fill:#fff"/><polygon points="87.95 39.18 87.95 39.18 87.95 39.18 87.95 39.18" style="fill:#fff"/><polygon points="87.95 24.95 87.95 24.95 87.95 24.95 87.95 24.95" style="fill:#fff"/><polygon points="15.56 75.22 15.56 75.22 15.57 75.22 15.56 75.22" style="fill:#fff"/><polygon points="44.03 47.47 44.03 47.47 44.03 47.47 44.03 47.47" style="fill:#fff"/><polygon points="45.75 48.05 45.75 48.05 45.75 48.05 45.75 48.05" style="fill:#fff"/><path d="M29.29,48A1.28,1.28,0,0,0,31,47.47l2.2-4.39h8.62L44,47.47a1.28,1.28,0,1,0,2.29-1.15l-2.52-5h0L38.67,31a1.28,1.28,0,0,0-2.29,0L28.72,46.33A1.28,1.28,0,0,0,29.29,48Zm5.2-7.53,3-6.06,3,6.06Z" style="fill:#fff"/><polygon points="29.29 48.05 29.29 48.05 29.29 48.05 29.29 48.05" style="fill:#fff"/><path d="M57,46a1.28,1.28,0,0,0,.91,2.19H73.24a1.28,1.28,0,0,0,0-2.57H61L74.15,32.5a1.28,1.28,0,0,0-.91-2.19H59.67a1.28,1.28,0,1,0,0,2.57H70.15L57,46Z" style="fill:#fff"/><path d="M47.73,40.21h7.65a1.28,1.28,0,0,0,0-2.57H47.73a1.28,1.28,0,1,0,0,2.57Z" style="fill:#fff"/><polygon points="28.72 46.33 28.72 46.33 28.72 46.33 28.72 46.33" style="fill:#fff"/></svg>