<svg id="Layer_1" data-name="Layer 1" xmlns="http://www.w3.org/2000/svg" width="60" height="60" viewBox="0 0 60 60"><title>placeholder</title><path d="M28.45.06A20.87,20.87,0,0,0,9.32,21.2c.33,16.41,16.51,31.11,20,34.11a1,1,0,0,0,1.34,0c3.55-3,20-18,20-34.61A20.69,20.69,0,0,0,28.45.06Z" style="fill:#fcfcfc"/><path d="M37.24,60H22.76a1,1,0,0,1,0-2.07H37.24a1,1,0,1,1,0,2.07Z" style="fill:#d7deed"/><path d="M28.91,16A1,1,0,0,1,30,14.88h1.22A1,1,0,0,1,32.32,16V32.64a1,1,0,0,1-1.09,1.12H30a1,1,0,0,1-1.09-1.12Z" style="fill:#0a3676"/></svg>