<svg id="Layer_1" data-name="Layer 1" xmlns="http://www.w3.org/2000/svg" width="60" height="60" viewBox="0 0 60 60"><title>placeholder</title><path d="M28.45.06A20.87,20.87,0,0,0,9.31,21.2c.33,16.41,16.51,31.11,20,34.11a1,1,0,0,0,1.34,0c3.55-3,20-18,20-34.61A20.69,20.69,0,0,0,28.45.06Z" style="fill:#fcfcfc"/><path d="M37.24,60H22.76a1,1,0,1,1,0-2.07H37.24a1,1,0,0,1,0,2.07Z" style="fill:#d7deed"/><path d="M22.27,16a1,1,0,0,1,1.09-1.12h1.22A1,1,0,0,1,25.68,16v6.89h8.64V16a1,1,0,0,1,1.12-1.12h1.2A1,1,0,0,1,37.73,16V32.64a1,1,0,0,1-1.09,1.12h-1.2a1,1,0,0,1-1.12-1.12V25.83H25.68v6.81a1,1,0,0,1-1.09,1.12H23.36a1,1,0,0,1-1.09-1.12Z" style="fill:#0a3676"/></svg>