<svg id="Layer_1" data-name="Layer 1" xmlns="http://www.w3.org/2000/svg" width="60" height="60" viewBox="0 0 60 60"><title>placeholder</title><path d="M28.45.06A20.87,20.87,0,0,0,9.32,21.2c.33,16.41,16.51,31.11,20,34.11a1,1,0,0,0,1.34,0c3.55-3,20-18,20-34.61A20.69,20.69,0,0,0,28.45.06Z" style="fill:#fcfcfc"/><path d="M37.24,60H22.76a1,1,0,0,1,0-2.07H37.24a1,1,0,1,1,0,2.07Z" style="fill:#d7deed"/><path d="M22,15.09a1,1,0,0,1,1.06-1h1.55a1.11,1.11,0,0,1,1.16.84l3.12,7.8c.39,1,.89,2.56.89,2.56h0s.47-1.52.86-2.56l3.12-7.8A1.12,1.12,0,0,1,35,14.1h1.52a1,1,0,0,1,1.06,1l1.25,15.42a.89.89,0,0,1-1,1.06H36.75a1,1,0,0,1-1.06-1L35,21.8c-.07-1.16,0-2.71,0-2.71h0s-.54,1.7-.93,2.71l-2.53,6a1.12,1.12,0,0,1-1.16.81h-1a1.13,1.13,0,0,1-1.18-.81l-2.51-6c-.39-1-1-2.73-1-2.73h0s0,1.57,0,2.73l-.66,8.78a1,1,0,0,1-1.06,1H21.75a.89.89,0,0,1-1-1.06Z" style="fill:#0a3676"/></svg>