<svg id="Layer_1" data-name="Layer 1" xmlns="http://www.w3.org/2000/svg" xmlns:xlink="http://www.w3.org/1999/xlink" width="3259.43" height="320.2" viewBox="0 0 3259.43 320.2"><defs><clipPath id="clip-path"><rect width="3259.43" height="320.2" style="fill:none"/></clipPath></defs><title>waves</title><g style="clip-path:url(#clip-path)"><g id="graph-copy" style="opacity:0.7181272506713867"><path id="Rectangle" d="M-32.63,3.33c3.47-7.62,104.36-.57,175,10.61A885.74,885.74,0,0,1,324.08,63.21c53.37,20.78,107,41.8,141.17,66.35,10.53,7.56,27.21,12.15,37.5,19.81,8.07,6,24.84,11.58,30.75,16.44,3.9,3.21,13,5.25,16.86,6.82,1.86.76-5.3,2.09,0,2.09,17.13,0,18.59,10,30.58,17.61,19.62,12.4,48.58,26.58,80.74,41.55C743,271.72,863.44,305,934.14,304.26c52.17-.51,135.79-5.8,207.25-23.18,67.22-16.35,122.19-44,175.87-68.58,38.43-17.57,69.33-38.83,102.5-55.3,39.57-19.65,80.42-34,114.16-47.52,16.87-6.77,44.76-11.16,59-15.93,6.16-2.06,9.93-1.5,15.3-2.36,2.75-.44,5.55-2.68,10.06-2.86C1646,87.42,1674,83,1701.57,81.89c88-3.48,176.31,14.75,257.32,43.82,80.36,28.84,153.43,68.37,234.85,101.39,114.06,46.27,240.55,80.81,351.08,77.16,40.94-1.35,86.25-4.24,116-13.82,15.35-4.94,36.23-9,49.81-14.81,4.16-1.78,6.86-4.64,13-5.68,25.79-4.36,629-230.46,648.74-244.19C3413.59-2.86,3406.46,13.93,3449,.24,3465.26-5,3564.69,77,3572,74c17.12-7,22.67-8.42,54.92-19.12,18.68-6.2,114.51-6.76,131.24-12,30-.19,78.43,2.89,88.72,1.63,49.93-6.09,85.55,20,133.81,14.17,110.9-13.46-366,64.74-227.25,92.91,12.49,2.54,24.78,3.32,37.89,5.56,40.84,7,78.11,15.47,113.35,24.54,40.81,10.51,87.45,16.15,120.12,23.72,18.94,4.39,36.5,8,50.47,10.69,8.33,1.6,12.87,4,22.63,2.89,7.1-.78,15,6.24,21.4,8.07,9.74,2.8,17.86,1.43,29.14,4,32.75,7.43,80.23,12.43,122.16,20.28,10.94,2,21.92,3.76,33.8,5.28,44.24,5.68,85.31,9.36,124.62,13.28,70.26,7,119.9,12.4,144.4-3.37C4665.71,207.17,4518.37.24,4518.37.24V316.8H4.44S-98.11,147.15-32.63,3.33Z" style="fill:#fff"/><path id="COMMENTS_GRAPH" data-name="COMMENTS GRAPH" d="M-26.91.24C460.3.24,590.24,303.51,953.53,303.51S1403.19,81.38,1722.58,81.38s454.9,222.13,828,222.13c230.17,0,884.34-190.36,1058.45-242.76C3717.08,28.22,3972.35,53,4108.14,53c354.54,0,44.05,224.89,498,224.89" style="fill:none;stroke:#fff;stroke-linecap:round;stroke-linejoin:round;stroke-width:4px"/></g><g id="graph-copy-2" style="opacity:0.5425724387168884"><path id="Rectangle-2" data-name="Rectangle" d="M-122.18,76.45c2.6-5.84,78.26-.44,131.2,8.13a652.69,652.69,0,0,1,136.29,37.78c40,15.93,80.25,32,105.86,50.87,7.89,5.8,20.4,9.31,28.12,15.19,6.05,4.61,18.63,8.88,23.06,12.61,2.92,2.46,9.76,4,12.64,5.23,1.4.58-4,1.6,0,1.6,12.85,0,13.94,7.7,22.93,13.51,14.71,9.5,36.43,20.38,60.54,31.86,61,29,151.3,54.49,204.32,54,39.12-.39,101.83-4.45,155.41-17.77,50.41-12.54,91.63-33.77,131.88-52.58,28.82-13.47,52-29.77,76.86-42.41,29.68-15.07,60.31-26,85.6-36.44,12.65-5.19,33.57-8.56,44.24-12.21,4.72-1.62,10.35-1,14.54-1.66,2-.31,1.24-2.21,4.48-2.34,20.8-.85,41.79-4.25,62.45-5.09,66-2.66,132.21,11.31,193,33.6,60.26,22.11,115.05,52.42,176.11,77.74,85.53,35.47,180.38,62,263.27,59.16,51.4-1.73,107.71-5.77,156.53-14.21,59.66-10.32,110.56-26.36,157.79-41.89,40.59-13.35,84-26.12,118.53-37.85,14-4.75,29.4-8.22,41.95-12.21,6.28-2,13.17-5.45,22.46-6.6,37.44-4.67,67.66-16.7,103.85-21.2,83.16-10.32,201.17-4.67,305.22,16.93,9.37,1.94,18.58,2.55,28.41,4.26,30.63,5.36,58.57,11.86,85,18.82,30.6,8.06,65.57,12.39,90.08,18.19,14.21,3.36,27.37,6.14,37.84,8.19,6.25,1.22,9.65,3,17,2.21,5.32-.6,11.25,4.78,16,6.19,7.31,2.15,13.39,1.1,21.85,3.06,24.56,5.7,60.16,9.53,91.61,15.55,8.2,1.57,16.44,2.88,25.34,4,33.18,4.35,64,7.18,93.45,10.18,326.73,39.33,590.16-132.21,608.52-144.3,69.2-45.55,139.53,0,139.53,0L3290.52,316.8H-94.38S-171.28,186.72-122.18,76.45Z" style="fill:#fff"/><path id="COMMENTS_GRAPH-2" data-name="COMMENTS GRAPH" d="M-117.89,74.08c365.35,0,462.78,232.54,735.21,232.54S954.51,136.3,1194,136.3s341.12,170.32,620.87,170.32,426.52-137.8,692.38-137.8,508.66,118.13,849.07,118.13" style="fill:none;stroke:#fff;stroke-linecap:round;stroke-linejoin:round;stroke-width:4px"/></g><g id="graph"><path id="Rectangle-3" data-name="Rectangle" d="M-51.88,138.36c3.65-4.42,109.75-.33,184,6.15A1566.2,1566.2,0,0,1,323.22,173.1c56.13,12.05,112.54,24.25,148.45,38.49,11.07,4.39,28.61,7,39.43,11.49,8.49,3.49,26.12,6.71,32.33,9.54,4.1,1.86,13.69,3,17.73,4,2,.44-5.58,1.21,0,1.21,18,0,19.55,5.82,32.16,10.22,20.63,7.19,51.08,15.42,84.9,24.1,85.48,22,212.17,41.23,286.52,40.82,54.86-.3,142.8-3.37,217.94-13.45,70.69-9.48,128.5-25.55,184.94-39.78,40.41-10.19,72.9-22.53,107.79-32.08,41.61-11.4,84.57-19.71,120-27.57,17.73-3.93,47.07-6.47,62-9.24,9.79-1.81,12.66-2.72,26.67-3,29.17-.65,58.6-3.22,87.58-3.85,92.53-2,185.41,8.56,270.59,25.42,84.51,16.73,161.35,39.66,247,58.82,119.94,26.84,253,46.87,369.19,44.76,72.08-1.31,151-4.36,219.51-10.75,83.67-7.81,155-19.94,221.28-31.69,56.92-10.1,117.77-19.76,166.22-28.63,19.64-3.6,41.23-6.22,58.83-9.24,8.81-1.51,18.47-4.12,31.5-5,52.5-3.53,94.88-12.64,145.64-16,116.62-7.81,282.1-3.53,428,12.81,13.14,1.47,26.06,1.93,39.84,3.23,42.95,4.05,82.14,9,119.2,14.23,42.92,6.1,92,9.37,126.32,13.76,19.92,2.54,38.38,4.65,53.07,6.2,8.76.93,13.54,2.3,23.8,1.67,7.47-.45,15.78,3.62,22.5,4.68,10.25,1.62,18.78.83,30.65,2.32,34.44,4.31,84.37,7.21,128.46,11.77,11.5,1.19,23,2.18,35.54,3.06,46.52,3.29,89.71,5.43,131,7.71,73.88,4.07,126.09,7.19,151.85-2,97-34.46-57.91-154.5-57.91-154.5V320.2H-12.9S-120.74,221.79-51.88,138.36Z" style="fill:#fff"/><path id="COMMENTS_GRAPH-3" data-name="COMMENTS GRAPH" d="M-45.87,136.57c512.34,0,649,175.92,1031,175.92S1458,183.64,1793.86,183.64s478.36,128.85,870.67,128.85,598.12-104.25,971-104.25,713.32,89.37,1190.68,89.37" style="fill:none;stroke:#fff;stroke-linecap:round;stroke-linejoin:round;stroke-width:4px"/></g></g></svg>