<svg id="Layer_1" data-name="Layer 1" xmlns="http://www.w3.org/2000/svg" width="115.6" height="100" viewBox="0 0 115.6 100"><title>airplane-01</title><path d="M57.82,49a9.26,9.26,0,1,0,9.26,9.26h0A9.27,9.27,0,0,0,57.82,49Zm0,14.9a5.64,5.64,0,1,1,5.64-5.64,5.64,5.64,0,0,1-5.64,5.64Z" style="fill:#0f3c7b"/><path d="M67.84,45.63a16.14,16.14,0,0,0-20,0,1.82,1.82,0,1,0,2.26,2.84h0a12.42,12.42,0,0,1,15.48,0,1.82,1.82,0,1,0,2.26-2.84Z" style="fill:#0f3c7b"/><path d="M114.18,48.9a1.81,1.81,0,0,0-2.48.61l-2.37,3.9H77.94a20.15,20.15,0,0,0-6.21-12.76h3.2a1.81,1.81,0,0,0,0-3.63H66.6a20.05,20.05,0,0,0-7-1.9V26.24a1.81,1.81,0,0,0-3.63,0v8.88a20.05,20.05,0,0,0-7,1.91H40.63a1.81,1.81,0,0,0,0,3.63h3.2a20.15,20.15,0,0,0-6.21,12.76H6.32L3.95,49.49A1.84,1.84,0,1,0,.79,51.38l3,4.84a1.81,1.81,0,0,0,1.55.87H20a10.32,10.32,0,1,0,15.69,0h2a20.21,20.21,0,0,0,40.25,0h2a10.32,10.32,0,1,0,15.69,0h14.75a1.81,1.81,0,0,0,1.55-.87l2.91-4.78A1.81,1.81,0,0,0,114.2,49ZM34.56,63.67A6.69,6.69,0,1,1,27.87,57h0A6.69,6.69,0,0,1,34.56,63.67Zm23.25,8.08A16.57,16.57,0,1,1,74.4,55.19v0A16.6,16.6,0,0,1,57.82,71.81Zm36.63-8.08A6.69,6.69,0,1,1,87.7,57a6.69,6.69,0,0,1,6.74,6.64Z" style="fill:#0f3c7b"/><path d="M27.88,69a5.24,5.24,0,1,0-5.24-5.29A5.24,5.24,0,0,0,27.88,69h0Zm0-6.84a1.6,1.6,0,1,1-1.61,1.59v0a1.6,1.6,0,0,1,1.6-1.6h0Z" style="fill:#0f3c7b"/><path d="M87.7,69a5.24,5.24,0,1,0-5.18-5.3h0A5.24,5.24,0,0,0,87.7,69Zm0-6.84a1.6,1.6,0,1,1-1.55,1.65s0-.07,0-.1A1.6,1.6,0,0,1,87.7,62.12Z" style="fill:#0f3c7b"/></svg>