<svg id="Layer_1" data-name="Layer 1" xmlns="http://www.w3.org/2000/svg" width="100" height="100" viewBox="0 0 100 100"><title>container</title><path d="M85.16,45.15a3.63,3.63,0,0,0-6.32-2.45l-24-10.18a4.8,4.8,0,0,0,0-.71,4.86,4.86,0,0,0-3.64-4.69V25.61a3.62,3.62,0,0,0,2.63-3.14l1-9.94A1.21,1.21,0,0,0,53.8,11.2H46.4a1.21,1.21,0,0,0-1.21,1.33l1,9.94a3.62,3.62,0,0,0,2.63,3.14v2.56A1.21,1.21,0,0,0,50,29.38h0a2.43,2.43,0,0,1,2.4,2.12l-1.93-.81a1.22,1.22,0,1,0-1,2.24l1.93.82a2.42,2.42,0,0,1-3.89-1.93,1.21,1.21,0,1,0-2.42,0h0a4.83,4.83,0,0,0,0,.71l-24,10.17a3.63,3.63,0,0,0-6.32,2.45,3.64,3.64,0,0,0-3.64,3.64h0V85.16a3.64,3.64,0,0,0,3.64,3.64H85.16a3.64,3.64,0,0,0,3.64-3.64h0V48.79A3.64,3.64,0,0,0,85.16,45.15ZM47.7,13.62h4.6l-.88,8.61a1.21,1.21,0,0,1-1.21,1.09h-.46a1.21,1.21,0,0,1-1.21-1.09ZM81.53,43.94a1.21,1.21,0,0,1,1.21,1.21H80.32A1.21,1.21,0,0,1,81.53,43.94ZM46.15,34.75a4.84,4.84,0,0,0,7.7,0l24,10.18v.22H22.11v-.22ZM18.47,43.94a1.21,1.21,0,0,1,1.21,1.21H17.26A1.21,1.21,0,0,1,18.47,43.94Zm67.9,41.23a1.21,1.21,0,0,1-1.21,1.21H14.84a1.21,1.21,0,0,1-1.21-1.21V48.79a1.21,1.21,0,0,1,1.21-1.21H85.16a1.21,1.21,0,0,1,1.21,1.21Z" style="fill:#0f3c7b"/><path d="M31.81,52.42a1.21,1.21,0,0,0-1.21,1.21h0V80.32a1.21,1.21,0,0,0,2.42,0V53.64a1.21,1.21,0,0,0-1.21-1.21h0Z" style="fill:#0f3c7b"/><path d="M74.25,52.42A1.21,1.21,0,0,0,73,53.59s0,0,0,0V80.32a1.21,1.21,0,0,0,2.42,0h0V53.64a1.21,1.21,0,0,0-1.21-1.21Z" style="fill:#0f3c7b"/><path d="M80.32,52.42a1.21,1.21,0,0,0-1.21,1.21V80.32a1.21,1.21,0,0,0,2.42,0h0V53.64a1.21,1.21,0,0,0-1.21-1.21Z" style="fill:#0f3c7b"/><path d="M25.75,52.42a1.21,1.21,0,0,0-1.19,1.22V80.32a1.21,1.21,0,0,0,2.42,0V53.64a1.21,1.21,0,0,0-1.21-1.21h0Z" style="fill:#0f3c7b"/><path d="M19.68,52.42a1.21,1.21,0,0,0-1.21,1.21h0V80.32a1.21,1.21,0,0,0,2.42,0V53.64a1.21,1.21,0,0,0-1.21-1.21h0Z" style="fill:#0f3c7b"/><path d="M68.18,52.42A1.21,1.21,0,0,0,67,53.63V80.32a1.21,1.21,0,0,0,2.42,0h0V53.64a1.21,1.21,0,0,0-1.21-1.21Z" style="fill:#0f3c7b"/><path d="M44,66a1,1,0,0,0-1.47,1.4h0l4.68,4.69a1,1,0,0,0,.72.3h0a1.14,1.14,0,0,0,.75-.38l11.8-14A1,1,0,0,0,59,56.64h0L48,69.87Z" style="fill:#0f3c7b"/><path d="M57.59,54.61a14.42,14.42,0,1,0,4.56,4.56,1,1,0,1,0-1.75,1.06,12.35,12.35,0,1,1-3.92-3.92,1,1,0,0,0,1.07-1.75Z" style="fill:#0f3c7b"/></svg>