<svg id="Layer_1" data-name="Layer 1" xmlns="http://www.w3.org/2000/svg" width="100" height="100" viewBox="0 0 100 100"><title>faqs</title><path d="M84.41,5.57H48.2A7.46,7.46,0,0,0,40.75,13v.09H15a7.46,7.46,0,0,0-7.45,7.45V41.7A7.46,7.46,0,0,0,15,49.15H33.2v4a13.57,13.57,0,0,0-4.62-.76c-5.64,0-9.73,2.85-12.17,8.48C14.57,65.09,13.64,71,13.58,78.9a2.81,2.81,0,0,0,1.68,2.57,23.84,23.84,0,0,0,3,1.11l-3.24,1.85a6,6,0,0,0-3,5.16v1.9a4.44,4.44,0,0,0,4.43,4.43H40.65a4.44,4.44,0,0,0,4.43-4.43v-1.9a6,6,0,0,0-3-5.16l-3.24-1.85a23.84,23.84,0,0,0,3-1.11,2.81,2.81,0,0,0,1.68-2.57c-.06-7.91-1-13.82-2.83-18.07a15.22,15.22,0,0,0-4-5.68l6-6h8.47a7.46,7.46,0,0,0,7.25-5.74l5.33,5.33a1.41,1.41,0,0,0,2.42-1V41.6h18.2a7.46,7.46,0,0,0,7.45-7.45V13A7.46,7.46,0,0,0,84.41,5.57ZM33.2,76.51,29.4,78.79a1.6,1.6,0,0,1-1.65,0L24,76.51a3.13,3.13,0,0,1-1.51-2.67V67.21c.94,0,2.26-.14,3.69-.35A17.48,17.48,0,0,0,33,64.71l1.72,1.72v7.41A3.13,3.13,0,0,1,33.2,76.51Zm-6.9,4.7a4.42,4.42,0,0,0,4.56,0l1.06-.64a4.44,4.44,0,0,0,2,2.45l.79.45a15.54,15.54,0,0,1-6.14,5,15.66,15.66,0,0,1-6.14-5l.79-.45a4.44,4.44,0,0,0,2-2.45Zm16,8.38v1.9a1.61,1.61,0,0,1-1.6,1.6H16.51a1.61,1.61,0,0,1-1.6-1.6v-1.9a3.12,3.12,0,0,1,1.57-2.7l3.5-2c.62.87,3.68,4.94,8.16,6.43a1.41,1.41,0,0,0,.89,0c4.49-1.5,7.55-5.56,8.16-6.43l3.5,2A3.12,3.12,0,0,1,42.25,89.59ZM38.15,62c1.68,3.89,2.53,9.43,2.59,16.93h0a24.72,24.72,0,0,1-5.47,1.63,1.6,1.6,0,0,1-.74-1.35V79l.13-.08a6,6,0,0,0,2.88-5.09v-8a1.41,1.41,0,0,0-.41-1l-3-3a1.41,1.41,0,0,0-2,0c-1,1-3.25,1.79-6.33,2.24a37.82,37.82,0,0,1-4.74.37,1.41,1.41,0,0,0-1.41,1.41v8a6,6,0,0,0,2.88,5.09l.13.08v.16a1.6,1.6,0,0,1-.74,1.35,24.73,24.73,0,0,1-5.47-1.63h0c.06-7.5.91-13,2.59-16.93,2-4.56,5.11-6.78,9.57-6.78S36.18,57.4,38.15,62ZM51.21,46.32H42.16a1.41,1.41,0,0,0-1,.41L36,51.86V47.73a1.41,1.41,0,0,0-1.41-1.41H15a4.63,4.63,0,0,1-4.62-4.62V20.57A4.63,4.63,0,0,1,15,15.95H40.75v18.2A7.46,7.46,0,0,0,48.2,41.6h7.64v.09A4.63,4.63,0,0,1,51.21,46.32ZM89,34.15a4.63,4.63,0,0,1-4.62,4.62H64.8a1.41,1.41,0,0,0-1.41,1.41v4.13l-5.13-5.13a1.41,1.41,0,0,0-1-.41H48.2a4.63,4.63,0,0,1-4.62-4.62V13A4.63,4.63,0,0,1,48.2,8.4H84.41A4.63,4.63,0,0,1,89,13Z" style="fill:#fff"/><path d="M86.5,81.52l-7.18-2.69a1.61,1.61,0,0,1-1-1l.72-.54a5.94,5.94,0,0,0,2.36-4.36l.34-5.07h0l.6-9.05a7.45,7.45,0,0,0-7.43-7.95H66.72a7.45,7.45,0,0,0-7.43,7.95l.94,14.12a5.94,5.94,0,0,0,2.36,4.36l.72.54a1.61,1.61,0,0,1-1,1l-7.18,2.69a6,6,0,0,0-3.86,5.56v4.41a4.44,4.44,0,0,0,4.43,4.43H85.92a4.44,4.44,0,0,0,4.43-4.43V87.09A6,6,0,0,0,86.5,81.52ZM63.35,55.14a4.58,4.58,0,0,1,3.37-1.46h8.22a4.62,4.62,0,0,1,4.61,4.93h0v.21c-4.81,2.74-14.45,3.8-17.15,4l-.28-4.26A4.58,4.58,0,0,1,63.35,55.14Zm-.76,10.55c2.52-.23,11.12-1.14,16.74-3.61L79,67.66A4.75,4.75,0,0,1,74.34,72H70.83a1.41,1.41,0,1,0,0,2.83h3.51a7.34,7.34,0,0,0,4.11-1.28A3.11,3.11,0,0,1,77.37,75l-3.17,2.37a3.13,3.13,0,0,1-1.87.62h-3a3.13,3.13,0,0,1-1.87-.62L64.29,75a3.11,3.11,0,0,1-1.24-2.28Zm3.18,14a6,6,0,0,0,3.57,1.19h3a6,6,0,0,0,3.57-1.19l.14-.11a4.47,4.47,0,0,0,1.27,1.4l-6.49,4.33-6.49-4.33a4.47,4.47,0,0,0,1.27-1.4ZM54.14,91.49V87.09a3.13,3.13,0,0,1,2-2.91l5.08-1.9,8.18,5.46V93.1H55.74A1.61,1.61,0,0,1,54.14,91.49Zm33.39,0a1.61,1.61,0,0,1-1.6,1.6H72.25V87.72l8.18-5.46,5.08,1.9a3.13,3.13,0,0,1,2,2.91v4.41Z" style="fill:#fff"/><path d="M65.89,27.59a1.47,1.47,0,0,0,1.47-1.47V13.66a1.47,1.47,0,0,0-2.95,0V26.12A1.47,1.47,0,0,0,65.89,27.59Z" style="fill:#fff"/><circle cx="65.89" cy="32.72" r="1.47" style="fill:#fff"/><path d="M24.56,27.59A1.45,1.45,0,0,0,26,26.15a3.42,3.42,0,0,1,3.64-3.42,3.42,3.42,0,0,1,1.56,6.34A6.68,6.68,0,0,0,28,34.79a1.45,1.45,0,1,0,2.9,0,3.8,3.8,0,0,1,1.85-3.26,6.32,6.32,0,1,0-9.61-5.39A1.45,1.45,0,0,0,24.56,27.59Z" style="fill:#fff"/><circle cx="29.43" cy="40.16" r="1.45" style="fill:#fff"/></svg>