<svg id="Layer_1" data-name="Layer 1" xmlns="http://www.w3.org/2000/svg" width="100" height="100" viewBox="0 0 100 100"><title>ship_v</title><path d="M97.12,80.21a1.58,1.58,0,0,0-2.21.3h0a3.68,3.68,0,0,1-5.88,0,6.85,6.85,0,0,0-10.93,0,3.68,3.68,0,0,1-5.88,0c-.13-.17-.27-.33-.41-.49l5.35-22.16a1.58,1.58,0,0,0-1-1.87l-3-1-2-13.37h3a1.58,1.58,0,0,0,1.49-2.11L72,29.35a1.58,1.58,0,0,0-1.49-1H65.57l-1.73-9.46a1.58,1.58,0,0,0-1.56-1.3H51.39V16.38a1.58,1.58,0,1,0-3.16,0h0v1.16H37.61A1.58,1.58,0,0,0,36,18.84L34.33,28.3H29.42a1.58,1.58,0,0,0-1.49,1L24.31,39.47a1.58,1.58,0,0,0,1.49,2.11h3L26.79,55l-3,1a1.58,1.58,0,0,0-1,1.87L28.1,80c-.14.16-.28.32-.41.49a3.68,3.68,0,0,1-5.88,0,6.85,6.85,0,0,0-10.93,0,3.68,3.68,0,0,1-5.88,0A1.59,1.59,0,0,0,2.47,82.4a6.85,6.85,0,0,0,10.93,0,3.68,3.68,0,0,1,5.88,0,6.85,6.85,0,0,0,10.93,0,3.68,3.68,0,0,1,5.88,0A6.85,6.85,0,0,0,47,82.4a3.68,3.68,0,0,1,5.88,0,6.85,6.85,0,0,0,10.93,0,3.68,3.68,0,0,1,5.88,0,6.85,6.85,0,0,0,10.93,0,3.68,3.68,0,0,1,5.88,0,6.85,6.85,0,0,0,10.93,0,1.58,1.58,0,0,0-.3-2.21h0ZM73.49,59.61l-22-6V50.87L73.7,58.52ZM37.93,26.19H49.5V23h-11l.42-2.32H61L61.4,23h-11v3.16H62l.38,2.11H37.55ZM28.72,36.53h7.17V33.36h-6l.68-1.9h38.8l.68,1.9H64v3.16h7.17l.68,1.9H28ZM32,41.59H67.92L69.74,53.8,50.47,47.16a1.58,1.58,0,0,0-1,0L30.17,53.8Zm16.38,9.28v2.69l-22,6-.26-1.09ZM44.49,80.52a3.68,3.68,0,0,1-5.88,0,6.79,6.79,0,0,0-5.46-2.72,6.89,6.89,0,0,0-2.24.37L27.16,62.69l21.21-5.84V78a6.79,6.79,0,0,0-3.88,2.54Zm16.8,0a3.68,3.68,0,0,1-5.88,0A6.79,6.79,0,0,0,51.54,78V56.85l21.21,5.84L69,78.17a6.9,6.9,0,0,0-2.25-.37A6.8,6.8,0,0,0,61.29,80.52Z" style="fill:#0f3c7b"/><path d="M33.92,42.79A1.58,1.58,0,0,0,32.07,44l-.27,1.42a1.58,1.58,0,0,0,1.25,1.85h.31A1.58,1.58,0,0,0,34.91,46l.27-1.42a1.58,1.58,0,0,0-1.25-1.85h0Z" style="fill:#0f3c7b"/><path d="M37.92,42.65A1.58,1.58,0,0,0,36.13,44h0l-.2,1.42a1.58,1.58,0,0,0,1.34,1.79h.23a1.58,1.58,0,0,0,1.56-1.36l.2-1.42a1.58,1.58,0,0,0-1.34-1.79h0Z" style="fill:#0f3c7b"/><path d="M41.93,42.53A1.58,1.58,0,0,0,40.21,44v0l-.14,1.42a1.58,1.58,0,0,0,1.41,1.73h.16a1.58,1.58,0,0,0,1.57-1.43l.14-1.42a1.58,1.58,0,0,0-1.42-1.72Z" style="fill:#0f3c7b"/><path d="M45.94,42.45a1.58,1.58,0,0,0-1.66,1.5h0l-.07,1.42A1.58,1.58,0,0,0,45.72,47h.08a1.58,1.58,0,0,0,1.58-1.51l.07-1.42A1.58,1.58,0,0,0,46,42.41h0Z" style="fill:#0f3c7b"/><path d="M54.09,47h.08a1.58,1.58,0,0,0,1.5-1.66h0l-.07-1.42a1.58,1.58,0,0,0-3.16.15l.07,1.42A1.58,1.58,0,0,0,54.09,47Z" style="fill:#0f3c7b"/><path d="M56.66,45.68a1.58,1.58,0,0,0,1.57,1.43h.15a1.58,1.58,0,0,0,1.42-1.72h0L59.68,44a1.58,1.58,0,0,0-3.15.3h0Z" style="fill:#0f3c7b"/><path d="M60.82,45.86a1.58,1.58,0,0,0,1.56,1.36h.23A1.58,1.58,0,0,0,64,45.48v-.07L63.75,44a1.58,1.58,0,0,0-3.13.45Z" style="fill:#0f3c7b"/><path d="M65,46.06a1.58,1.58,0,0,0,1.55,1.29h.3a1.58,1.58,0,0,0,1.26-1.84h0L67.82,44a1.58,1.58,0,1,0-3.11.59Z" style="fill:#0f3c7b"/><rect x="36.91" y="33.36" width="12.57" height="3.16" style="fill:#0f3c7b"/><rect x="50.44" y="33.36" width="12.57" height="3.16" style="fill:#0f3c7b"/><path d="M44.26,59.84a1.58,1.58,0,0,0-1.58,1.58h0v3.06a1.58,1.58,0,0,0,3.16,0h0V61.42a1.58,1.58,0,0,0-1.58-1.58Z" style="fill:#0f3c7b"/><path d="M55.65,59.84a1.58,1.58,0,0,0-1.58,1.58h0v3.06a1.58,1.58,0,0,0,3.16,0h0V61.42a1.58,1.58,0,0,0-1.58-1.58Z" style="fill:#0f3c7b"/></svg>