<svg id="Layer_1" data-name="Layer 1" xmlns="http://www.w3.org/2000/svg" width="100" height="100" viewBox="0 0 100 100"><title>truck_v</title><path d="M36.87,26.83a1.14,1.14,0,0,1-1.2-1.2V20.86a1.2,1.2,0,0,1,2.39,0v4.77A1.14,1.14,0,0,1,37,26.83Z" style="fill:#0f3c7b"/><path d="M42.89,26.83a1.14,1.14,0,0,1-1.2-1.2V20.86a1.2,1.2,0,0,1,2.39,0v4.77A1.14,1.14,0,0,1,43,26.83Z" style="fill:#0f3c7b"/><path d="M48.89,26.83a1.14,1.14,0,0,1-1.18-1.2V20.86a1.2,1.2,0,0,1,2.39,0v4.77A1.14,1.14,0,0,1,49,26.83Z" style="fill:#0f3c7b"/><path d="M54.86,26.83a1.14,1.14,0,0,1-1.2-1.2V20.86a1.2,1.2,0,0,1,2.39,0v4.77A1.14,1.14,0,0,1,55,26.83Z" style="fill:#0f3c7b"/><path d="M60.9,26.83a1.14,1.14,0,0,1-1.2-1.2V20.86a1.2,1.2,0,0,1,2.39,0v4.77A1.14,1.14,0,0,1,61,26.83Z" style="fill:#0f3c7b"/><path d="M34.47,84.48H29.7a4.82,4.82,0,0,1-4.77-4.77V74.94H39.28v4.77A4.82,4.82,0,0,1,34.47,84.48Zm-7.2-7.2v2.39A2.39,2.39,0,0,0,29.65,82h4.77a2.39,2.39,0,0,0,2.39-2.39V77.28Z" style="fill:#0f3c7b"/><path d="M70.51,84.48H65.74A4.82,4.82,0,0,1,61,79.71V74.94H75.31v4.77A4.82,4.82,0,0,1,70.51,84.48Zm-7.2-7.2v2.39A2.39,2.39,0,0,0,65.69,82h4.77a2.39,2.39,0,0,0,2.39-2.39V77.28Z" style="fill:#0f3c7b"/><path d="M63.3,52.09H36.87a3.54,3.54,0,0,1-3.6-3.47s0-.09,0-.13V34a3.54,3.54,0,0,1,3.47-3.6H63.3a3.54,3.54,0,0,1,3.6,3.47s0,.09,0,.13V48.45a3.54,3.54,0,0,1-3.43,3.64ZM36.87,32.84a1.14,1.14,0,0,0-1.2,1.2V48.45a1.14,1.14,0,0,0,1.07,1.2H63.3a1.14,1.14,0,0,0,1.2-1.2V34a1.14,1.14,0,0,0-1.07-1.2H36.87Z" style="fill:#0f3c7b"/><path d="M23.67,40h-3.6a1.2,1.2,0,0,1,0-2.39h3.6a1.2,1.2,0,0,1,0,2.39Z" style="fill:#0f3c7b"/><path d="M19.08,44.84H16.22a2.15,2.15,0,0,1-2.16-2.15s0,0,0,0V35.12A2.15,2.15,0,0,1,16.2,33H19a2.15,2.15,0,0,1,2.16,2.15s0,0,0,0v7.57a2,2,0,0,1-1.81,2.15Zm-2.64-2.39h2.39V35.24H16.44Z" style="fill:#0f3c7b"/><path d="M80.11,40h-3.6a1.2,1.2,0,0,1,0-2.39h3.6a1.2,1.2,0,1,1,0,2.39Z" style="fill:#0f3c7b"/><path d="M84,44.84H81.19A2.15,2.15,0,0,1,79,42.7s0,0,0,0V35.12A2.15,2.15,0,0,1,81.18,33H84a2.15,2.15,0,0,1,2.16,2.15s0,0,0,0v7.57A2.15,2.15,0,0,1,84,44.84Zm-2.64-2.39h2.39V35.24H81.32Z" style="fill:#0f3c7b"/><path d="M54.86,59.24H45.32a1.2,1.2,0,1,1,0-2.39h9.54a1.2,1.2,0,1,1,0,2.39Z" style="fill:#0f3c7b"/><path d="M58.49,64.06H41.68a1.2,1.2,0,0,1,0-2.39H58.49a1.2,1.2,0,0,1,0,2.39Z" style="fill:#0f3c7b"/><path d="M41.68,52.09a1.09,1.09,0,0,1-.84-.36,1.16,1.16,0,0,1,0-1.64l0,0,6-6a1.19,1.19,0,0,1,1.65,1.64l-6,6A1.09,1.09,0,0,1,41.68,52.09Z" style="fill:#0f3c7b"/><path d="M52.47,52.09a1.09,1.09,0,0,1-.8-.4,1.16,1.16,0,0,1,0-1.64l0,0,6-6a1.19,1.19,0,0,1,1.68,1.68l-6,6A1.09,1.09,0,0,1,52.47,52.09Z" style="fill:#0f3c7b"/><path d="M78.91,70.07H21.27a1.14,1.14,0,0,1-1.2-1.2V54.47a1.14,1.14,0,0,1,1.07-1.2h6.13V29a4.56,4.56,0,0,1,4.52-4.6H68.38A4.56,4.56,0,0,1,72.91,29h0V53.25h6a1.14,1.14,0,0,1,1.2,1.22V68.87A1.14,1.14,0,0,1,79,70.07ZM22.46,67.68H77.71v-12h-6a1.14,1.14,0,0,1-1.2-1.18V29a2.15,2.15,0,0,0-2.11-2.2H31.8A2.15,2.15,0,0,0,29.67,29V54.47a1.14,1.14,0,0,1-1.07,1.2H22.47Z" style="fill:#0f3c7b"/><path d="M76.51,77.28H23.67a3.54,3.54,0,0,1-3.6-3.47s0-.09,0-.13V69a1.14,1.14,0,0,1,1.07-1.2H78.91a1.14,1.14,0,0,1,1.2,1.2v4.68a3.54,3.54,0,0,1-3.47,3.61ZM22.44,70.19v3.48a1.14,1.14,0,0,0,1.07,1.2h53a1.14,1.14,0,0,0,1.2-1.2V70.19Z" style="fill:#0f3c7b"/><path d="M77.71,55.66h-7.2V29a2.15,2.15,0,0,0-2.11-2.2H31.8A2.15,2.15,0,0,0,29.67,29V55.66h-7.2V16a3.54,3.54,0,0,1,3.47-3.6H74.11a3.54,3.54,0,0,1,3.6,3.47s0,.09,0,.13Zm-4.77-2.39h2.39V16a1.14,1.14,0,0,0-1.07-1.2H26.07a1.14,1.14,0,0,0-1.2,1.2V53.25h2.39V29a4.56,4.56,0,0,1,4.52-4.6h36.6A4.56,4.56,0,0,1,72.91,29h0Z" style="fill:#0f3c7b"/><path d="M29.67,65.26a3.6,3.6,0,1,1,3.6-3.63,3.54,3.54,0,0,1-3.44,3.63Zm0-4.77a1.2,1.2,0,1,0,1.2,1.2s0,0,0-.06a1.14,1.14,0,0,0-1.1-1.17h-.1Z" style="fill:#0f3c7b"/><path d="M70.51,65.26a3.6,3.6,0,1,1,3.6-3.63,3.54,3.54,0,0,1-3.44,3.63Zm0-4.77a1.2,1.2,0,1,0,1.2,1.2s0,0,0-.06a1.14,1.14,0,0,0-1.1-1.17h-.1Z" style="fill:#0f3c7b"/><rect x="6.26" y="84.48" width="87.48" height="3.1" rx="1.55" ry="1.55" style="fill:#0f3c7b"/></svg>