<svg id="Layer_1" data-name="Layer 1" xmlns="http://www.w3.org/2000/svg" width="100" height="100" viewBox="0 0 100 100"><title>careers</title><path d="M13.39,31.56a7.83,7.83,0,1,0,7.83-7.83A7.84,7.84,0,0,0,13.39,31.56Zm7.83-5.4a5.4,5.4,0,1,1-5.4,5.4A5.41,5.41,0,0,1,21.22,26.16Z" style="fill:#213e7a"/><path d="M22.43,21.4V19A1.21,1.21,0,0,0,20,19V21.4a1.21,1.21,0,0,0,2.43,0Z" style="fill:#213e7a"/><path d="M29.27,21.79l-1.73,1.73a1.21,1.21,0,0,0,1.72,1.72L31,23.5a1.21,1.21,0,1,0-1.72-1.72Z" style="fill:#213e7a"/><path d="M33.82,32.77a1.21,1.21,0,1,0,0-2.43H31.38a1.21,1.21,0,1,0,0,2.43Z" style="fill:#213e7a"/><path d="M27.54,37.88a1.21,1.21,0,0,0,0,1.72l1.73,1.73A1.21,1.21,0,1,0,31,39.61l-1.73-1.73A1.21,1.21,0,0,0,27.54,37.88Z" style="fill:#213e7a"/><path d="M20,41.71v2.44a1.21,1.21,0,1,0,2.43,0V41.71a1.21,1.21,0,1,0-2.43,0Z" style="fill:#213e7a"/><path d="M11.45,41.32a1.21,1.21,0,0,0,1.72,0l1.73-1.73a1.21,1.21,0,0,0-1.72-1.72l-1.73,1.73A1.21,1.21,0,0,0,11.45,41.32Z" style="fill:#213e7a"/><path d="M8.62,32.77h2.44a1.21,1.21,0,0,0,0-2.43H8.62a1.21,1.21,0,1,0,0,2.43Z" style="fill:#213e7a"/><path d="M13.17,21.79a1.21,1.21,0,1,0-1.72,1.72l1.73,1.73a1.21,1.21,0,1,0,1.72-1.72Z" style="fill:#213e7a"/><path d="M70.33,55.94a1.24,1.24,0,0,0,1.31.53,16.61,16.61,0,0,1,15.91,6.38,1.21,1.21,0,0,0,2.18-.54A41.78,41.78,0,0,0,88.33,46a1.21,1.21,0,1,0-2.32.7,39.9,39.9,0,0,1,1.53,12.42,19.31,19.31,0,0,0-14.39-5.3l.06-.19a45.36,45.36,0,0,0,2-8.92,35,35,0,0,0,0-8.35,26.35,26.35,0,0,0-1-4.74v0A23.52,23.52,0,0,1,84.14,42a1.21,1.21,0,1,0,2.17-1.09A26.05,26.05,0,0,0,72.26,28.05c-8.68-3.46-17.72-2.32-26.13,3.29A42,42,0,0,0,36,40.89a1.21,1.21,0,0,0,1.21,1.89,16.62,16.62,0,0,1,15.9,6.26,1.26,1.26,0,0,0,1.4.56,15.36,15.36,0,0,1,4.72-.09l-9.7,24.34h-.73a73.55,73.55,0,0,0-15.89,1.66,1.21,1.21,0,0,0,.53,2.37,72.13,72.13,0,0,1,15.37-1.6c2.53,0,5.07.12,7.59.37h0a59.6,59.6,0,0,1,13,2.66c4.63,1.55,8.2,3.59,10.3,5.86a11.47,11.47,0,0,0-3,1.46,8.9,8.9,0,0,1-10,0,11.32,11.32,0,0,0-12.77,0,8.9,8.9,0,0,1-10,0,11.32,11.32,0,0,0-12.77,0,8.9,8.9,0,0,1-10,0,11.47,11.47,0,0,0-3-1.46c2.09-2.26,5.66-4.3,10.28-5.85a1.21,1.21,0,1,0-.77-2.3c-5.8,1.95-10,4.58-12.25,7.66a11.34,11.34,0,0,0-7,2,1.21,1.21,0,0,0,1.36,2,8.91,8.91,0,0,1,6-1.5l.22,0a9,9,0,0,1,3.85,1.47,11.32,11.32,0,0,0,12.77,0,8.9,8.9,0,0,1,10,0,11.32,11.32,0,0,0,12.77,0,8.9,8.9,0,0,1,10,0,11.32,11.32,0,0,0,12.77,0,9,9,0,0,1,3.84-1.47l.24,0a8.91,8.91,0,0,1,6,1.5,1.21,1.21,0,0,0,1.36-2,11.34,11.34,0,0,0-7-2C80.18,81.6,76,79,70.16,77a60.68,60.68,0,0,0-11.91-2.6l8.7-21.82A15.34,15.34,0,0,1,70.33,55.94ZM56.18,47l0-.08a43.63,43.63,0,0,1,4-6.78,1.21,1.21,0,0,0-2-1.42,45.27,45.27,0,0,0-3.32,5.38c-.36.67-.72,1.35-1,2.05l0,0a19.32,19.32,0,0,0-14.09-6,40.89,40.89,0,0,1,7.75-6.79A28.43,28.43,0,0,1,58.08,28.9a23.3,23.3,0,0,1,10.37.44l0,0a26.8,26.8,0,0,0-5.16,3.72c-.61.56-1.21,1.13-1.78,1.73a1.21,1.21,0,1,0,1.76,1.68,27.64,27.64,0,0,1,5.23-4.33,19.2,19.2,0,0,1,2.77-1.46,18.82,18.82,0,0,1,.89,2.54,32.49,32.49,0,0,1-.21,16.23q-.41,1.7-1,3.36v0a18.7,18.7,0,0,0-6-4.2l-.09,0A19,19,0,0,0,56.18,47Zm8.66,4.32L55.73,74.15,54,74l-1.89-.1L61.66,50a17.11,17.11,0,0,1,1.7.59Z" style="fill:#213e7a"/></svg>