<svg id="Layer_1" data-name="Layer 1" xmlns="http://www.w3.org/2000/svg" width="100" height="100" viewBox="0 0 100 100"><title>careers</title><path d="M65.68,80.55a1.31,1.31,0,0,0-1.59,1l-1.31,5.23a1.31,1.31,0,0,0,1,1.59,1.25,1.25,0,0,0,.32,0,1.31,1.31,0,0,0,1.27-1l1.31-5.23A1.31,1.31,0,0,0,65.68,80.55Z" style="fill:#213e7a"/><path d="M49.67,54.34a1.29,1.29,0,0,0,.5-.1l14.39-6a1.31,1.31,0,1,0-1-2.42L49.67,51.62,13,36.46V36a1.31,1.31,0,1,0-2.62,0v1.31a1.31,1.31,0,0,0,.81,1.21l37.95,15.7A1.3,1.3,0,0,0,49.67,54.34Z" style="fill:#213e7a"/><path d="M65.23,67.75a1.31,1.31,0,0,0-1.75-.59A30.49,30.49,0,0,1,51,70V58.27a1.31,1.31,0,0,0-2.62,0V70c-16.25-.52-21.49-10.36-22.24-12V49.11a1.31,1.31,0,1,0-2.62,0v9.16a1.32,1.32,0,0,0,.09.49c.23.57,5.8,13.91,26.08,13.91a33.62,33.62,0,0,0,15-3.16A1.31,1.31,0,0,0,65.23,67.75Z" style="fill:#213e7a"/><path d="M69.29,81.82A1.31,1.31,0,0,0,68,83.13v3.93a1.31,1.31,0,1,0,2.62,0V83.13A1.31,1.31,0,0,0,69.29,81.82Z" style="fill:#213e7a"/><path d="M87.61,34.71A1.31,1.31,0,0,0,86.3,36v.43L70.6,42.92V40.55L88.11,33.3a1.31,1.31,0,0,0,0-2.42L50.17,15.19a1.32,1.32,0,0,0-1,0L11.22,30.89a1.31,1.31,0,0,0,0,2.42L49.17,49a1.31,1.31,0,0,0,1,0l13.72-5.68a1.31,1.31,0,1,0-1-2.42L49.67,46.38,15.14,32.1,49.67,17.81,84.19,32.1l-15,6.22L54.78,32.94a3.11,3.11,0,0,0,.12-.84c0-2.2-2.3-3.93-5.23-3.93s-5.23,1.72-5.23,3.93S46.73,36,49.67,36a6.33,6.33,0,0,0,3.39-.93L68,40.66V72.9a3.93,3.93,0,1,0,2.62,0V65.47a15.9,15.9,0,0,0,5.16-6.78,1.32,1.32,0,0,0,.07-.43V49.11a1.31,1.31,0,1,0-2.62,0V58a13.38,13.38,0,0,1-2.62,4V45.75l17.51-7.21a1.31,1.31,0,0,0,.81-1.21V36A1.31,1.31,0,0,0,87.61,34.71ZM49.67,33.4c-1.6,0-2.62-.77-2.62-1.31s1-1.31,2.62-1.31,2.62.77,2.62,1.31S51.26,33.4,49.67,33.4ZM69.29,77.89a1.31,1.31,0,1,1,1.31-1.31A1.31,1.31,0,0,1,69.29,77.89Z" style="fill:#213e7a"/><path d="M74.49,81.5a1.31,1.31,0,0,0-2.54.64l1.31,5.23a1.31,1.31,0,0,0,1.27,1,1.25,1.25,0,0,0,.32,0,1.31,1.31,0,0,0,1-1.59Z" style="fill:#213e7a"/></svg>