<svg id="Layer_1" data-name="Layer 1" xmlns="http://www.w3.org/2000/svg" width="100" height="100" viewBox="0 0 100 100"><title>careers</title><path d="M55.42,67.6l-.24-2.45c-1.94.19-3.9.29-5.81.3v2.46C51.37,67.9,53.4,67.8,55.42,67.6Z" style="fill:#213e7a"/><path d="M89.07,75.6a3.73,3.73,0,0,0-5-1.31,68.61,68.61,0,0,1-10.56,4.86l-5.91-20.3h9.67V57.62A7.21,7.21,0,0,0,70,50.41H67.32V38.8a4.14,4.14,0,0,0-4.14-4.14H37.58L34.26,20.92a10.46,10.46,0,0,0-12.62-7.7l-3.31.8L29.15,58.67l-.87,3c-1.38-.53-2.73-1.11-4.05-1.75l-1.07,2.22c1.44.69,2.92,1.33,4.43,1.9l-1.18,4.06q-2-.89-3.85-1.93l-1.2,2.15q2.11,1.18,4.35,2.17L23.53,78a77.25,77.25,0,0,1-8.71-3.81A3.75,3.75,0,0,0,9.46,78.4l0,.11a3.76,3.76,0,0,0,1.88,2.32,89.08,89.08,0,0,0,22.84,8,83.42,83.42,0,0,0,16.64,1.71A76.6,76.6,0,0,0,60.12,90a74.18,74.18,0,0,0,27.6-9.14,3.75,3.75,0,0,0,1.35-5.21ZM67.32,52.88H70a4.75,4.75,0,0,1,4.58,3.51H67.32Zm3.82,27.07q-1.35.43-2.71.8L64.19,66.19l1.55-.36-.59-2.39-1.66.39-1.45-5H65ZM33.7,70.75l3.46-11.9H59.49l1.59,5.46q-1.59.3-3.15.51l.34,2.44c1.16-.16,2.33-.35,3.51-.58L66,81.34a70.68,70.68,0,0,1-30.16.15c-1.73-.35-3.39-.74-5-1.17L33,73.11q1,.3,2.1.56l.6-2.39Q34.7,71,33.7,70.75Zm6.62-24.81-.73-3H59v7.48H40.42A10.44,10.44,0,0,0,40.32,45.94Zm-.71,6.94H59v3.51H36.9a10.5,10.5,0,0,0,2.71-3.51ZM61.5,56v-13h1.68a4.11,4.11,0,0,0,1.68-.36V56Zm1.68-18.83a1.68,1.68,0,1,1,0,3.35H32.51a1.68,1.68,0,0,1,0-3.35ZM21.31,15.84l.91-.22a8,8,0,0,1,9.64,5.88l3.19,13.16H32.51a4.14,4.14,0,0,0,0,8.28h4.55l.87,3.58a8,8,0,0,1-6.81,9.81Zm8.61,49,.78.26.75-2.35-.84-.27,1.06-3.63H34.6L31.35,70q-1.35-.45-2.66-1ZM28,71.42q1.31.51,2.66,1l-2.12,7.28c-.93-.28-1.83-.56-2.69-.85Zm59.11,6.47a1.27,1.27,0,0,1-.61.79,71.74,71.74,0,0,1-26.69,8.84,74.26,74.26,0,0,1-9,.54A80.92,80.92,0,0,1,34.7,86.39a86.59,86.59,0,0,1-22.2-7.74,1.29,1.29,0,0,1-.5-1.82,1.29,1.29,0,0,1,1.1-.61,1.27,1.27,0,0,1,.58.14,84.71,84.71,0,0,0,21.71,7.55A78.61,78.61,0,0,0,51,85.51a68.66,68.66,0,0,0,34.27-9.07,1.28,1.28,0,0,1,1.88,1.44Z" style="fill:#213e7a"/><path d="M15.82,65.63a31.87,31.87,0,0,0,3.54,2.48L20.66,66a30.1,30.1,0,0,1-3.24-2.27Z" style="fill:#213e7a"/><path d="M21.59,59.54a41.55,41.55,0,0,1-8.42-5.91l-1.73,1.75a43.07,43.07,0,0,0,9,6.31Z" style="fill:#213e7a"/><rect x="27.92" y="22.13" width="2.46" height="2.03" transform="translate(-4.66 7.59) rotate(-13.74)" style="fill:#213e7a"/><rect x="29.58" y="25.91" width="2.46" height="8.02" transform="translate(-6.23 8.18) rotate(-13.74)" style="fill:#213e7a"/></svg>