<svg id="Layer_1" data-name="Layer 1" xmlns="http://www.w3.org/2000/svg" width="100" height="100" viewBox="0 0 100 100"><title>careers</title><path d="M21.49,16.26H16.38V26.48h2.55V23.92h2.55a3.83,3.83,0,0,0,0-7.66Zm0,5.11H18.93V18.81h2.55a1.28,1.28,0,0,1,0,2.55Z" style="fill:#213e7a"/><path d="M67.47,77.57a12.77,12.77,0,1,0-20.4,10.22H27.87V82.68H24V54.58H21.49v-23h6l4.38-10.22L27.44,11.15H13L8.6,21.37,13,31.59h6v23H16.38v28.1H12.55v5.11H8.71v2.55h79.2V87.79H62.33A12.75,12.75,0,0,0,67.47,77.57ZM14.67,29l-3.28-7.66,3.28-7.66H25.76L29,21.37,25.76,29Zm4.27,28.1h2.55V82.68H18.93Zm6.39,30.66H15.1V85.24H25.32Zm29.38,0A10.22,10.22,0,1,1,64.92,77.57,10.23,10.23,0,0,1,54.7,87.79Z" style="fill:#213e7a"/><path d="M79.18,21.37a11.5,11.5,0,0,0-11.12,8.57l-4.13,15.7H57.25a24.3,24.3,0,0,0-20.93,12L33,58.77v8.58H27.88V77.57h11.5V75H35.54V60.61L39,59.44a44.9,44.9,0,0,1,14.23-2.31h.92A18.37,18.37,0,0,1,72.56,75H70v2.55H87.91V75H75.13A21,21,0,0,0,54.19,54.58h-.92a47.52,47.52,0,0,0-13,1.81,21.74,21.74,0,0,1,17-8.2H65.9l4.63-17.6a9,9,0,0,1,8.65-6.67h8.73V21.37ZM33,75H30.43V69.91H33Z" style="fill:#213e7a"/><path d="M54.7,71.18a6.39,6.39,0,1,0,6.39,6.39A6.39,6.39,0,0,0,54.7,71.18Zm0,10.22a3.83,3.83,0,1,1,3.83-3.83A3.84,3.84,0,0,1,54.7,81.4Z" style="fill:#213e7a"/><path d="M73.4,30.6,69.65,44.65a3.83,3.83,0,0,0,3.7,4.82H87.91V46.91H73.35a1.28,1.28,0,0,1-1.23-1.61l3.75-14.05a1.28,1.28,0,0,1,1.23-.95H87.91V27.75H77.1A3.84,3.84,0,0,0,73.4,30.6Z" style="fill:#213e7a"/></svg>