<svg id="Layer_1" data-name="Layer 1" xmlns="http://www.w3.org/2000/svg" width="100" height="100" viewBox="0 0 100 100"><title>careers</title><path d="M86.14,52.35l1.23-6.45a1.31,1.31,0,0,0-.28-1.1,1.35,1.35,0,0,0-1-.49h-4V40.07a4,4,0,0,0,2.67-3.76V33.64a1.33,1.33,0,0,0-1.34-1.34H78a1.34,1.34,0,0,0-1.34,1.34v2.67a4,4,0,0,0,2.67,3.76v4.25h-4a1.35,1.35,0,0,0-1.32,1.59l1.23,6.43H60.69V49.67h6.68a4,4,0,0,0,4-4V32.3a4,4,0,0,0-4-4h-24a4,4,0,0,0-4,4V45.66a4,4,0,0,0,4,4H50v2.67H39.31V51a2.68,2.68,0,0,0-2.67-2.67h-4A2.68,2.68,0,0,0,30,51v1.34H28.5a6.67,6.67,0,0,0-5.67-5.25l-4.3-8.61a4,4,0,0,0,1.06-6.17l2.5-1.25A6.46,6.46,0,0,0,22,32.3a1.33,1.33,0,0,0,1.33,1.34H34a1.34,1.34,0,0,0,1.34-1.34A6.65,6.65,0,0,0,32.6,27h0V25.62a4,4,0,0,0-8,0V26.8L16.22,31a4,4,0,0,0-.48,7.86L20,47.33a6.68,6.68,0,0,0-4.55,5H13.94a1.34,1.34,0,0,0-1.34,1.34V59a1.34,1.34,0,0,0,1.34,1.34h2.67V87.06a1.34,1.34,0,0,0,1.34,1.34h6.68A1.34,1.34,0,0,0,26,87.06V60.35H74V87.06a1.33,1.33,0,0,0,1.34,1.34h6.68a1.33,1.33,0,0,0,1.33-1.34V60.35h2.67A1.34,1.34,0,0,0,87.4,59V53.67A1.32,1.32,0,0,0,86.14,52.35ZM79.38,35h2.67v1.34a1.34,1.34,0,0,1-2.67,0ZM77,47h7.46l-1,5.34H78ZM43.32,31h24A1.34,1.34,0,0,1,68.7,32.3v9.35H42V32.3A1.33,1.33,0,0,1,43.32,31ZM42,45.66V44.32H68.7v1.34A1.34,1.34,0,0,1,67.36,47h-24A1.33,1.33,0,0,1,42,45.66Zm10.68,4H58v2.67H52.67ZM32.64,51h4v1.34h-4ZM24.85,31a4,4,0,0,1,7.56,0Zm3.78-6.68A1.33,1.33,0,0,1,30,25.62v.14a6.48,6.48,0,0,0-1.33-.14,6.56,6.56,0,0,0-1.34.14v-.14A1.34,1.34,0,0,1,28.63,24.29Zm-12,9.35A1.34,1.34,0,1,1,15.28,35,1.34,1.34,0,0,1,16.61,33.64Zm5.35,16a4,4,0,0,1,3.77,2.67H18.17A4,4,0,0,1,22,49.67Zm1.33,36.05h-4V60.35h4Zm57.43,0h-4V60.35h4Zm4-28H15.28V55H84.72Z" style="fill:#213e7a"/><path d="M59.35,67a4,4,0,0,0-4-4H44.66a4,4,0,1,0,0,8h.87L40.71,86.67a1.29,1.29,0,0,0-.06.39v1.34h2.67V87.26l5-16.23h.35V88.39h2.67V71h.35l5,16.23v1.13h2.67V87.06a1.34,1.34,0,0,0-.06-.39L54.48,71h.87A4,4,0,0,0,59.35,67Zm-16,0a1.34,1.34,0,0,1,1.34-1.34H55.34a1.34,1.34,0,0,1,0,2.67H44.66A1.34,1.34,0,0,1,43.32,67Z" style="fill:#213e7a"/><path d="M86.06,13.61H72.7a1.34,1.34,0,0,0-1.34,1.34V25.62A1.34,1.34,0,0,0,72.7,27H86.06a1.34,1.34,0,0,0,1.34-1.34V14.94A1.34,1.34,0,0,0,86.06,13.61Zm-1.34,2.67v4l-3.2-2.41a1.34,1.34,0,0,0-1.75.12l-2,2L76,19.09a1.34,1.34,0,0,0-1.54.25l-.39.39V16.28ZM74,24.29V23.5l1.6-1.6,1.81.91A1.35,1.35,0,0,0,79,22.56l1.85-1.85,3.88,2.91v.67Z" style="fill:#213e7a"/><rect x="47.56" y="34.97" width="7.56" height="2.67" transform="translate(-10.64 46.94) rotate(-45)" style="fill:#213e7a"/><polygon points="55.73 38.03 61.08 32.69 62.96 34.58 57.62 39.92 55.73 38.03" style="fill:#213e7a"/></svg>