<svg id="Layer_1" data-name="Layer 1" xmlns="http://www.w3.org/2000/svg" width="100" height="100" viewBox="0 0 100 100"><title>careers</title><path d="M46.31,72.93l-9.75-10A3.54,3.54,0,0,0,34,61.86a3.58,3.58,0,0,0-2.65,6l5.87,6.47a.75.75,0,0,1,.2.51.76.76,0,0,1-.29.6.77.77,0,0,1-1-.08L29.3,67.95a2.62,2.62,0,0,1-.68-1.59L27.8,54.88a4,4,0,0,0-4-3.73h0a4,4,0,0,0-4,4.06L20,70.61a7.76,7.76,0,0,0,2,5.06L32.25,87.3a1.92,1.92,0,0,1,.48,1.29v.64A1.33,1.33,0,0,0,34,90.56h0a1.33,1.33,0,0,0,1.33-1.32v-.64a4.56,4.56,0,0,0-1.15-3.06L23.91,73.91a5.11,5.11,0,0,1-1.29-3.33l-.18-15.4a1.36,1.36,0,0,1,1.34-1.37h0a1.36,1.36,0,0,1,1.36,1.27L26,66.55a5.28,5.28,0,0,0,1.38,3.2l6.79,7.39a3.41,3.41,0,0,0,5-4.6l-5.87-6.47a.93.93,0,0,1,0-1.26.93.93,0,0,1,1.34,0l9.76,10,.17.18a6.87,6.87,0,0,1,1.6,5.84L44.7,89a1.33,1.33,0,0,0,1.07,1.54l.24,0a1.33,1.33,0,0,0,1.3-1.09l1.5-8.19a9.53,9.53,0,0,0-2.25-8.1Z" style="fill:#213e7a"/><path d="M76.22,51.15h0a4,4,0,0,0-4,3.73l-.81,11.48a2.63,2.63,0,0,1-.68,1.59l-6.79,7.39a.77.77,0,0,1-1,.08.76.76,0,0,1-.09-1.11l5.87-6.47a3.58,3.58,0,0,0-2.65-6,3.54,3.54,0,0,0-2.56,1.08l-9.74,10-.25.27a9.53,9.53,0,0,0-2.25,8.1l1.5,8.19A1.33,1.33,0,0,0,54,90.56l.24,0A1.33,1.33,0,0,0,55.3,89l-1.5-8.19A6.87,6.87,0,0,1,55.41,75l.18-.19,9.75-10a.93.93,0,0,1,1.34,0,.93.93,0,0,1,0,1.25l-5.87,6.47a3.41,3.41,0,0,0,5,4.6l6.79-7.39A5.29,5.29,0,0,0,74,66.55l.81-11.48A1.36,1.36,0,0,1,76.2,53.8h0a1.36,1.36,0,0,1,1.35,1.38l-.18,15.4a5.11,5.11,0,0,1-1.29,3.33L65.77,85.54a4.56,4.56,0,0,0-1.15,3.06v.64a1.33,1.33,0,1,0,2.65,0v-.64a1.91,1.91,0,0,1,.48-1.28L78.07,75.67a7.76,7.76,0,0,0,2-5.06l.18-15.4a4,4,0,0,0-4-4.06Z" style="fill:#213e7a"/><path d="M53.69,27.07l9.75,10A3.54,3.54,0,0,0,66,38.14a3.58,3.58,0,0,0,2.65-6l-5.87-6.47a.75.75,0,0,1-.2-.51.76.76,0,0,1,1.32-.52l6.79,7.39a2.62,2.62,0,0,1,.68,1.59l.81,11.48a4,4,0,0,0,4,3.73h0a4,4,0,0,0,4-4.06L80,29.39a7.76,7.76,0,0,0-2-5.06l-5.54-6.24a1.33,1.33,0,1,0-2,1.76l5.54,6.24a5.11,5.11,0,0,1,1.29,3.33l.18,15.4a1.36,1.36,0,0,1-1.34,1.38h0a1.36,1.36,0,0,1-1.35-1.27L74,33.45a5.27,5.27,0,0,0-1.38-3.19l-6.79-7.39a3.43,3.43,0,0,0-4.62-.37,3.41,3.41,0,0,0-.42,5l5.87,6.47a.93.93,0,0,1,0,1.26.93.93,0,0,1-1.34,0l-9.76-10L55.41,25a6.87,6.87,0,0,1-1.6-5.84L55.3,11a1.33,1.33,0,1,0-2.61-.48l-1.5,8.19a9.53,9.53,0,0,0,2.25,8.1Z" style="fill:#213e7a"/><path d="M68.2,17.2a1.33,1.33,0,0,0,2-1.76l-2.44-2.75a1.91,1.91,0,0,1-.48-1.28v-.64A1.33,1.33,0,0,0,66,9.44h0a1.33,1.33,0,0,0-1.33,1.32v.64a4.55,4.55,0,0,0,1.15,3.06Z" style="fill:#213e7a"/><path d="M23.78,48.85h0a4,4,0,0,0,4-3.73l.81-11.48a2.63,2.63,0,0,1,.68-1.59l6.79-7.39a.77.77,0,0,1,1-.08.76.76,0,0,1,.09,1.11l-5.87,6.47a3.58,3.58,0,0,0,2.65,6,3.54,3.54,0,0,0,2.56-1.08l9.74-10,.26-.27a9.53,9.53,0,0,0,2.25-8.1l-1.5-8.19A1.33,1.33,0,0,0,44.7,11l1.5,8.19A6.87,6.87,0,0,1,44.59,25l-.18.19-9.75,10a.93.93,0,0,1-1.34,0,.93.93,0,0,1,0-1.25l5.87-6.47a3.41,3.41,0,0,0-5-4.6l-6.79,7.39A5.3,5.3,0,0,0,26,33.45l-.81,11.48A1.36,1.36,0,0,1,23.8,46.2h0a1.36,1.36,0,0,1-1.35-1.38l.18-15.4a5.11,5.11,0,0,1,1.29-3.33L34.23,14.45a4.56,4.56,0,0,0,1.15-3.06v-.64a1.33,1.33,0,0,0-1.33-1.32h0a1.33,1.33,0,0,0-1.32,1.33v.64a1.91,1.91,0,0,1-.48,1.28L21.93,24.33a7.76,7.76,0,0,0-2,5.06l-.18,15.4a4,4,0,0,0,4,4.06Z" style="fill:#213e7a"/><path d="M65.19,50a11.36,11.36,0,0,0-1.81-6.26,8.62,8.62,0,0,0-7.21-4.14A7.27,7.27,0,0,0,50,43.31a7.27,7.27,0,0,0-6.16-3.71c-5,0-9,4.66-9,10.39a12.7,12.7,0,0,0,2.9,7.57A1.33,1.33,0,0,0,39.83,56a10.16,10.16,0,0,1-2.37-6c0-4.27,2.86-7.74,6.38-7.74,2.67,0,4.84,2.66,4.84,5.93a1.33,1.33,0,1,0,2.65,0c0-3.27,2.17-5.93,4.84-5.93a6,6,0,0,1,5,2.94A8.71,8.71,0,0,1,62.54,50c0,5.21-6.2,10.8-12.54,14.18a38.39,38.39,0,0,1-4.82-3.06c-.88-.65-1.7-1.33-2.45-2a1.33,1.33,0,1,0-1.78,2c.82.74,1.71,1.48,2.65,2.18a41,41,0,0,0,5.8,3.61,1.33,1.33,0,0,0,1.21,0C57.33,63.41,65.19,56.93,65.19,50Z" style="fill:#213e7a"/></svg>