<svg id="Layer_1" data-name="Layer 1" xmlns="http://www.w3.org/2000/svg" width="100" height="100" viewBox="0 0 100 100"><title>careers</title><path d="M35.57,30.9A13.28,13.28,0,1,0,45,34.79,13.19,13.19,0,0,0,35.57,30.9Zm7,20.32A10,10,0,0,1,29.79,52.3,1.66,1.66,0,0,0,27.45,50,10,10,0,0,1,41.34,36.07a1.66,1.66,0,0,0,2.34,2.34,10,10,0,0,1-1.07,12.82Z" style="fill:#213e7a"/><circle cx="47.3" cy="32.45" r="1.66" transform="translate(-9.09 42.95) rotate(-45)" style="fill:#213e7a"/><circle cx="37.91" cy="41.84" r="1.66" transform="translate(-18.48 39.06) rotate(-45)" style="fill:#213e7a"/><circle cx="33.22" cy="46.53" r="1.66" transform="translate(-23.17 37.12) rotate(-45)" style="fill:#213e7a"/><circle cx="23.83" cy="55.92" r="1.66" transform="translate(-32.55 33.2) rotate(-44.98)" style="fill:#213e7a"/><path d="M73.77,37.54H57.18a1.66,1.66,0,1,0,0,3.32h16.6a1.66,1.66,0,1,0,0-3.32Z" style="fill:#213e7a"/><path d="M73.74,44.18H57.15a1.66,1.66,0,1,0,0,3.32h16.6a1.66,1.66,0,0,0,0-3.32Z" style="fill:#213e7a"/><path d="M65.47,50.82H57.12a1.66,1.66,0,1,0,0,3.32h8.36a1.66,1.66,0,1,0,0-3.32Z" style="fill:#213e7a"/><path d="M87,64.1H85.36V22.61a1.66,1.66,0,0,0-1.66-1.66H14a1.66,1.66,0,0,0-1.66,1.66V64.1H10.67a1.66,1.66,0,0,0,0,3.32h5a8.28,8.28,0,0,0,.58,5.08,11.59,11.59,0,0,0-3.94,8.71v4.46A1.66,1.66,0,0,0,14,87.34H33.91a1.66,1.66,0,0,0,1.66-1.66V81.22a11.59,11.59,0,0,0-4.11-8.86A8.3,8.3,0,0,0,32,67.42h8.63a8.26,8.26,0,0,0,.58,5.08,11.59,11.59,0,0,0-3.94,8.71v4.46a1.66,1.66,0,0,0,1.66,1.66H58.8a1.66,1.66,0,0,0,1.66-1.66V81.22a11.6,11.6,0,0,0-4.11-8.86,8.28,8.28,0,0,0,.51-4.94h8.63a8.26,8.26,0,0,0,.58,5.08,11.59,11.59,0,0,0-3.94,8.71v4.46a1.66,1.66,0,0,0,1.66,1.66H83.7a1.66,1.66,0,0,0,1.66-1.66V81.22a11.59,11.59,0,0,0-4.11-8.86,8.3,8.3,0,0,0,.51-4.94H87a1.66,1.66,0,0,0,0-3.32Zm-58.22,5a5,5,0,1,1-5-5A5,5,0,0,1,28.81,69.08Zm3.44,12.14V84H15.65v-2.8a8.28,8.28,0,0,1,2.59-6,8.28,8.28,0,0,0,11.3-.11A8.27,8.27,0,0,1,32.25,81.22ZM53.71,69.08a5,5,0,1,1-5-5A5,5,0,0,1,53.71,69.08Zm3.44,12.14V84H40.54v-2.8a8.28,8.28,0,0,1,2.59-6,8.28,8.28,0,0,0,11.3-.11A8.27,8.27,0,0,1,57.15,81.22ZM78.61,69.08a5,5,0,1,1-5-5A5,5,0,0,1,78.61,69.08ZM82,81.22V84H65.44v-2.8a8.28,8.28,0,0,1,2.59-6,8.28,8.28,0,0,0,11.3-.11A8.27,8.27,0,0,1,82,81.22ZM80.26,64.1A8.29,8.29,0,0,0,67,64.1H55.36a8.29,8.29,0,0,0-13.27,0H30.46a8.29,8.29,0,0,0-13.27,0H15.65V24.27H82V64.1Z" style="fill:#213e7a"/></svg>