<svg id="Layer_1" data-name="Layer 1" xmlns="http://www.w3.org/2000/svg" width="100" height="100" viewBox="0 0 100 100"><title>careers</title><path d="M23.36,49.13a3.06,3.06,0,0,0-1.71,2.56c0,.59.49,1,1.22,1s1.22-.39,1.22-1,.24-.69.85-1.18a2.77,2.77,0,0,0,0-5.12c-.61-.49-.85-.69-.85-1.18s.24-.69.85-1.18a3.06,3.06,0,0,0,1.71-2.56c0-.59-.49-1-1.22-1s-1.22.39-1.22,1-.24.69-.85,1.18a2.77,2.77,0,0,0,0,5.12c.61.49.85.69.85,1.18S24,48.63,23.36,49.13Z" style="fill:#213e7a"/><path d="M30.2,47.83a5.38,5.38,0,0,0-1.19,1,2.82,2.82,0,0,0-.67,1.85,1.27,1.27,0,0,0,.48,1,1.95,1.95,0,0,0,2.24,0,1.27,1.27,0,0,0,.47-1,.49.49,0,0,1,.12-.36,4.2,4.2,0,0,1,.59-.53,5.36,5.36,0,0,0,1.19-1,2.91,2.91,0,0,0,0-3.7,5.37,5.37,0,0,0-1.19-1,4.22,4.22,0,0,1-.59-.53.6.6,0,0,1,0-.71,4.2,4.2,0,0,1,.59-.53,5.36,5.36,0,0,0,1.19-1,2.82,2.82,0,0,0,.67-1.85,1.27,1.27,0,0,0-.47-1,1.95,1.95,0,0,0-2.24,0,1.27,1.27,0,0,0-.47,1,.49.49,0,0,1-.12.36,4.2,4.2,0,0,1-.59.53,5.38,5.38,0,0,0-1.19,1,2.9,2.9,0,0,0,0,3.7,5.37,5.37,0,0,0,1.19,1,4.2,4.2,0,0,1,.59.53.6.6,0,0,1,0,.71A4.2,4.2,0,0,1,30.2,47.83Z" style="fill:#213e7a"/><path d="M84.19,78.65a1.69,1.69,0,0,0,1,.35,1.67,1.67,0,0,0,1.09-.36,1.28,1.28,0,0,0,.45-1V37a1.28,1.28,0,0,0-.45-1,1.83,1.83,0,0,0-2.18,0,1.28,1.28,0,0,0-.46,1v3.27H78V30.51a5,5,0,0,0-1.42-3.37C73.93,24.19,68,22.2,60.71,22V14.64a3.27,3.27,0,0,0,2.34-3,3.1,3.1,0,0,0-1.19-2.39,4.26,4.26,0,0,0-2.69-.93,4.19,4.19,0,0,0-2.74,1,3.12,3.12,0,0,0-1.14,2.35,3.27,3.27,0,0,0,2.34,3V22A32.88,32.88,0,0,0,46,24.36a13.09,13.09,0,0,0-3.83,2.44,5.88,5.88,0,0,0-1.71,2.84h-4a1.67,1.67,0,0,0-1.35.63,1,1,0,0,0-.21.6,1.39,1.39,0,0,0,.33.85h0L40.33,38V53.36H12.77a1.67,1.67,0,0,0-1.09.36,1.28,1.28,0,0,0-.45,1v5.12c0,10.79,3.05,20.75,8.07,26.49H13.94a1.67,1.67,0,0,0-1.09.36,1.33,1.33,0,0,0,0,2,1.67,1.67,0,0,0,1.09.36H85.23a1.67,1.67,0,0,0,1.09-.36,1.33,1.33,0,0,0,0-2,1.67,1.67,0,0,0-1.09-.36H78V74.48h5.68v3.17A1.28,1.28,0,0,0,84.19,78.65ZM78,71.86V43h5.68V71.86ZM40.33,84.52v1.61H39A19.58,19.58,0,0,0,40.33,84.52Zm7-21.26a4,4,0,0,1,0,7.91H45.93A49.86,49.86,0,0,0,47,63.26ZM43.42,79.1a37.86,37.86,0,0,0,1.89-5.41h2.06a7.19,7.19,0,0,0,5-2,6.5,6.5,0,0,0,2-4.71,6.92,6.92,0,0,0-7-6.67H47v-6a1.28,1.28,0,0,0-.45-1A1.67,1.67,0,0,0,45.49,53H43.42V37.5a1.57,1.57,0,0,0-.29-.78l0,0L39.4,32.26H74.8V86.13H43.42Zm.65-23.22v3.76a48.44,48.44,0,0,1-2.58,16c-1.63,4.58-4,8.24-6.77,10.45H23.44c-5.53-4.63-9.13-15-9.12-26.49V55.88ZM59.74,11.94a1,1,0,0,1-.57.19.93.93,0,0,1-.61-.18.54.54,0,0,1,0-.85,1,1,0,0,1,.57-.19.87.87,0,0,1,.6.21.55.55,0,0,1,.2.4A.52.52,0,0,1,59.74,11.94ZM44.86,28.12c2.4-1.92,7.53-3.54,14.31-3.53a32.77,32.77,0,0,1,10.73,1.65A12.71,12.71,0,0,1,73.32,28a4.29,4.29,0,0,1,1.33,1.55H43.6A4.72,4.72,0,0,1,44.86,28.12Z" style="fill:#213e7a"/></svg>