<svg id="Layer_1" data-name="Layer 1" xmlns="http://www.w3.org/2000/svg" width="100" height="100" viewBox="0 0 100 100"><title>blog-01</title><path d="M88.36,22.08a9.72,9.72,0,0,0-6.95-2.83,10.21,10.21,0,0,0-6.95,2.83l-3.88,4V12a2.49,2.49,0,0,0-2.49-2.49H11.3A2.49,2.49,0,0,0,8.81,12V89.36a2.49,2.49,0,0,0,2.49,2.49H68.11a2.49,2.49,0,0,0,2.49-2.49V53.62L88.36,35.85A9.8,9.8,0,0,0,88.36,22.08ZM68,89.28H13.87a2.49,2.49,0,0,1-2.49-2.49V14.53A2.49,2.49,0,0,1,13.83,12H65.54A2.49,2.49,0,0,1,68,14.52h0V28.65L55.9,40.75l1,1L37.25,61.35l1.41,1.41-5.92,3.61a1.29,1.29,0,0,0-.51.65L26.44,82.2a1.86,1.86,0,0,0,.26,1.41,1.2,1.2,0,0,0,1.41.26L43.3,78.08a1.36,1.36,0,0,0,.65-.51l3.61-5.92L49,73.06,68,54.13ZM41,61.35,58.76,43.58l8.1,8.1L49.1,69.45Zm4.75,8.49-3.73,6-12.1,4.63,4.63-12.1,6-3.73,4.77,4.77ZM86.56,34,69.69,50.92,59.53,40.75,76.38,23.89c1.41-1.55,6.31-3.86,10.16,0A7.45,7.45,0,0,1,86.56,34Z" style="fill:#fff"/><rect x="58.29" y="49.93" width="2.57" height="2.06" transform="translate(-18.58 57.08) rotate(-45.02)" style="fill:#fff"/><rect x="54.23" y="53.85" width="2.57" height="2.06" transform="translate(-22.54 55.36) rotate(-45.02)" style="fill:#fff"/><rect x="50.25" y="57.88" width="2.57" height="2.06" transform="translate(-26.56 53.67) rotate(-44.98)" style="fill:#fff"/><path d="M23,22.22H56.89a1,1,0,0,1,1,1h0a1.62,1.62,0,0,1-1.62,1.62H23a1.29,1.29,0,0,1-1.29-1.29h0A1.29,1.29,0,0,1,23,22.22Z" style="fill:#fff"/><path d="M23,30.83H56.56a1.29,1.29,0,0,1,1.29,1.29h0a1.29,1.29,0,0,1-1.29,1.28H23a1.29,1.29,0,0,1-1.29-1.28h0A1.29,1.29,0,0,1,23,30.83Z" style="fill:#fff"/><path d="M23,39.34h10.8a1.29,1.29,0,0,1,1.29,1.28h0a1.29,1.29,0,0,1-1.29,1.28H23a1.29,1.29,0,0,1-1.29-1.28h0A1.29,1.29,0,0,1,23,39.34Z" style="fill:#fff"/></svg>