<svg id="Layer_1" data-name="Layer 1" xmlns="http://www.w3.org/2000/svg" width="100" height="100" viewBox="0 0 100 100"><title>Benifits</title><path d="M86.56,37.89a5.12,5.12,0,0,0-3.64,1.51l-7.35,7.35V29.69a12.69,12.69,0,0,1,1.34,5.51H79.6c0-4.78,4.82-12.11,10.76-12.11V20.4c-6.54,0-10.76-4.23-10.76-10.76H76.91a10.87,10.87,0,0,1-1.34,5.28V12.33a4,4,0,0,0-4-4H12.33a4,4,0,0,0-4,4V87.67a4,4,0,0,0,4,4h59.2a4,4,0,0,0,4-4V61.32L90.2,46.68A5.11,5.11,0,0,0,91.71,43a5.16,5.16,0,0,0-5.15-5.15ZM78.15,15.8A11.93,11.93,0,0,0,84.67,22a16.89,16.89,0,0,0-6.29,7.23,15.12,15.12,0,0,0-6.57-7.39,13.2,13.2,0,0,0,6.34-6.09ZM72.87,87.67h0A1.35,1.35,0,0,1,71.53,89H12.33A1.35,1.35,0,0,1,11,87.67V12.33A1.34,1.34,0,0,1,12.33,11h59.2a1.35,1.35,0,0,1,1.35,1.35v5.76a10.78,10.78,0,0,1-6.73,2.31v2.69A9.71,9.71,0,0,1,72.87,26V49.44L54,68.28V61.82A1.06,1.06,0,0,0,53,60.76h-7.3a1.06,1.06,0,0,0-1.06,1.06v7.3a1.06,1.06,0,0,0,1.06,1.06h6.45l-.39.39-.18.18L46.09,83.51,58.84,78l14-14ZM55.71,76.45l-4.5,1.93,1.93-4.5ZM51.34,64.51v3h-3a1.06,1.06,0,0,1-1.06-1.06V64.51a1.06,1.06,0,0,1,1.06-1.06h1.92A1.06,1.06,0,0,1,51.34,64.51ZM58.07,75l-3.48-3.48L78.25,47.87l3.48,3.48ZM88.29,44.78l-4.66,4.66L80.16,46l4.66-4.66A2.46,2.46,0,0,1,89,43a2.47,2.47,0,0,1-.72,1.74Zm0,0" style="fill:#213e7a"/><path d="M25.78,33.85a8.07,8.07,0,1,0-8.07-8.07,8.08,8.08,0,0,0,8.07,8.07Zm0-13.45a5.38,5.38,0,1,1-5.38,5.38,5.39,5.39,0,0,1,5.38-5.38Zm0,0" style="fill:#213e7a"/><rect x="19.06" y="36.55" width="10.76" height="2.69" rx="1.35" ry="1.35" style="fill:#213e7a"/><path d="M28.77,47.31H21.45a1,1,0,0,0-1,1v7.32a1,1,0,0,0,1,1h7.32a1,1,0,0,0,1-1V48.36A1,1,0,0,0,28.77,47.31ZM26.08,54H24.14a1,1,0,0,1-1-1V51a1,1,0,0,1,1-1h1.94a1,1,0,0,1,1,1V53A1,1,0,0,1,26.08,54Zm1,0" style="fill:#213e7a"/><path d="M21.45,70.18h7.32a1,1,0,0,0,1-1V61.81a1,1,0,0,0-1-1H21.45a1,1,0,0,0-1,1v7.32A1,1,0,0,0,21.45,70.18Zm2.69-6.73h1.94a1,1,0,0,1,1,1v1.94a1,1,0,0,1-1,1H24.14a1,1,0,0,1-1-1V64.5A1,1,0,0,1,24.14,63.45Zm-1,0" style="fill:#213e7a"/><path d="M53,47.31h-7.3a1.06,1.06,0,0,0-1.06,1.06v7.3a1.06,1.06,0,0,0,1.06,1.06H53A1.06,1.06,0,0,0,54,55.67v-7.3A1.06,1.06,0,0,0,53,47.31ZM50.28,54H48.37A1.06,1.06,0,0,1,47.31,53V51.06A1.06,1.06,0,0,1,48.37,50h1.92a1.06,1.06,0,0,1,1.06,1.06V53A1.06,1.06,0,0,1,50.28,54Zm1.06,0" style="fill:#213e7a"/><rect x="43.27" y="21.75" width="18.84" height="2.69" rx="1.35" ry="1.35" style="fill:#213e7a"/><rect x="43.27" y="29.82" width="24.22" height="2.69" rx="1.35" ry="1.35" style="fill:#213e7a"/><rect x="43.27" y="37.89" width="24.22" height="2.69" rx="1.35" ry="1.35" style="fill:#213e7a"/><rect x="32.51" y="48.65" width="6.73" height="2.69" rx="1.35" ry="1.35" style="fill:#213e7a"/><rect x="32.51" y="54.04" width="6.73" height="2.69" rx="1.35" ry="1.35" style="fill:#213e7a"/><rect x="56.73" y="48.65" width="6.73" height="2.69" rx="1.35" ry="1.35" style="fill:#213e7a"/><rect x="56.73" y="54.04" width="6.73" height="2.69" rx="1.35" ry="1.35" style="fill:#213e7a"/><rect x="32.51" y="64.8" width="6.73" height="2.69" rx="1.35" ry="1.35" style="fill:#213e7a"/><rect x="20.4" y="75.56" width="24.22" height="2.69" rx="1.35" ry="1.35" style="fill:#213e7a"/><rect x="20.4" y="80.94" width="24.22" height="2.69" rx="1.35" ry="1.35" style="fill:#213e7a"/><rect x="32.51" y="36.55" width="2.69" height="2.69" rx="1.35" ry="1.35" style="fill:#213e7a"/></svg>