<svg id="Layer_1" data-name="Layer 1" xmlns="http://www.w3.org/2000/svg" width="100" height="100" viewBox="0 0 100 100"><title>industries</title><path d="M41.86,46.89a1.23,1.23,0,0,1-1-.41l-5.43-5.43a1.34,1.34,0,0,1,1.9-1.9l4.48,4.48,4.48-4.48a1.34,1.34,0,1,1,1.9,1.9l-5.43,5.43A1.47,1.47,0,0,1,41.86,46.89Z" style="fill:#223f7a"/><path d="M41.86,46.89a1.28,1.28,0,0,1-1.36-1.36v-19a1.36,1.36,0,0,1,2.71,0v19A1.28,1.28,0,0,1,41.86,46.89Z" style="fill:#223f7a"/><path d="M40.5,69H16.88c-3.66,0-7.6-2.58-7.6-6.79V16.75a7.84,7.84,0,0,1,7.6-7.46H67.13a7.72,7.72,0,0,1,7.46,7.46V41.37a1.36,1.36,0,0,1-2.71,0V16.75A5,5,0,0,0,67.13,12H16.88A5.13,5.13,0,0,0,12,16.75V62.22c0,2.44,2.58,4.07,4.89,4.07H40.5a1.36,1.36,0,0,1,0,2.71Z" style="fill:#223f7a"/><path d="M69,90.72a1.47,1.47,0,0,1-1-.41l-17.78-17a17.33,17.33,0,0,1-5.16-12.49,17.9,17.9,0,0,1,5.16-12.49,17.33,17.33,0,0,1,12.49-5.16,18.15,18.15,0,0,1,12.49,5.16L90.31,64a1.34,1.34,0,1,1-1.9,1.9L73.34,50.27A15,15,0,0,0,52.17,71.44l17.64,17a1.31,1.31,0,0,1,0,1.9A.82.82,0,0,1,69,90.72Z" style="fill:#223f7a"/><path id="SVGCleanerId_0" data-name="SVGCleanerId 0" d="M63,76.47a5,5,0,0,1-3.26-1.36l-5.7-5.7A12.19,12.19,0,1,1,71.31,52.17l5.7,5.7a4.81,4.81,0,0,1,1.36,3.53A16.31,16.31,0,0,1,63.3,76.47Zm-6.92-8.82,5.7,5.7a2,2,0,0,0,1.49.54A13.43,13.43,0,0,0,75.79,61.4a2,2,0,0,0-.54-1.49l-5.7-5.84A9.55,9.55,0,0,0,56.11,67.64Z" style="fill:#223f7a"/><path id="SVGCleanerId_0-2" data-name="SVGCleanerId 0" d="M63,76.47a5,5,0,0,1-3.26-1.36l-5.7-5.7A12.19,12.19,0,1,1,71.31,52.17l5.7,5.7a4.81,4.81,0,0,1,1.36,3.53A16.31,16.31,0,0,1,63.3,76.47Zm-6.92-8.82,5.7,5.7a2,2,0,0,0,1.49.54A13.43,13.43,0,0,0,75.79,61.4a2,2,0,0,0-.54-1.49l-5.7-5.84A9.55,9.55,0,0,0,56.11,67.64Z" style="fill:#223f7a"/><path d="M63,75.92l-2.31-1.36a15.32,15.32,0,0,0,1.49-3,26.83,26.83,0,0,1,4.34-6.92,23.72,23.72,0,0,1,6.51-4.07,30.54,30.54,0,0,0,3-1.49l1.36,2.31A18.24,18.24,0,0,1,74.16,63a19.08,19.08,0,0,0-5.7,3.53,22.25,22.25,0,0,0-3.94,6.24A22.08,22.08,0,0,1,63,75.92Z" style="fill:#223f7a"/></svg>