<svg id="Layer_1" data-name="Layer 1" xmlns="http://www.w3.org/2000/svg" width="100" height="100" viewBox="0 0 100 100"><title>industries</title><path d="M94.27,26.11,94.12,26,74.91,6.74a4.39,4.39,0,0,0-6.35,0L66.43,8.86a1.46,1.46,0,0,0,0,2.12L67.49,12l-2,2-1.06-1.06a1.5,1.5,0,0,0-2.12,2.12l1.06,1.06-2.27,2.27L59,16.27A1.37,1.37,0,0,0,58,15.82a1.08,1.08,0,0,0-.91.45L31.33,42a1.46,1.46,0,0,0,0,2.12l1.51,1.51a5.3,5.3,0,0,0,7.56,0l3.18-3.18a15.25,15.25,0,0,1,3.51.72L23.17,67a10.18,10.18,0,0,0-6.35-.15l-3.18-3a1.46,1.46,0,0,0-2.12,0L5.16,70.13a1.37,1.37,0,0,0-.45,1.06,1.28,1.28,0,0,0,.3.91l3.18,3.18a13.72,13.72,0,0,0,17.4,17.25l3.18,3a1.46,1.46,0,0,0,2.12,0l6.35-6.2a1.46,1.46,0,0,0,0-2.12L34.06,84a9.2,9.2,0,0,0-.15-6.35l23.84-24a16.18,16.18,0,0,1,.82,3.71L55.39,60.6a5.3,5.3,0,0,0,0,7.56l1.51,1.51a1.37,1.37,0,0,0,1.06.45c.45,0,.91-.15.91-.45L84.59,44a1.46,1.46,0,0,0,0-2.12l-2.12-2.12,2.2-2.2,1.13,1.14a1.46,1.46,0,0,0,2.12,0,1.46,1.46,0,0,0,0-2.12l-1.13-1.14,2-2,1.06,1.06a1.46,1.46,0,0,0,2.12,0l2.12-2.12.15-.15A5,5,0,0,0,94.27,26.11ZM31.18,76.33a1.38,1.38,0,0,0-.3,1.66c1.06,2.87.76,4.54.15,5.9a1.38,1.38,0,0,0,.3,1.66l2.72,2.72-4.24,4.08L26.95,89.8a1.63,1.63,0,0,0-1.06-.45.56.56,0,0,0-.45.15A10.62,10.62,0,0,1,11.52,75.58a1.38,1.38,0,0,0-.3-1.66L8.49,71.19,12.73,67l2.72,2.72a1.38,1.38,0,0,0,1.66.3c1.36-.61,3-1.06,5.9.15a1.38,1.38,0,0,0,1.66-.3L50.15,44.51A17.11,17.11,0,0,1,56.53,51ZM58,66.5,57.51,66a2.37,2.37,0,0,1,0-3.33l3.63-3.63a1.72,1.72,0,0,0,.45-1.21,19.28,19.28,0,0,0-1.88-7.14,1.44,1.44,0,0,0-.09-.27,20.7,20.7,0,0,0-3.91-5.38c-.21-.21-.43-.4-.65-.6s-.37-.36-.57-.52-.65-.52-1-.77l-.35-.27c-.33-.23-.66-.45-1-.67L51.74,42c-.32-.19-.64-.36-1-.54l-.37-.21-.08,0A18.51,18.51,0,0,0,43,39.27a1.63,1.63,0,0,0-1.06.45l-3.63,3.63a2.37,2.37,0,0,1-3.33,0l-.45-.45L58,19.45l2.12,2.12L79.44,40.78l2.12,2.12ZM80.43,37.68,63.26,20.51l2.26-2.26L82.63,35.47ZM67.63,16.13,69.76,14,86.93,31.17l-2.18,2.18ZM92.15,30.19l-.91.91L90.19,30a1.56,1.56,0,0,0-.47-.32L70.82,10.83,69.76,9.77l1.06-1.06a1.46,1.46,0,0,1,2.12,0L92.15,27.92A2.06,2.06,0,0,1,92.15,30.19Z" style="fill:#223f7a"/><path d="M48.43,50.46,34.06,64.83a1.46,1.46,0,0,0,0,2.12,1.37,1.37,0,0,0,1.06.45A1.63,1.63,0,0,0,36.18,67L50.55,52.58a1.5,1.5,0,0,0-2.12-2.12Z" style="fill:#223f7a"/><path d="M15.9,74.52a7.1,7.1,0,0,0-2.27,5.3,7.7,7.7,0,0,0,2.27,5.3,7.1,7.1,0,0,0,5.3,2.27,8.37,8.37,0,0,0,5.45-2.27,7.1,7.1,0,0,0,2.27-5.3,7.64,7.64,0,0,0-13-5.3ZM24.38,83A4.67,4.67,0,0,1,18,83a4.12,4.12,0,0,1-1.36-3.18,4.65,4.65,0,0,1,4.54-4.54,3.85,3.85,0,0,1,3.18,1.36,4.12,4.12,0,0,1,1.36,3.18A4.35,4.35,0,0,1,24.38,83Z" style="fill:#223f7a"/><path d="M62.2,32.46a6.05,6.05,0,1,0,6.05,6.05A6.07,6.07,0,0,0,62.2,32.46Zm0,9.08a3,3,0,1,1,3-3A3,3,0,0,1,62.2,41.54Z" style="fill:#223f7a"/></svg>