<svg id="Layer_1" data-name="Layer 1" xmlns="http://www.w3.org/2000/svg" width="250" height="250" viewBox="0 0 250 250"><title>Industry</title><path d="M203.18,30.75H46.82A16.07,16.07,0,0,0,30.75,46.82V159.4a16,16,0,0,0,2.75,9,16.16,16.16,0,0,0,2,2.38q.55.55,1.14,1a16,16,0,0,0,10.22,3.67h58.27l-.26,1.43-4.13,22.71H96.85A9.82,9.82,0,0,0,87,209.43v6.25a3.57,3.57,0,0,0,3.57,3.57h68.8a3.57,3.57,0,0,0,3.57-3.57v-6.25a9.82,9.82,0,0,0-9.82-9.82H149.3l-4.13-22.71-.26-1.43h58.27a16,16,0,0,0,10.22-3.67q.6-.49,1.14-1a16,16,0,0,0,4.71-11.36V46.82A16.07,16.07,0,0,0,203.18,30.75ZM46.82,37.88H203.18a8.93,8.93,0,0,1,8.9,8.51H37.92A8.93,8.93,0,0,1,46.82,37.88ZM37.88,53.51H212.12v99.19H37.88Zm165.3,114.83H46.82a8.91,8.91,0,0,1-6.32-2.62,8.78,8.78,0,0,1-1.82-2.65,9.07,9.07,0,0,1-.76-3.23H212.08a9.07,9.07,0,0,1-.76,3.23,8.78,8.78,0,0,1-1.82,2.65A8.91,8.91,0,0,1,203.18,168.34Zm-90.84,7.13h25.32L142,199.61H108Zm40.81,31.27a2.7,2.7,0,0,1,2.69,2.69v2.69H94.17v-2.69a2.7,2.7,0,0,1,2.69-2.69Z" style="fill:#203f7a"/><path d="M107.86,131.23a3.06,3.06,0,0,0,3.17-3.17V112.83a3.17,3.17,0,1,0-6.34,0v15.24a3.06,3.06,0,0,0,3.17,3.17Z" style="fill:#203f7a"/><path d="M119.29,131.23a3.06,3.06,0,0,0,3.17-3.17V112.83a3.17,3.17,0,1,0-6.34,0v15.24a3.06,3.06,0,0,0,3.17,3.17Z" style="fill:#203f7a"/><path d="M166.14,104.47a7,7,0,0,0,2-5V91.89a6.88,6.88,0,0,0-7-7h-5.35l-4.3-14.15h0a6.79,6.79,0,0,0-6.54-4.9h-3.5v-.64a3.06,3.06,0,0,0-3.17-3.17H111.67a3.06,3.06,0,0,0-3.17,3.17v.64h-1.78a6.66,6.66,0,0,0-6.5,4.41h0l-6,14.64H88.82a6.88,6.88,0,0,0-7,7V99.5a7,7,0,0,0,2,5,6.89,6.89,0,0,0,4,1.92L91,134.5h0a7,7,0,0,0,7,6.25h36.87A18.39,18.39,0,0,0,168.16,130a18.54,18.54,0,0,0-7-14.44l1-9.14A6.89,6.89,0,0,0,166.14,104.47ZM114.84,69.68V68.4h20.32v1.28ZM106,72.63a.78.78,0,0,1,.25-.32.94.94,0,0,1,.5-.1h1.78v.64A3.06,3.06,0,0,0,111.67,76h26.66a3.06,3.06,0,0,0,3.17-3.17v-.64H145c.11,0,.55.21.74.6l3.66,12.1H101.15Zm47.79,18.62h7.62a.55.55,0,0,1,.64.64V99.5a.55.55,0,0,1-.64.64H88.82a.55.55,0,0,1-.64-.64V91.89a.55.55,0,0,1,.64-.64h64.93Zm-4,50.79A12.06,12.06,0,1,1,161.82,130,12,12,0,0,1,149.76,142Zm-52.45-8.3-3-27.25h61.5l-.63,6a18.25,18.25,0,0,0-5.39-.87,19.22,19.22,0,0,0-6.11,1l-.08,0-4,2-.07,0a18.39,18.39,0,0,0-7.62,19.78H98l-.37-.16Z" style="fill:#203f7a"/><path d="M157.35,129.68l-.09-.15-.14-.11a3.28,3.28,0,0,0-2-.76,2.74,2.74,0,0,0-1.42.4l0,0,0,0L152,130.24v-6.05a2.44,2.44,0,1,0-4.89,0v5.91l-1.66-1.52,0,0,0,0a2.64,2.64,0,0,0-1.36-.39,2.35,2.35,0,0,0-2,1.16,2.64,2.64,0,0,0-.39,1.36,2.35,2.35,0,0,0,1.12,2h0l5.6,4.12.05,0a2.38,2.38,0,0,0,2.63,0l.05,0,5.52-3.75h0a2.35,2.35,0,0,0,1.13-2A2.64,2.64,0,0,0,157.35,129.68Z" style="fill:#203f7a"/></svg>