<svg id="Layer_1" data-name="Layer 1" xmlns="http://www.w3.org/2000/svg" width="250" height="250" viewBox="0 0 250 250"><title>Industry</title><path d="M191.3,23.3H58.7L23.3,80V226.7H226.7V80Zm25.9,54.25H128.39V30.09h59.14ZM62.46,30.09h59.14V77.54H32.8ZM30.09,219.91V84.31H219.91v135.6Zm0,0" style="fill:#223f7a"/><path d="M145.34,101.26H104.66a10.17,10.17,0,0,0,0,20.34h40.69a10.17,10.17,0,0,0,0-20.34Zm0,13.58H104.66a3.39,3.39,0,1,1,0-6.79h40.69a3.39,3.39,0,0,1,0,6.79Zm0,0" style="fill:#223f7a"/><path d="M152.11,199.59H97.89a3.38,3.38,0,1,0,0,6.77h54.22a3.38,3.38,0,1,0,0-6.77Zm0,0" style="fill:#223f7a"/><path d="M108,192.8a3.4,3.4,0,0,0,3.39-3.39V167.08l4.39,4.39a3.38,3.38,0,0,0,4.78-4.78L110.45,156.5a3.27,3.27,0,0,0-1.11-.73,3.34,3.34,0,0,0-2.59,0,3.27,3.27,0,0,0-1.11.73L95.48,166.68a3.38,3.38,0,1,0,4.78,4.78l4.39-4.39v22.33A3.4,3.4,0,0,0,108,192.8Zm0,0" style="fill:#223f7a"/><path d="M144.35,156.5a3.27,3.27,0,0,0-1.11-.73,3.34,3.34,0,0,0-2.58,0,3.27,3.27,0,0,0-1.11.73l-10.17,10.18a3.38,3.38,0,1,0,4.78,4.78l4.39-4.39v22.33a3.39,3.39,0,0,0,6.79,0V167.08l4.39,4.39a3.38,3.38,0,0,0,4.78-4.78Zm0,0" style="fill:#223f7a"/></svg>