<svg id="Layer_1" data-name="Layer 1" xmlns="http://www.w3.org/2000/svg" width="250" height="250" viewBox="0 0 250 250"><title>Industry</title><path d="M227.78,67.93l-.35-.35L182.82,23a10.18,10.18,0,0,0-14.75,0l-4.92,4.92a3.4,3.4,0,0,0,0,4.92l2.46,2.46L161,39.84l-2.45-2.47a3.48,3.48,0,1,0-4.92,4.92l2.45,2.47L150.86,50l-4.92-4.92A3.19,3.19,0,0,0,143.48,44a2.5,2.5,0,0,0-2.11,1.05L81.67,104.8a3.4,3.4,0,0,0,0,4.92l3.51,3.51a12.3,12.3,0,0,0,17.56,0l7.38-7.38a35.41,35.41,0,0,1,8.15,1.66L62.7,162.76a23.64,23.64,0,0,0-14.75-.35l-7.38-7a3.4,3.4,0,0,0-4.92,0L20.9,170.13a3.19,3.19,0,0,0-1.05,2.46,3,3,0,0,0,.7,2.11l7.38,7.38a31.85,31.85,0,0,0,40.39,40l7.38,7a3.4,3.4,0,0,0,4.92,0l14.75-14.4a3.4,3.4,0,0,0,0-4.92L88,202.45c1.76-4.92,1.4-9.48-.35-14.75L143,132a37.56,37.56,0,0,1,1.91,8.61L137.51,148a12.3,12.3,0,0,0,0,17.56l3.51,3.51a3.19,3.19,0,0,0,2.46,1.05c1.05,0,2.11-.35,2.11-1.05l59.71-59.71a3.4,3.4,0,0,0,0-4.92l-4.92-4.92,5.1-5.1,2.63,2.64a3.4,3.4,0,0,0,4.92,0,3.4,3.4,0,0,0,0-4.92l-2.63-2.64,4.73-4.73,2.46,2.46a3.4,3.4,0,0,0,4.92,0l4.92-4.92.35-.35A11.59,11.59,0,0,0,227.78,67.93ZM81.32,184.53a3.21,3.21,0,0,0-.7,3.86c2.46,6.67,1.76,10.54.35,13.7a3.21,3.21,0,0,0,.7,3.86L88,212.28l-9.83,9.48-6.67-6A3.79,3.79,0,0,0,69,214.74a1.29,1.29,0,0,0-1.05.35,24.65,24.65,0,0,1-32.31-32.31,3.21,3.21,0,0,0-.7-3.86l-6.32-6.32,9.83-9.83,6.32,6.32a3.21,3.21,0,0,0,3.86.7c3.16-1.4,7-2.46,13.7.35a3.21,3.21,0,0,0,3.86-.7l59.14-58.79a39.73,39.73,0,0,1,14.81,15Zm62.17-22.83-1.05-1.05a5.51,5.51,0,0,1,0-7.73l8.43-8.43a4,4,0,0,0,1.05-2.81,44.76,44.76,0,0,0-4.37-16.59,3.34,3.34,0,0,0-.2-.62A48.07,48.07,0,0,0,138.27,112c-.48-.48-1-.93-1.51-1.39s-.87-.83-1.32-1.22c-.74-.63-1.51-1.21-2.28-1.8-.27-.2-.53-.42-.8-.62-.76-.55-1.54-1-2.32-1.55-.33-.21-.66-.43-1-.64-.74-.44-1.49-.85-2.25-1.25-.29-.15-.57-.33-.87-.48a2,2,0,0,0-.2-.07,43,43,0,0,0-17-4.49,3.79,3.79,0,0,0-2.46,1.05L97.82,108a5.51,5.51,0,0,1-7.73,0L89,106.91l54.44-54.44,4.92,4.92,45,44.61,4.92,4.92Zm52.16-66.91L155.78,54.93,161,49.69l39.74,40Zm-29.7-50,4.94-4.94,39.86,39.86-5.07,5.07Zm56.92,32.64-2.11,2.11-2.46-2.46a3.63,3.63,0,0,0-1.09-.74L173.34,32.45,170.88,30l2.46-2.46a3.4,3.4,0,0,1,4.92,0l44.61,44.61A4.79,4.79,0,0,1,222.86,77.41Z" style="fill:#223f7a"/><path d="M121.36,124.47,88,157.84a3.4,3.4,0,0,0,0,4.92,3.19,3.19,0,0,0,2.46,1.05,3.79,3.79,0,0,0,2.46-1.05l33.37-33.37a3.48,3.48,0,0,0-4.92-4.92Z" style="fill:#223f7a"/><path d="M45.84,180.32a16.48,16.48,0,0,0-5.27,12.29,17.89,17.89,0,0,0,5.27,12.29,16.48,16.48,0,0,0,12.29,5.27,19.44,19.44,0,0,0,12.64-5.27A16.48,16.48,0,0,0,76,192.61a17.89,17.89,0,0,0-5.27-12.29C63.75,173.65,52.52,173.65,45.84,180.32ZM65.51,200a10.84,10.84,0,0,1-14.75,0,9.57,9.57,0,0,1-3.16-7.38,10.8,10.8,0,0,1,10.54-10.54,8.93,8.93,0,0,1,7.38,3.16,9.57,9.57,0,0,1,3.16,7.38A10.11,10.11,0,0,1,65.51,200Z" style="fill:#223f7a"/><path d="M153.32,82.68a14,14,0,1,0,14,14A14.09,14.09,0,0,0,153.32,82.68Zm0,21.07a7,7,0,1,1,7-7A7,7,0,0,1,153.32,103.75Z" style="fill:#223f7a"/></svg>