<svg id="Layer_1" data-name="Layer 1" xmlns="http://www.w3.org/2000/svg" width="100" height="100" viewBox="0 0 100 100"><title>industries</title><path d="M80.73,33.62V21.9h0V10a1.19,1.19,0,0,0-1.19-1.19H72.4A1.19,1.19,0,0,0,71.21,10V21.9h0V33.62a10.67,10.67,0,0,0-5.95,9.6V88.53a1.19,1.19,0,0,0,1.19,1.19h19a1.19,1.19,0,0,0,1.19-1.19V43.22A10.67,10.67,0,0,0,80.73,33.62ZM73.59,11.19h4.76v9.52H73.59Zm-6,41.65h11.9V74.26H67.64ZM84.3,87.34H67.64V76.64H80.73a1.19,1.19,0,0,0,1.19-1.19V51.65a1.19,1.19,0,0,0-1.19-1.19H67.64V43.22a8.3,8.3,0,0,1,5.21-7.72,1.19,1.19,0,0,0,.74-1.1V23.09h4.76v11.3a1.19,1.19,0,0,0,.74,1.1,8.3,8.3,0,0,1,5.21,7.73Z" style="fill:#223f7a"/><path d="M32.3,67.18h.25A1.17,1.17,0,0,0,33.72,66V62.83a1.06,1.06,0,0,0,1.33,0V66a1.17,1.17,0,0,0,1.17,1.17h3.35a6.06,6.06,0,0,0,6.06-6.06V57.77a1.17,1.17,0,0,0-1.17-1.17H41.1a6,6,0,0,0-1.83.29,6.1,6.1,0,0,0,.07-.84,6,6,0,0,0-1.77-4.27L35.2,49.42a1.17,1.17,0,0,0-1.65,0l-2.37,2.37a6,6,0,0,0-1.77,4.27,6.13,6.13,0,0,0,.06.84,6,6,0,0,0-1.82-.29H24.31a1.16,1.16,0,0,0-1.17,1.16v3.35a6.06,6.06,0,0,0,6.06,6.05Zm-.92-2.33H29.2a3.73,3.73,0,0,1-3.73-3.72V58.94h2.19a3.73,3.73,0,0,1,3.73,3.73Zm1.45-11.42,1.54-1.54,1.54,1.54a3.74,3.74,0,0,1,0,5.27l-1.54,1.54L32.83,58.7a3.73,3.73,0,0,1,0-5.27Zm6.73,11.42H37.38V62.67a3.73,3.73,0,0,1,3.72-3.73h2.18v2.19a3.73,3.73,0,0,1-3.72,3.72Z" style="fill:#223f7a"/><path d="M37.13,73.8a3,3,0,0,0-3,3V77h2.33V76.8a.67.67,0,1,1,1.33,0V77h2.33V76.8A3,3,0,0,0,37.13,73.8Z" style="fill:#223f7a"/><path d="M44.45,74.71a3,3,0,0,0-3,3V78h2.33v-.25a.67.67,0,0,1,1.33,0V78h2.33v-.25A3,3,0,0,0,44.45,74.71Z" style="fill:#223f7a"/><polygon points="30.56 87.31 30.56 87.31 30.56 87.3 30.56 87.31" style="fill:#223f7a"/><polygon points="30.06 86.67 30.06 86.67 30.06 86.67 30.06 86.67" style="fill:#223f7a"/><path d="M60.24,73.93a10.68,10.68,0,0,0-4-1.8,36,36,0,0,0-4.59-.86l3.09-11.59,0-.25v0a2.09,2.09,0,0,0-2.08-2.08H50.87a2,2,0,0,0-.67.13V44.75A1.17,1.17,0,0,0,49,43.58H14.24a1.17,1.17,0,0,0-1.17,1.17V86.87a1.17,1.17,0,0,0,.7,1.07h0l6.39,2.75h0a1.17,1.17,0,0,0,.42.09h14A17.42,17.42,0,0,0,61.28,76v-.1A2.57,2.57,0,0,0,60.24,73.93ZM43.83,91.11a15,15,0,0,1-8.33-2.52h0l-.34-.23c-.26-.18-.51-.37-.76-.57h0l-.27-.21q-.48-.4-.92-.84L33,86.57h0q-.44-.45-.84-.93h0l0-.06c-.29-.35-.56-.71-.81-1.08l-.09-.14h0A14.71,14.71,0,0,1,30,82h0l-.09-.2c-.17-.41-.32-.82-.46-1.24l0-.16h0c-.12-.38-.22-.78-.3-1.17h0L29,78.95s0-.11,0-.16a25.56,25.56,0,0,0,6.91,1.7,62.7,62.7,0,0,0,15.89,0,25.7,25.7,0,0,0,6.88-1.69A15.12,15.12,0,0,1,43.83,91.11Zm7.25-31.43v0h1.25L49,72h0l-.54,2.07a1.17,1.17,0,0,0,.84,1.42h0l.25,0h0a1.17,1.17,0,0,0,1.13-.87l.29-1.12a26.48,26.48,0,0,1,6.23,1.38,6.37,6.37,0,0,1,1.34.68,1.49,1.49,0,0,1,.27.24l0,.06,0,0a3,3,0,0,1-1.2.76c-2.11.91-6.79,2-13.9,2A48.58,48.58,0,0,1,32.4,77.5a14.41,14.41,0,0,1-2.85-1,3.25,3.25,0,0,1-.68-.43l-.14-.15,0,0h0l0,0a3,3,0,0,1,1.2-.76c2.11-.91,6.79-2,13.89-2l1.27,0-.1.37h0a1.17,1.17,0,0,0,.85,1.42h0l.24,0h0a1.17,1.17,0,0,0,1.13-.88l.45-1.78ZM21.82,45.91h26V62.68l-2.17,8.15c-.61,0-1.23,0-1.87,0a58.46,58.46,0,0,0-10.88,1,16.91,16.91,0,0,0-4.59,1.51,4.81,4.81,0,0,0-1.43,1.13,2.3,2.3,0,0,0-.55,1.47V76a17.1,17.1,0,0,0,.1,1.81c0,.2.06.37.08.52.05.41.11.83.2,1.24.05.24.12.46.18.68s.17.68.27,1,.19.53.28.78h0c.11.27.2.56.32.84h0c.13.29.27.56.4.83h0c.12.24.23.48.36.72h0c.16.29.33.55.5.82h0c.13.21.27.43.42.65h0c.18.26.37.51.57.76s.32.42.51.63.39.44.6.66l.48.49H21.82ZM19.46,87.84,15.41,86.1V45.91h4.06Z" style="fill:#223f7a"/></svg>