<svg id="Layer_1" data-name="Layer 1" xmlns="http://www.w3.org/2000/svg" width="250" height="250" viewBox="0 0 250 250"><title>Industry</title><path d="M231.17,115.11A27.22,27.22,0,0,0,204,87.92a33.15,33.15,0,0,0-4.48.34V70.54a38.43,38.43,0,0,0-38.38-38.41H89.6A38.46,38.46,0,0,0,51.19,70.54V88.36a33,33,0,0,0-5.14-.44,27.24,27.24,0,0,0-27.22,27.19,22.51,22.51,0,0,0,19,22.19v56.6a13.59,13.59,0,0,0,13.57,13.56H72.15v6.89a3.51,3.51,0,1,0,7,0v-6.89h91.66v6.89a3.53,3.53,0,0,0,7.06,0v-6.89h21.49a13.59,13.59,0,0,0,13.57-13.56V137.2A22.52,22.52,0,0,0,231.17,115.11Zm-22.46,15.44a11.64,11.64,0,0,1-11.65-11.65,8.64,8.64,0,0,1,8.61-8.61,3.51,3.51,0,1,0,0-7A15.63,15.63,0,0,0,190,118.9a18.7,18.7,0,0,0,15.85,18.47v56.53a6.54,6.54,0,0,1-6.51,6.51h-148a6.54,6.54,0,0,1-6.51-6.51V137.26A18.71,18.71,0,0,0,60,118.9a15.67,15.67,0,0,0-15.67-15.63,3.51,3.51,0,1,0,0,7,8.64,8.64,0,0,1,8.61,8.61A11.65,11.65,0,0,1,41.3,130.55a15.43,15.43,0,0,1-15.41-15.44A20.16,20.16,0,0,1,46.05,95,26.1,26.1,0,0,1,72.15,121v52.13a3.53,3.53,0,0,0,3.52,3.51h98.71a3.53,3.53,0,0,0,3.52-3.51V121A26.1,26.1,0,0,1,204,95a20.17,20.17,0,0,1,20.14,20.13,15.45,15.45,0,0,1-15.41,15.44ZM89.6,39.18h71.52a31.38,31.38,0,0,1,31.35,31.35V90a33.15,33.15,0,0,0-21.64,31v21.42H79.17V121A33.16,33.16,0,0,0,58.25,90.28V70.54A31.37,31.37,0,0,1,89.6,39.18ZM79.17,149.51h91.66v20.1H79.17Z" style="fill:#223f7a"/></svg>