<svg id="Layer_1" data-name="Layer 1" xmlns="http://www.w3.org/2000/svg" width="100" height="100" viewBox="0 0 100 100"><title>industries</title><path d="M74.44,17.26c-5.12,0-9.28,4.53-9.28,10.09v5.5a.09.09,0,0,1-.12.09,14.28,14.28,0,0,0-14.78,4.19l-.51.55,0,0A14.28,14.28,0,0,0,35,33.47a.09.09,0,0,1-.12-.09v-6c0-5.56-4.16-10.09-9.28-10.09H6.12a.09.09,0,0,0-.09.09v1.37c0,4.93,3.69,8.94,8.22,8.94h5.52a1.36,1.36,0,0,0,1.36-1.36v-.21a1.36,1.36,0,0,0-1.36-1.36H14.25A5.64,5.64,0,0,1,8.91,20.3.1.1,0,0,1,9,20.19H25.56c3.63,0,6.59,3.21,6.59,7.16v7.26a.09.09,0,0,1,0,.08,15.17,15.17,0,0,0-3.72,3,16.17,16.17,0,0,0-1.56,2,.09.09,0,0,1-.07,0H23.87a2.82,2.82,0,0,1-2.64-2.07,1.34,1.34,0,0,0-1.29-.95h0a1.35,1.35,0,0,0-1.32,1.67,5.57,5.57,0,0,0,5.25,4.28h1.39a17.51,17.51,0,0,0,3.12,18.25L49.76,84.09l1-1L71.62,60.33a17.49,17.49,0,0,0,3.33-17.72h1.18a5.57,5.57,0,0,0,5.25-4.28,1.35,1.35,0,0,0-1.32-1.67h0a1.34,1.34,0,0,0-1.29.95,2.82,2.82,0,0,1-2.64,2.07H73.59a.09.09,0,0,1-.08,0,16.22,16.22,0,0,0-1.9-2.51,15.17,15.17,0,0,0-3.72-3,.09.09,0,0,1,0-.08V27.35c0-3.95,3-7.16,6.59-7.16H91a.1.1,0,0,1,.09.12,5.64,5.64,0,0,1-5.33,4.43H80.24a1.36,1.36,0,0,0-1.36,1.36v.21a1.36,1.36,0,0,0,1.36,1.36h5.52c4.53,0,8.22-4,8.22-8.94V17.35a.09.09,0,0,0-.09-.09H74.44Zm-4.73,41L49.82,79.88a.09.09,0,0,1-.13,0L30.61,59.14a14.47,14.47,0,0,1-1.91-17.32,12.17,12.17,0,0,1,10.36-6,11.88,11.88,0,0,1,8.77,3.94l1.86,2a.09.09,0,0,0,.14,0l2.07-2.24A12.13,12.13,0,0,1,69.55,39,14.34,14.34,0,0,1,69.71,58.26Z" style="fill:#223f7a"/><path d="M81.63,32.21H76.11a1.36,1.36,0,0,0-1.36,1.36v.21a1.36,1.36,0,0,0,1.36,1.36h5.52a5.57,5.57,0,0,0,5.25-4.28,1.35,1.35,0,0,0-1.32-1.67h0a1.34,1.34,0,0,0-1.29.95A2.82,2.82,0,0,1,81.63,32.21Z" style="fill:#223f7a"/><path d="M25.25,33.56a1.36,1.36,0,0,0-1.36-1.36H18.37a2.82,2.82,0,0,1-2.64-2.07,1.34,1.34,0,0,0-1.29-.95h0a1.35,1.35,0,0,0-1.32,1.67,5.57,5.57,0,0,0,5.25,4.28h5.52a1.36,1.36,0,0,0,1.36-1.36Z" style="fill:#223f7a"/><path d="M67.71,48.61h.11a1.31,1.31,0,0,0,1.28-1.54,8.6,8.6,0,0,0-6.57-7.24A1.31,1.31,0,0,0,61,41.11v.28A1.34,1.34,0,0,0,62,42.72a5.85,5.85,0,0,1,4.39,4.78A1.31,1.31,0,0,0,67.71,48.61Z" style="fill:#223f7a"/><rect x="48.56" y="18.95" width="2.69" height="8.98" rx="1.35" ry="1.35" style="fill:#223f7a"/><path d="M58.29,24.74l.07.08a1.35,1.35,0,0,1,0,1.82l-2.3,2.5a1.35,1.35,0,0,1-2,0L54,29.06a1.35,1.35,0,0,1,0-1.82l2.3-2.5A1.35,1.35,0,0,1,58.29,24.74Z" style="fill:#223f7a"/><path d="M43.69,24.74l2.3,2.5a1.35,1.35,0,0,1,0,1.82l-.07.08a1.35,1.35,0,0,1-2,0l-2.3-2.5a1.35,1.35,0,0,1,0-1.82l.07-.08A1.35,1.35,0,0,1,43.69,24.74Z" style="fill:#223f7a"/></svg>