<svg id="Layer_1" data-name="Layer 1" xmlns="http://www.w3.org/2000/svg" width="100" height="100" viewBox="0 0 100 100"><title>industries</title><path d="M76.51,9.33h-53L9.33,32V90.67H90.67V32ZM86.87,31H51.36V12H75ZM25,12H48.64V31H13.13ZM12,88V33.73H88V88Zm0,0" style="fill:#223f7a"/><path d="M58.14,40.51H41.86a4.07,4.07,0,0,0,0,8.14H58.14a4.07,4.07,0,0,0,0-8.14Zm0,5.43H41.86a1.36,1.36,0,1,1,0-2.71H58.14a1.36,1.36,0,0,1,0,2.71Zm0,0" style="fill:#223f7a"/><path d="M60.84,79.83H39.16a1.35,1.35,0,1,0,0,2.71H60.84a1.35,1.35,0,1,0,0-2.71Zm0,0" style="fill:#223f7a"/><path d="M43.22,77.11a1.36,1.36,0,0,0,1.36-1.36V66.83l1.75,1.75a1.35,1.35,0,0,0,1.91-1.91L44.18,62.6a1.31,1.31,0,0,0-.44-.29,1.33,1.33,0,0,0-1,0,1.31,1.31,0,0,0-.44.29L38.2,66.67a1.35,1.35,0,1,0,1.91,1.91l1.75-1.75v8.93a1.36,1.36,0,0,0,1.36,1.36Zm0,0" style="fill:#223f7a"/><path d="M57.74,62.6a1.31,1.31,0,0,0-.44-.29,1.33,1.33,0,0,0-1,0,1.31,1.31,0,0,0-.44.29l-4.07,4.07a1.35,1.35,0,1,0,1.91,1.91l1.75-1.75v8.93a1.36,1.36,0,0,0,2.71,0V66.83l1.75,1.75a1.35,1.35,0,0,0,1.91-1.91Zm0,0" style="fill:#223f7a"/></svg>