<svg id="Layer_1" data-name="Layer 1" xmlns="http://www.w3.org/2000/svg" width="100" height="100" viewBox="0 0 100 100"><title>industries</title><path d="M77.2,53.09H76a25.72,25.72,0,0,0-7.67-10.65v0h0v0a6.12,6.12,0,0,1-.23-1.68,8,8,0,0,1,1.39-4.29h0A3.08,3.08,0,0,0,70,34.74a3.17,3.17,0,0,0-.5-1.7,3.1,3.1,0,0,0-2.63-1.46h0l-.39,0h0A13.73,13.73,0,0,0,57,36.51a32.86,32.86,0,0,0-5.06-1h-.16a1.38,1.38,0,0,0-1.36,1.2h0v.14h0a1.38,1.38,0,0,0,1.19,1.36h0a31,31,0,0,1,5.5,1.18h0a1.34,1.34,0,0,0,.4.06,1.39,1.39,0,0,0,1.15-.61h0c1.19-1.76,3.52-4,8.08-4.54h.06a.42.42,0,0,1,.34.2h0l.05.19a.43.43,0,0,1-.07.23l0,.06h0a10.86,10.86,0,0,0-1.76,5.71,8.79,8.79,0,0,0,.32,2.36h0l0,.2,0,.21h0a1.39,1.39,0,0,0,.42.74h0a23,23,0,0,1,7.54,10.65h0a1.34,1.34,0,0,0,.79.83h0a1.37,1.37,0,0,0,.5.1h2.16a1.6,1.6,0,0,1,1.59,1.59V64.7a1.6,1.6,0,0,1-1.59,1.59h-2a1.38,1.38,0,0,0-.81.27v-.9l-.49,1.59a25.25,25.25,0,0,1-3.6,6.26c-1.48,2-2.89,3.7-3.18,4l-.36.31h0l0,0A10.91,10.91,0,0,0,63,85.57h0V88a.22.22,0,0,1-.23.23H53a.22.22,0,0,1-.23-.23V85.71a1.38,1.38,0,0,0-.45-1h0a1.41,1.41,0,0,0-.9-.34h-.14a30.81,30.81,0,0,1-3.24.17,32.74,32.74,0,0,1-4.09-.26l-.36-.36v.37a1.45,1.45,0,0,0-.75.28h0l0,0h0a1.37,1.37,0,0,0-.47,1V88a.22.22,0,0,1-.23.23H32.29a.23.23,0,0,1-.22-.2v-.81h0a15.16,15.16,0,0,0-4-9.65,24.37,24.37,0,0,1-4.46-6.75h0v-.05h0a20.69,20.69,0,0,1-1.72-4.58v0l0-.11h0v0l0,0a16.51,16.51,0,0,1-.55-4.33v0h0c0-.2,0-.3,0-.32v0a21.19,21.19,0,0,1,.28-3.38v0h0v-.16h0a1.38,1.38,0,0,0-.26-.79l1.1.09L20.4,56.3h0l0,.23h0l0-.24h-.19a1.37,1.37,0,0,0-1.36,1.14,23.91,23.91,0,0,0-.32,3.81s0,.14,0,.3a19.43,19.43,0,0,0,.66,5.17h0l0,.08a24.36,24.36,0,0,0,1.76,4.81h0l.18.36h0a27.16,27.16,0,0,0,5,7.49,12.41,12.41,0,0,1,3.29,7.85v.87h0v.06h0a3,3,0,0,0,3,2.73h9.76a3,3,0,0,0,3-3v-.9c1,.09,2,.14,3,.14.66,0,1.32,0,2-.07V88a3,3,0,0,0,3,3h9.76a3,3,0,0,0,3-3V85.62a8.33,8.33,0,0,1,2.84-5.7l.41-.36,0,0h0l.09-.08h0c.24-.28,5.21-6,7-10.39H77.2a4.34,4.34,0,0,0,4.33-4.33V57.42A4.34,4.34,0,0,0,77.2,53.09Z" style="fill:#223f7a"/><polygon points="66.43 31.61 66.43 31.61 66.43 31.61 66.43 31.61" style="fill:#223f7a"/><path d="M32,54.37v0A13.42,13.42,0,1,0,18.61,41,13.43,13.43,0,0,0,32,54.37Zm0-24.1a10.69,10.69,0,1,1-7.55,3.13A10.64,10.64,0,0,1,32,30.27Z" style="fill:#223f7a"/><path d="M47.7,27.56a9.26,9.26,0,1,0-9.26-9.26A9.27,9.27,0,0,0,47.7,27.56Zm0-2.74a6.53,6.53,0,1,1,4.61-1.91A6.51,6.51,0,0,1,47.7,24.82Z" style="fill:#223f7a"/></svg>