<svg id="Layer_1" data-name="Layer 1" xmlns="http://www.w3.org/2000/svg" width="100" height="100" viewBox="0 0 100 100"><title>industries</title><path d="M92,49A10.76,10.76,0,0,0,81.21,38.23a13.1,13.1,0,0,0-1.77.13v-7A15.18,15.18,0,0,0,64.27,16.19H36A15.2,15.2,0,0,0,20.83,31.36v7a13,13,0,0,0-2-.17A10.76,10.76,0,0,0,8,49a8.89,8.89,0,0,0,7.49,8.77V80.11a5.37,5.37,0,0,0,5.36,5.36h8.22v2.72a1.39,1.39,0,1,0,2.78,0V85.47H68.11v2.72a1.39,1.39,0,0,0,2.79,0V85.47h8.49a5.37,5.37,0,0,0,5.36-5.36V57.7A8.9,8.9,0,0,0,92,49Zm-8.87,6.1a4.6,4.6,0,0,1-4.6-4.6,3.41,3.41,0,0,1,3.4-3.4,1.39,1.39,0,1,0,0-2.78,6.18,6.18,0,0,0-6.18,6.18A7.39,7.39,0,0,0,82,57.77V80.11a2.58,2.58,0,0,1-2.57,2.57H20.9a2.58,2.58,0,0,1-2.57-2.57V57.73a7.39,7.39,0,0,0,6-7.25,6.19,6.19,0,0,0-6.19-6.18,1.39,1.39,0,1,0,0,2.78,3.41,3.41,0,0,1,3.4,3.4,4.6,4.6,0,0,1-4.6,4.6A6.1,6.1,0,0,1,10.84,49a8,8,0,0,1,8-8,10.31,10.31,0,0,1,10.31,10.3v20.6A1.39,1.39,0,0,0,30.5,73.3h39a1.39,1.39,0,0,0,1.39-1.39V51.32A10.31,10.31,0,0,1,81.21,41a8,8,0,0,1,8,8,6.1,6.1,0,0,1-6.09,6.1ZM36,19H64.27A12.4,12.4,0,0,1,76.66,31.36v7.7a13.1,13.1,0,0,0-8.55,12.26v8.47H31.89V51.32a13.1,13.1,0,0,0-8.27-12.15v-7.8A12.39,12.39,0,0,1,36,19Zm-4.12,43.6H68.11v7.94H31.89Z" style="fill:#223f7a"/></svg>