<svg id="Layer_1" data-name="Layer 1" xmlns="http://www.w3.org/2000/svg" width="100" height="100" viewBox="0 0 100 100"><title>industries</title><path d="M80.9,12.75H19.1a6.35,6.35,0,0,0-6.35,6.35V63.6a6.32,6.32,0,0,0,1.08,3.55,6.39,6.39,0,0,0,.78.94q.22.22.45.41a6.33,6.33,0,0,0,4,1.45h23l-.1.57-1.63,9H38.88A3.88,3.88,0,0,0,35,83.37v2.47a1.41,1.41,0,0,0,1.41,1.41H63.6A1.41,1.41,0,0,0,65,85.84V83.37a3.88,3.88,0,0,0-3.88-3.88H59.6l-1.63-9-.1-.57h23a6.33,6.33,0,0,0,4-1.45q.24-.19.45-.41a6.34,6.34,0,0,0,1.86-4.49V19.1A6.35,6.35,0,0,0,80.9,12.75ZM19.1,15.57H80.9a3.53,3.53,0,0,1,3.52,3.36H15.58A3.53,3.53,0,0,1,19.1,15.57Zm-3.54,6.18H84.43V61H15.57ZM80.9,67.13H19.1a3.52,3.52,0,0,1-2.5-1,3.47,3.47,0,0,1-.72-1,3.59,3.59,0,0,1-.3-1.28H84.42a3.59,3.59,0,0,1-.3,1.28,3.47,3.47,0,0,1-.72,1A3.52,3.52,0,0,1,80.9,67.13ZM45,69.95H55l1.73,9.54H43.26ZM61.12,82.31a1.07,1.07,0,0,1,1.06,1.06v1.06H37.81V83.37a1.07,1.07,0,0,1,1.06-1.06Z" style="fill:#203f7a"/><path d="M43.23,52.46a1.21,1.21,0,0,0,1.25-1.25v-6a1.25,1.25,0,1,0-2.51,0v6a1.21,1.21,0,0,0,1.25,1.25Z" style="fill:#203f7a"/><path d="M47.74,52.46A1.21,1.21,0,0,0,49,51.21v-6a1.25,1.25,0,1,0-2.51,0v6a1.21,1.21,0,0,0,1.25,1.25Z" style="fill:#203f7a"/><path d="M66.26,41.89a2.75,2.75,0,0,0,.8-2v-3a2.72,2.72,0,0,0-2.76-2.76H62.19l-1.7-5.59h0a2.68,2.68,0,0,0-2.58-1.94H56.52v-.25a1.21,1.21,0,0,0-1.25-1.25H44.73a1.21,1.21,0,0,0-1.25,1.25v.25h-.7a2.63,2.63,0,0,0-2.57,1.74h0l-2.36,5.79H35.7a2.72,2.72,0,0,0-2.76,2.76v3a2.75,2.75,0,0,0,.8,2,2.72,2.72,0,0,0,1.59.76l1.23,11.11h0a2.78,2.78,0,0,0,2.75,2.47H53.89A7.27,7.27,0,0,0,67.06,52a7.33,7.33,0,0,0-2.76-5.71l.38-3.61A2.72,2.72,0,0,0,66.26,41.89ZM46,28.13v-.51h8v.51ZM42.48,29.3a.31.31,0,0,1,.1-.13.37.37,0,0,1,.2,0h.7v.25a1.21,1.21,0,0,0,1.25,1.25H55.27a1.21,1.21,0,0,0,1.25-1.25v-.25H57.9s.22.08.29.24l1.45,4.78H40.57Zm18.89,7.36h3a.22.22,0,0,1,.25.25v3a.22.22,0,0,1-.25.25H35.7a.22.22,0,0,1-.25-.25v-3a.22.22,0,0,1,.25-.25H61.36ZM59.78,56.73A4.77,4.77,0,1,1,64.55,52,4.73,4.73,0,0,1,59.78,56.73ZM39.05,53.45l-1.2-10.77H62.16L61.91,45a7.21,7.21,0,0,0-2.13-.34,7.6,7.6,0,0,0-2.42.4h0l-1.57.78,0,0a7.27,7.27,0,0,0-3,7.82H39.31l-.15-.06Z" style="fill:#203f7a"/><path d="M62.79,51.85l0-.06-.05,0a1.3,1.3,0,0,0-.81-.3,1.08,1.08,0,0,0-.56.16h0l-.62.45V49.68a1,1,0,1,0-1.93,0V52l-.66-.6h0a1,1,0,0,0-.54-.15.93.93,0,0,0-.8.46,1,1,0,0,0-.15.54A.93.93,0,0,0,57,53h0l2.21,1.63h0a.94.94,0,0,0,1,0h0l2.18-1.48h0a.93.93,0,0,0,.44-.79A1,1,0,0,0,62.79,51.85Z" style="fill:#203f7a"/></svg>