<svg id="Layer_1" data-name="Layer 1" xmlns="http://www.w3.org/2000/svg" width="250" height="250" viewBox="0 0 250 250"><title>Industry</title><path d="M196.63,84.36V57.15h0V29.52a2.77,2.77,0,0,0-2.76-2.76H177.3a2.77,2.77,0,0,0-2.76,2.77V57.14h0V84.36a24.77,24.77,0,0,0-13.81,22.28V211.85a2.76,2.76,0,0,0,2.76,2.76h44.2a2.76,2.76,0,0,0,2.76-2.76V106.64A24.76,24.76,0,0,0,196.63,84.36ZM180.06,32.28h11v22.1H180.06ZM166.24,129h27.63V178.7H166.24Zm38.67,80.11H166.24V184.22h30.39a2.76,2.76,0,0,0,2.76-2.76V126.21a2.76,2.76,0,0,0-2.76-2.76H166.24V106.64a19.26,19.26,0,0,1,12.09-17.93,2.76,2.76,0,0,0,1.72-2.56V59.91h11.05V86.15a2.77,2.77,0,0,0,1.73,2.56,19.27,19.27,0,0,1,12.09,17.94Z" style="fill:#223f7a"/><path d="M84.2,162.27h.58a2.71,2.71,0,0,0,2.71-2.71v-7.4a2.46,2.46,0,0,0,3.08,0v7.42a2.71,2.71,0,0,0,2.71,2.71h7.78a14.08,14.08,0,0,0,14.06-14.06v-7.78a2.71,2.71,0,0,0-2.71-2.71h-7.78a14,14,0,0,0-4.26.68,14.17,14.17,0,0,0,.15-2,14,14,0,0,0-4.1-9.92l-5.5-5.5a2.71,2.71,0,0,0-3.83,0l-5.5,5.5a14,14,0,0,0-4.1,9.92,14.22,14.22,0,0,0,.15,1.94,14,14,0,0,0-4.22-.66H65.66a2.7,2.7,0,0,0-2.71,2.7v7.79A14.07,14.07,0,0,0,77,162.27Zm-2.13-5.41H77a8.66,8.66,0,0,1-8.66-8.64v-5.08h5.08a8.66,8.66,0,0,1,8.65,8.66Zm3.36-26.51L89,126.77l3.58,3.58a8.68,8.68,0,0,1,0,12.24L89,146.18l-3.59-3.59a8.66,8.66,0,0,1,0-12.24Zm15.63,26.51H96v-5.07a8.66,8.66,0,0,1,8.64-8.66h5.07v5.08a8.66,8.66,0,0,1-8.64,8.64Z" style="fill:#223f7a"/><path d="M95.41,177.63a7,7,0,0,0-7,7v.58h5.42v-.58a1.55,1.55,0,1,1,3.1,0v.58h5.4v-.58A7,7,0,0,0,95.41,177.63Z" style="fill:#223f7a"/><path d="M112.42,179.76a7,7,0,0,0-7,7v.58h5.4v-.58a1.55,1.55,0,0,1,3.1,0v.58h5.42v-.58A7,7,0,0,0,112.42,179.76Z" style="fill:#223f7a"/><polygon points="80.17 209 80.17 209 80.16 208.99 80.17 209" style="fill:#223f7a"/><polygon points="78.99 207.53 78.99 207.53 78.99 207.53 78.99 207.53" style="fill:#223f7a"/><path d="M149.07,177.94c-2.19-1.85-5.57-3.17-9.29-4.17a83.5,83.5,0,0,0-10.66-2l7.18-26.92.08-.58v-.07a4.84,4.84,0,0,0-4.84-4.84H127.3a4.67,4.67,0,0,0-1.55.29V110.19a2.71,2.71,0,0,0-2.71-2.71H42.27a2.71,2.71,0,0,0-2.71,2.71V208a2.72,2.72,0,0,0,1.63,2.48h0L56,216.84h0a2.71,2.71,0,0,0,1,.21l0,0h32.5a40.44,40.44,0,0,0,61.92-34.34v-.23A6,6,0,0,0,149.07,177.94ZM111,217.82A34.82,34.82,0,0,1,91.61,212h0c-.25-.16-.5-.34-.78-.53-.59-.42-1.19-.86-1.76-1.32h0l-.62-.49q-1.12-.93-2.14-2l-.38-.39h0q-1-1-2-2.15h0l-.11-.13c-.66-.8-1.29-1.65-1.89-2.52l-.21-.32h0a34.15,34.15,0,0,1-3-5.52h0l-.21-.47c-.39-1-.74-1.91-1.06-2.89l-.1-.36h0c-.28-.89-.51-1.8-.7-2.72h0l-.12-.56c0-.11,0-.26-.06-.38,4.17,1.91,10,3.15,16,3.94a145.55,145.55,0,0,0,36.88,0c6-.79,11.82-2,16-3.92A35.11,35.11,0,0,1,111,217.82Zm16.83-73v-.07h2.91l-7.65,28.69h0l-1.25,4.8a2.71,2.71,0,0,0,1.94,3.3h0l.57.07h.07a2.71,2.71,0,0,0,2.62-2l.68-2.59a61.47,61.47,0,0,1,14.47,3.21,14.79,14.79,0,0,1,3.12,1.58,3.46,3.46,0,0,1,.64.56l.09.13,0,.09a6.9,6.9,0,0,1-2.79,1.76c-4.9,2.12-15.77,4.55-32.27,4.55-11.73,0-20.61-1.22-26.52-2.7A33.45,33.45,0,0,1,77.8,184a7.54,7.54,0,0,1-1.57-1l-.32-.35,0-.09v0l.05-.12a6.89,6.89,0,0,1,2.79-1.76c4.9-2.12,15.77-4.55,32.25-4.55,1,0,2,0,3,.07l-.22.87h0a2.72,2.72,0,0,0,2,3.29h0l.56.07h.07a2.72,2.72,0,0,0,2.63-2l1-4.13Zm-67.94-32h60.47v38.92l-5,18.92c-1.42,0-2.86-.08-4.34-.08A135.71,135.71,0,0,0,85.69,173,39.25,39.25,0,0,0,75,176.48a11.16,11.16,0,0,0-3.32,2.62,5.34,5.34,0,0,0-1.28,3.41v.22a39.71,39.71,0,0,0,.22,4.21c0,.46.14.85.19,1.21.13,1,.25,1.93.45,2.89.12.56.28,1.08.41,1.59.2.77.38,1.57.63,2.36s.45,1.23.66,1.82h0c.25.63.48,1.29.75,1.95h0c.29.66.62,1.3.93,1.92h0c.27.56.54,1.12.84,1.67h0c.37.66.77,1.28,1.15,1.9h0c.31.5.63,1,1,1.5h0c.42.61.87,1.19,1.31,1.76s.75,1,1.18,1.47.91,1,1.38,1.52.74.76,1.12,1.13H59.86Zm-5.47,97.35-9.42-4V112.9h9.42Z" style="fill:#223f7a"/></svg>