<svg id="Layer_1" data-name="Layer 1" xmlns="http://www.w3.org/2000/svg" width="100" height="100" viewBox="0 0 100 100"><title>industries</title><path d="M43.8,73.5a6.76,6.76,0,1,0,6.76,6.76A6.76,6.76,0,0,0,43.8,73.5Zm0,9.74a3,3,0,1,1,3-3A3,3,0,0,1,43.8,83.24Z" style="fill:#223f7a"/><path d="M67.5,73.5a6.76,6.76,0,1,0,6.76,6.76A6.76,6.76,0,0,0,67.5,73.5Zm0,9.74a3,3,0,1,1,3-3A3,3,0,0,1,67.5,83.24Z" style="fill:#223f7a"/><path d="M42.13,41.69h27a1.89,1.89,0,1,0,0-3.77h-27a1.89,1.89,0,0,0,0,3.77Z" style="fill:#223f7a"/><path d="M67.69,47.72H43.6a1.89,1.89,0,0,0,0,3.77H67.69a1.89,1.89,0,0,0,0-3.77Z" style="fill:#223f7a"/><path d="M87.57,29.52a3.76,3.76,0,0,0-2.92-1.39H25.88l-1.19-5.76a3.78,3.78,0,0,0-2.19-2.7l-8.28-3.59a1.89,1.89,0,0,0-1.5,3.46L21,23.13l9.13,44.31a3.79,3.79,0,0,0,3.7,3H79a1.89,1.89,0,0,0,0-3.77H33.82l-1.11-5.39H79.37a3.79,3.79,0,0,0,3.7-3l5.28-25.61A3.76,3.76,0,0,0,87.57,29.52Zm-8.2,28H31.94L26.66,31.9h58Z" style="fill:#223f7a"/></svg>