<svg id="Layer_1" data-name="Layer 1" xmlns="http://www.w3.org/2000/svg" width="250" height="250" viewBox="0 0 250 250"><title>Industry</title><path d="M110.09,178a16.25,16.25,0,1,0,16.25,16.25A16.27,16.27,0,0,0,110.09,178Zm0,23.43a7.18,7.18,0,1,1,7.18-7.18A7.19,7.19,0,0,1,110.09,201.42Z" style="fill:#223f7a"/><path d="M167.09,178a16.25,16.25,0,1,0,16.25,16.25A16.27,16.27,0,0,0,167.09,178Zm0,23.43a7.18,7.18,0,1,1,7.18-7.18A7.19,7.19,0,0,1,167.09,201.42Z" style="fill:#223f7a"/><path d="M106.08,101.5h65a4.54,4.54,0,1,0,0-9.07h-65a4.54,4.54,0,1,0,0,9.07Z" style="fill:#223f7a"/><path d="M167.55,116H109.62a4.54,4.54,0,1,0,0,9.07h57.94a4.54,4.54,0,0,0,0-9.07Z" style="fill:#223f7a"/><path d="M215.35,72.22a9,9,0,0,0-7-3.34H67L64.14,55a9.08,9.08,0,0,0-5.27-6.49L39,39.88a4.54,4.54,0,0,0-3.61,8.32l19.91,8.64,22,106.56a9.11,9.11,0,0,0,8.89,7.24H194.79a4.54,4.54,0,1,0,0-9.07H86.09l-2.67-13h112.2a9.11,9.11,0,0,0,8.89-7.24l12.69-61.6A9,9,0,0,0,215.35,72.22Zm-19.72,67.33H81.55L68.86,77.95H208.32Z" style="fill:#223f7a"/></svg>