<svg id="Layer_1" data-name="Layer 1" xmlns="http://www.w3.org/2000/svg" width="250" height="250" viewBox="0 0 250 250"><title>Recyclables</title><path d="M61.11,197.44h0a3.31,3.31,0,1,0,3.35,3.31,3.3,3.3,0,0,0-3.35-3.31Zm0,0" style="fill:#223f7a"/><path d="M61,177.55a23.2,23.2,0,1,0,23.2,23.2A23.22,23.22,0,0,0,61,177.55Zm0,39.77a16.57,16.57,0,1,1,16.57-16.57A16.59,16.59,0,0,1,61,217.32Zm0,0" style="fill:#223f7a"/><path d="M159.42,153.6c1.65-2.83,1.26-6.68-1.11-10.84l-16.43-28.58a3.31,3.31,0,0,0-5.75,3.31L152.56,146c1.29,2.27,1.38,3.79,1.13,4.22-.16.27-1,.78-3.23.78H125.33l4.29-4.29a3.31,3.31,0,0,0-4.69-4.69L115,152a3.32,3.32,0,0,0,0,4.69l9.94,9.94a3.31,3.31,0,0,0,4.69-4.69l-4.29-4.28h25.14c5.45,0,7.88-2.21,9-4.07Zm0,0" style="fill:#223f7a"/><path d="M222,29.61c-2.06-3.57-6.64-6.21-13.32-2.95l-24.29,11.7H34.5a9.94,9.94,0,0,0,0,19.89H38l4.9,112.83a3.31,3.31,0,0,0,3.31,3.17h.15a3.31,3.31,0,0,0,3.17-3.45L44.59,58.24H167.06a3.31,3.31,0,1,0,0-6.63H34.5a3.31,3.31,0,1,1,0-6.63H185.18a3.31,3.31,0,0,0,1.43-.33l25-12c3.52-1.73,4.31-.36,4.69.3a3.2,3.2,0,0,1-1,4.59L189,51a3,3,0,0,0-.46.21,3.3,3.3,0,0,1-1.58.43h-6.63a3.26,3.26,0,0,0-.92.19c-.08,0-.17,0-.24,0a3.28,3.28,0,0,0-1,.6l-.09.07a3.24,3.24,0,0,0-.56.75,2.92,2.92,0,0,0-.2.3,3.26,3.26,0,0,0-.18.72,3.26,3.26,0,0,0-.13.51l-6.63,152.59a10,10,0,0,1-9.94,9.94H87.52a3.31,3.31,0,1,0,0,6.63h72.91A16.55,16.55,0,0,0,177,207.52l6.49-149.28h3.46a9.68,9.68,0,0,0,4.51-1.11l.32-.14,26.7-13.68A9.89,9.89,0,0,0,222,29.61Zm0,0" style="fill:#223f7a"/><path d="M137.07,87.59A3.32,3.32,0,0,0,133,89.9l-1.65,5.94-11.1-19.3a10.86,10.86,0,0,0-9.54-5c-5.54,0-8.64,3.24-9.5,5l-15,26.24a3.32,3.32,0,0,0,5.75,3.3L107,79.71c.09-.16,1-1.58,3.71-1.58a4.28,4.28,0,0,1,3.76,1.65l11.09,19.29-5.73-1.54a3.32,3.32,0,0,0-1.72,6.4l13.45,3.61a3.41,3.41,0,0,0,.86.11,2.13,2.13,0,0,0,.22,0,3.05,3.05,0,0,0,.42-.07,3.52,3.52,0,0,0,.77-.26c.07,0,.16,0,.23-.08s.08-.08.12-.11a3.22,3.22,0,0,0,.68-.59,2.58,2.58,0,0,0,.22-.23,3.25,3.25,0,0,0,.52-1.05v0l3.77-13.52a3.32,3.32,0,0,0-2.3-4.08Zm0,0" style="fill:#223f7a"/><path d="M62,153.53c1.06,1.89,3.49,4.14,9,4.14h33.14a3.31,3.31,0,0,0,0-6.63H70.93c-2.18,0-3-.5-3.19-.77-.24-.43-.13-1.93,1.25-4.21l12.43-21.7,1.7,6a3.31,3.31,0,0,0,6.38-1.81L85.64,115a3.39,3.39,0,0,0-.2-.38,3.25,3.25,0,0,0-.38-.75,3.55,3.55,0,0,0-.57-.5,3.37,3.37,0,0,0-.39-.34h0l0,0a3.37,3.37,0,0,0-.83-.27,3.17,3.17,0,0,0-.39-.13,3.11,3.11,0,0,0-.49,0,3.28,3.28,0,0,0-.79.07h0L68,116.58a3.31,3.31,0,1,0,1.83,6.37l5.64-1.62L63.28,142.7c-2.48,4.1-2.95,7.94-1.31,10.83Zm0,0" style="fill:#223f7a"/></svg>