<svg id="Layer_1" data-name="Layer 1" xmlns="http://www.w3.org/2000/svg" width="100" height="100" viewBox="0 0 100 100"><title>Recyclables_small</title><path d="M26.72,77.73h0A1.28,1.28,0,1,0,28,79a1.27,1.27,0,0,0-1.29-1.28Zm0,0" style="fill:#223f7a"/><path d="M26.68,70.05a9,9,0,1,0,9,9,9,9,0,0,0-9-9Zm0,15.36a6.4,6.4,0,1,1,6.4-6.4,6.41,6.41,0,0,1-6.4,6.4Zm0,0" style="fill:#223f7a"/><path d="M64.68,60.8c.64-1.09.49-2.58-.43-4.18l-6.34-11a1.28,1.28,0,0,0-2.22,1.28l6.34,11c.5.88.53,1.46.44,1.63s-.4.3-1.25.3H51.51l1.65-1.65a1.28,1.28,0,0,0-1.81-1.81l-3.84,3.84a1.28,1.28,0,0,0,0,1.81l3.84,3.84A1.28,1.28,0,0,0,53.17,64l-1.65-1.65h9.71c2.1,0,3-.86,3.46-1.57Zm0,0" style="fill:#223f7a"/><path d="M88.85,12.93c-.8-1.38-2.56-2.4-5.14-1.14l-9.38,4.52H16.44a3.84,3.84,0,0,0,0,7.68h1.33l1.89,43.56a1.28,1.28,0,0,0,1.28,1.22H21a1.28,1.28,0,0,0,1.22-1.33L20.34,24H67.63a1.28,1.28,0,1,0,0-2.56H16.44a1.28,1.28,0,1,1,0-2.56H74.62a1.28,1.28,0,0,0,.55-.13l9.65-4.65c1.36-.67,1.66-.14,1.81.12a1.24,1.24,0,0,1-.4,1.77l-10.15,5.2-.18.08a1.28,1.28,0,0,1-.61.17H72.75a1.26,1.26,0,0,0-.35.07l-.09,0a1.26,1.26,0,0,0-.38.23l0,0a1.25,1.25,0,0,0-.22.29,1.13,1.13,0,0,0-.08.12,1.26,1.26,0,0,0-.07.28,1.26,1.26,0,0,0,0,.2L68.91,81.57a3.84,3.84,0,0,1-3.84,3.84H36.92a1.28,1.28,0,1,0,0,2.56H65.07a6.39,6.39,0,0,0,6.4-6.34L74,24H75.3A3.74,3.74,0,0,0,77,23.55l.12-.05,10.31-5.28a3.82,3.82,0,0,0,1.37-5.29Zm0,0" style="fill:#223f7a"/><path d="M56,35.32a1.28,1.28,0,0,0-1.58.89l-.64,2.29L49.55,31a4.19,4.19,0,0,0-3.68-1.95A4.07,4.07,0,0,0,42.19,31l-5.8,10.13a1.28,1.28,0,0,0,2.22,1.27l5.82-10.16a1.59,1.59,0,0,1,1.43-.61,1.65,1.65,0,0,1,1.45.64l4.28,7.45-2.21-.6a1.28,1.28,0,0,0-.66,2.47L53.91,43a1.32,1.32,0,0,0,.33,0l.09,0,.16,0a1.36,1.36,0,0,0,.3-.1l.09,0,0,0a1.24,1.24,0,0,0,.26-.23l.08-.09a1.25,1.25,0,0,0,.2-.41h0l1.45-5.22A1.28,1.28,0,0,0,56,35.32Zm0,0" style="fill:#223f7a"/><path d="M27,60.77c.41.73,1.35,1.6,3.46,1.6h12.8a1.28,1.28,0,0,0,0-2.56H30.51c-.84,0-1.18-.19-1.23-.3s0-.74.48-1.63l4.8-8.38.66,2.32a1.28,1.28,0,0,0,2.46-.7l-1.49-5.24a1.31,1.31,0,0,0-.08-.15,1.26,1.26,0,0,0-.15-.29,1.37,1.37,0,0,0-.22-.19,1.3,1.3,0,0,0-.15-.13h0a1.3,1.3,0,0,0-.32-.1,1.22,1.22,0,0,0-.15,0,1.2,1.2,0,0,0-.19,0,1.26,1.26,0,0,0-.3,0h0l-5.21,1.5A1.28,1.28,0,1,0,30.1,49l2.18-.63-4.73,8.25c-1,1.58-1.14,3.07-.51,4.18Zm0,0" style="fill:#223f7a"/></svg>