<svg id="Layer_1" data-name="Layer 1" xmlns="http://www.w3.org/2000/svg" width="100" height="100" viewBox="0 0 100 100"><title>Benifits</title><path d="M89.4,91.27H10.61a1.28,1.28,0,0,1-1.36-1.36V15.34a5.51,5.51,0,0,1,5.44-5.57H85.32a5.48,5.48,0,0,1,5.43,5.53V89.92a1.28,1.28,0,0,1-1.2,1.36ZM12,88.57H88V15.34a2.79,2.79,0,0,0-2.7-2.86H14.82A2.79,2.79,0,0,0,12,15.18V88.57Z" style="fill:#213e7a"/><path d="M84,41H16a1.28,1.28,0,0,1-1.36-1.36V31.5a1.28,1.28,0,0,1,1.2-1.36H84a1.28,1.28,0,0,1,1.36,1.36v8.15A1.28,1.28,0,0,1,84.12,41ZM17.4,38.31H82.62V32.86H17.4Z" style="fill:#213e7a"/><path d="M82.61,62.75H17.38A1.28,1.28,0,0,1,16,61.39V39.65a1.28,1.28,0,0,1,1.2-1.36H82.61A1.28,1.28,0,0,1,84,39.65V61.39a1.28,1.28,0,0,1-1.2,1.36ZM18.76,60H81.26V41H18.74Z" style="fill:#213e7a"/><path d="M82.61,91.27H17.38A1.28,1.28,0,0,1,16,89.92V61.39A1.28,1.28,0,0,1,17.22,60H82.61A1.28,1.28,0,0,1,84,61.39V89.92a1.28,1.28,0,0,1-1.2,1.36Zm-63.85-2.7H81.26V62.75H18.74Z" style="fill:#213e7a"/><path d="M60.87,91.27H44.57a1.28,1.28,0,0,1-1.36-1.36V79a1.28,1.28,0,0,1,1.2-1.36H60.87A1.28,1.28,0,0,1,62.23,79V89.92A1.28,1.28,0,0,1,61,91.27Zm-14.94-2.7H59.51V80.41H45.93Z" style="fill:#213e7a"/><path d="M69,80.41H52.7A1.28,1.28,0,0,1,51.34,79V68.18a1.28,1.28,0,0,1,1.2-1.36H69a1.28,1.28,0,0,1,1.36,1.36V79a1.28,1.28,0,0,1-1.2,1.36ZM54.08,77.7H67.66V69.54H54.08Z" style="fill:#213e7a"/><path d="M77.17,91.27H60.87a1.28,1.28,0,0,1-1.36-1.36V79a1.28,1.28,0,0,1,1.2-1.36H77.17A1.28,1.28,0,0,1,78.53,79V89.92a1.28,1.28,0,0,1-1.2,1.36Zm-14.94-2.7H75.81V80.41H62.23Z" style="fill:#213e7a"/><path d="M26.91,91.27a5.43,5.43,0,1,1,5.43-5.43h0A5.43,5.43,0,0,1,26.91,91.27Zm0-8.15a2.7,2.7,0,1,0,2.7,2.7A2.7,2.7,0,0,0,26.91,83.12Z" style="fill:#213e7a"/><path d="M35.06,91.27a5.43,5.43,0,1,1,5.43-5.43h0A5.43,5.43,0,0,1,35.06,91.27Zm0-8.15a2.7,2.7,0,1,0,2.7,2.7A2.7,2.7,0,0,0,35.06,83.12Z" style="fill:#213e7a"/><path d="M63.59,75H58.15a1.28,1.28,0,0,1-1.36-1.36V68.18A1.28,1.28,0,0,1,58,66.82h5.59a1.28,1.28,0,0,1,1.36,1.36v5.43A1.28,1.28,0,0,1,63.75,75Zm-4.08-2.7h2.7v-2.7h-2.7Z" style="fill:#213e7a"/><path d="M55.44,85.84H50a1.28,1.28,0,0,1-1.36-1.36V79a1.28,1.28,0,0,1,1.2-1.36h5.59A1.28,1.28,0,0,1,56.79,79v5.43a1.28,1.28,0,0,1-1.2,1.36Zm-4.08-2.7h2.7v-2.7h-2.7Z" style="fill:#213e7a"/><path d="M71.74,85.84H66.3a1.28,1.28,0,0,1-1.36-1.36V79a1.28,1.28,0,0,1,1.2-1.36h5.59A1.28,1.28,0,0,1,73.1,79v5.43a1.28,1.28,0,0,1-1.2,1.36Zm-4.08-2.7h2.7v-2.7h-2.7Z" style="fill:#213e7a"/><path d="M69,27.43H31a1.28,1.28,0,0,1-1.36-1.36V16.56a1.28,1.28,0,0,1,1.2-1.36H69a1.28,1.28,0,0,1,1.36,1.36v9.51a1.28,1.28,0,0,1-1.2,1.36Zm-36.66-2.7H67.68V17.93H32.34Z" style="fill:#213e7a"/><path d="M82.61,46.44H17.38a1.36,1.36,0,0,1,0-2.7H82.61a1.36,1.36,0,1,1,0,2.7Z" style="fill:#213e7a"/><path d="M82.61,51.88H17.38a1.36,1.36,0,0,1,0-2.7H82.61a1.36,1.36,0,1,1,0,2.7Z" style="fill:#213e7a"/><path d="M82.61,57.31H17.38a1.36,1.36,0,0,1,0-2.7H82.61a1.36,1.36,0,1,1,0,2.7Z" style="fill:#213e7a"/></svg>