<svg id="Layer_1" data-name="Layer 1" xmlns="http://www.w3.org/2000/svg" width="100" height="100" viewBox="0 0 100 100"><title>downloads_v</title><path d="M59.13,38.94H24.56a1.38,1.38,0,0,0,0,2.76H59.13a1.38,1.38,0,0,0,0-2.76Z" style="fill:#fff"/><path d="M24.56,30.64H38.39a1.38,1.38,0,1,0,0-2.77H24.56a1.38,1.38,0,1,0,0,2.77Z" style="fill:#fff"/><path d="M60.52,51.35A1.36,1.36,0,0,0,59.16,50H24.56a1.38,1.38,0,1,0,0,2.77H59.13a1.36,1.36,0,0,0,1.36-1.36Z" style="fill:#fff"/><path d="M49.45,62.44a1.36,1.36,0,0,0-1.36-1.36H24.56a1.38,1.38,0,0,0,0,2.77H48.09a1.36,1.36,0,0,0,1.36-1.36Z" style="fill:#fff"/><path d="M24.56,72.12a1.38,1.38,0,1,0,0,2.76H43.92a1.38,1.38,0,0,0,0-2.76Z" style="fill:#fff"/><path d="M14.28,11.31H50.56A1.66,1.66,0,0,1,52.22,13V28.45a2.19,2.19,0,0,0,2.19,2.19H69.84a1.74,1.74,0,0,1,1.74,1.74V52.76A1.38,1.38,0,0,0,73,54.14h0a1.38,1.38,0,0,0,1.38-1.38V29.95a3.11,3.11,0,0,0-.89-2.18l-18-18.28a3.28,3.28,0,0,0-2.34-1H11.89A2.26,2.26,0,0,0,9.4,10.67v78.2A2.61,2.61,0,0,0,12,91.48H50.82a1.4,1.4,0,0,0,1.4-1.4h0a1.4,1.4,0,0,0-1.4-1.4H14.73a2.61,2.61,0,0,1-2.61-2.61V13.47A2.16,2.16,0,0,1,14.28,11.31Zm42.26,3.5,11.52,11.5a.91.91,0,0,1-.65,1.56H57.17A2.19,2.19,0,0,1,55,25.68V15.46A.91.91,0,0,1,56.54,14.81Z" style="fill:#fff"/><path d="M56.36,61.25V89.08a2.41,2.41,0,0,0,2.41,2.41H87.14a2.41,2.41,0,0,0,2.41-2.41V61.25a3,3,0,0,0-3-3H59.31A3,3,0,0,0,56.36,61.25Zm28,27.44H61.55a2.41,2.41,0,0,1-2.41-2.41V64a3,3,0,0,1,3-3h9.49V78.46l-5-5a1.38,1.38,0,0,0-1.95,0h0a1.38,1.38,0,0,0,0,1.94L73,83.76l8.3-8.31a1.38,1.38,0,0,0,0-1.94h0a1.38,1.38,0,0,0-1.95,0l-5,5V61.05h9.46a3,3,0,0,1,3,3V86.27A2.41,2.41,0,0,1,84.37,88.69Z" style="fill:#fff"/></svg>