<svg id="Layer_1" data-name="Layer 1" xmlns="http://www.w3.org/2000/svg" width="100" height="100" viewBox="0 0 100 100"><title>industries</title><path d="M86.88,36.22h-18l19.9-5.59.14,0a3.46,3.46,0,0,0-2.44-6.47L56.21,32.32V16A6.31,6.31,0,1,0,43.6,16V31.82H12.93a1.38,1.38,0,0,0-1.38,1.38v3.27A4,4,0,0,0,9,40.58L10,51h0l1,10h0l1.9,19.43a1.36,1.36,0,0,0,.09,1l.24,2.47a9.13,9.13,0,0,0,9.12,8.27H77.49a9.13,9.13,0,0,0,9.12-8.27l.24-2.47a1.37,1.37,0,0,0,.09-1L88.85,61h0l1-10h0l1-10.44a4,4,0,0,0-4-4.36Zm-30.67-1,31-8.43.13,0a.7.7,0,0,1,.94.65.69.69,0,0,1-.39.62L58.62,36.22H56.21ZM46.36,16a3.55,3.55,0,1,1,7.09,0V44.31H46.36ZM14.31,34.58H43.59v1.64H14.31ZM12.89,52.26H22v7.2H13.59ZM71.21,69.41v-7.2H81.67v7.2Zm3.88,2.76v7.2H64.57v-7.2Zm0-12.72H64.57v-7.2H75.08Zm-6.64,2.76v7.2H57.93v-7.2Zm-6.64,10v7.2H51.29v-7.2Zm0-12.72H51.29v-7.2H61.8Zm-6.64,2.76v7.2H44.65v-7.2Zm-6.64,10v7.2H38v-7.2Zm0-12.72H38v-7.2H48.52Zm-6.64,2.76v7.2H31.37v-7.2Zm-6.64,10v7.2H24.73v-7.2Zm0-12.72H24.73v-7.2H35.24ZM28.6,62.22v7.2H18.14v-7.2Zm-14.74,0h1.51v7.2h-.81Zm1,10H22v7.2H15.54Zm69,11.38a6.38,6.38,0,0,1-6.37,5.78H22.31a6.38,6.38,0,0,1-6.37-5.78l-.14-1.42H84Zm.41-4.18H77.84v-7.2H85Zm1-10h-.81v-7.2h1.51Zm1-10H77.84v-7.2h9.08Zm1.87-19.15-.25,2.56H85.26a1.38,1.38,0,1,0,0,2.76h2.31l-.38,3.87H12.62l-.38-3.87H33.81a1.38,1.38,0,1,0,0-2.76H12l-.25-2.56A1.21,1.21,0,0,1,12.93,39H43.6v6.71A1.38,1.38,0,0,0,45,47.07h9.86a1.38,1.38,0,0,0,1.38-1.38V39h2.3l.23,0L59,39H86.88a1.21,1.21,0,0,1,1.21,1.33ZM52.2,39.9a2.3,2.3,0,1,1-2.3-2.3,2.3,2.3,0,0,1,2.3,2.3Zm25.6,4.35a1.38,1.38,0,0,1-1.38,1.38H66a1.38,1.38,0,0,1,0-2.76H76.42a1.38,1.38,0,0,1,1.38,1.38Zm0,0" style="fill:#223f7a"/></svg>