<svg id="Layer_1" data-name="Layer 1" xmlns="http://www.w3.org/2000/svg" width="100" height="100" viewBox="0 0 100 100"><title>industries</title><path d="M87.23,70.13V29.87A5.31,5.31,0,1,0,81.36,22L55.3,14.28c0-.06,0-.12,0-.18a5.32,5.32,0,1,0-10.64,0c0,.06,0,.12,0,.18L18.64,22a5.31,5.31,0,1,0-5.87,7.86V70.13A5.31,5.31,0,1,0,18.64,78L44.7,85.72c0,.06,0,.12,0,.18a5.32,5.32,0,1,0,10.64,0c0-.06,0-.12,0-.18L81.36,78a5.31,5.31,0,1,0,5.87-7.86Zm-5.87,2.4L55.3,64.81c0-.06,0-.12,0-.18a5.31,5.31,0,0,0-4-5.13v-19a5.31,5.31,0,0,0,4-5.13c0-.06,0-.12,0-.18l26.06-7.72a5.31,5.31,0,0,0,3.21,2.4V70.13A5.31,5.31,0,0,0,81.36,72.53Zm-36.68-7.9c0,.06,0,.12,0,.18L18.64,72.53a5.31,5.31,0,0,0-3.21-2.4V29.87a5.31,5.31,0,0,0,3.21-2.4L44.7,35.19c0,.06,0,.12,0,.18a5.31,5.31,0,0,0,4,5.13v19A5.31,5.31,0,0,0,44.68,64.63ZM50,38a2.66,2.66,0,1,1,2.66-2.66A2.66,2.66,0,0,1,50,38Zm-1.33,24.3v4.58a2.64,2.64,0,0,1,0-4.58Zm2.66,0a2.64,2.64,0,0,1,0,4.58ZM85.9,22.08a2.66,2.66,0,1,1-2.66,2.66A2.66,2.66,0,0,1,85.9,22.08ZM50,11.44a2.66,2.66,0,1,1-2.66,2.66A2.66,2.66,0,0,1,50,11.44Zm-4.54,5.39a5.28,5.28,0,0,0,9.08,0L80.6,24.55c0,.06,0,.12,0,.18s0,.12,0,.18L54.54,32.64a5.28,5.28,0,0,0-9.08,0L19.4,24.92c0-.06,0-.12,0-.18s0-.12,0-.18Zm-34,7.9A2.66,2.66,0,1,1,14.1,27.4,2.66,2.66,0,0,1,11.44,24.74ZM14.1,77.92a2.66,2.66,0,1,1,2.66-2.66A2.66,2.66,0,0,1,14.1,77.92Zm5.3-2.48c0-.06,0-.12,0-.18s0-.12,0-.18l26.06-7.72a5.31,5.31,0,0,0,3.21,2.4v11a5.31,5.31,0,0,0-3.21,2.4ZM50,88.56a2.66,2.66,0,1,1,2.66-2.66A2.66,2.66,0,0,1,50,88.56Zm4.54-5.39a5.31,5.31,0,0,0-3.21-2.4v-11a5.31,5.31,0,0,0,3.21-2.4L80.6,75.08c0,.06,0,.12,0,.18s0,.12,0,.18ZM85.9,77.92a2.66,2.66,0,1,1,2.66-2.66A2.66,2.66,0,0,1,85.9,77.92Z" style="fill:#223f7a"/></svg>