<svg id="Layer_1" data-name="Layer 1" xmlns="http://www.w3.org/2000/svg" width="100" height="100" viewBox="0 0 100 100"><title>industries</title><path d="M82.25,67.15l-17,6.26a1.63,1.63,0,1,0,1.13,3.06l17-6.26a1.63,1.63,0,1,0-1.13-3.06Z" style="fill:#223f7a"/><path d="M60.6,75.14l-.72.27A1.63,1.63,0,1,0,61,78.47l.72-.27a1.63,1.63,0,0,0-1.13-3.06Z" style="fill:#223f7a"/><path d="M82.25,60.5l-13.42,5A1.63,1.63,0,1,0,70,68.51l13.42-5a1.63,1.63,0,1,0-1.13-3.06Z" style="fill:#223f7a"/><path d="M82.25,53.92l-13.42,5A1.63,1.63,0,1,0,70,61.93l13.42-5a1.63,1.63,0,1,0-1.13-3.06Z" style="fill:#223f7a"/><path d="M89.91,25,50.57,10.5a1.63,1.63,0,0,0-1.13,0L10.09,25h0A1.63,1.63,0,0,0,9,26.54v46.7a1.63,1.63,0,0,0,1.07,1.53L49.43,89.3a1.62,1.62,0,0,0,1.13,0h0L89.91,74.78A1.63,1.63,0,0,0,91,73.25V26.54A1.63,1.63,0,0,0,89.91,25Zm-67,7.79,14.37,5.3V55.54L22.9,50.24Zm16,2.41L26,30.45,38.9,25.68l12.91,4.77ZM50,13.77,84.63,26.54,50,39.32,43.6,37l13.5-5a1.63,1.63,0,0,0,0-3.06L39.46,22.41a1.63,1.63,0,0,0-1.13,0l-17.08,6.3-5.88-2.17ZM12.29,28.89l7.35,2.71V51.38a1.63,1.63,0,0,0,1.07,1.53l17.63,6.51a1.63,1.63,0,0,0,2.2-1.53V39.31l7.84,2.89V85.42L12.29,72.11ZM51.63,85.42V42.2L87.71,28.89V72.11Z" style="fill:#223f7a"/></svg>