<svg id="Layer_1" data-name="Layer 1" xmlns="http://www.w3.org/2000/svg" width="100" height="100" viewBox="0 0 100 100"><title>industries</title><path d="M91.47,88.7h-.09V74.31A1.34,1.34,0,0,0,90,73H82.8V58.58a1.34,1.34,0,0,0-1.34-1.34H77.17a1.34,1.34,0,1,0,0,2.68h2.95V73H62.78v-13h8.67a1.34,1.34,0,1,0,0-2.68h-10a1.34,1.34,0,0,0-1.34,1.34V73H50a1.34,1.34,0,0,0-1.34,1.34V88.7H47.05v-66h20.2v5.12L57.8,34.61a1.36,1.36,0,0,0-.56,1.09V51.43a1.34,1.34,0,0,0,1.34,1.34h20a1.34,1.34,0,0,0,1.34-1.34V35.7a1.36,1.36,0,0,0-.56-1.09l-9.45-6.75V22.74h5.81a1.34,1.34,0,0,0,0-2.68H68.85L40.49,8.71a1.35,1.35,0,0,0-1.2.1L21,20.06H11.39a1.34,1.34,0,0,0,0,2.68h4.38V30a1.34,1.34,0,0,0,1.34,1.34h8.58A1.34,1.34,0,0,0,27,30V22.74h5.9v66H31.32V74.31A1.34,1.34,0,0,0,30,73H10a1.34,1.34,0,0,0-1.34,1.34V88.7H8.53a1.34,1.34,0,1,0,0,2.68H91.47a1.34,1.34,0,1,0,0-2.68ZM26.14,20.06l6.79-4.18v4.18Zm14-8.6,3.64,1.45h-6Zm4.25,70.38v5l-2.48-2.48ZM40,82.42,36.17,78.6,40,74.78l3.82,3.82Zm1.9-9.54,2.48-2.48v5ZM40,71l-3.82-3.82L40,63.34l3.82,3.82Zm1.9-9.54L44.37,59v5ZM40,59.54l-3.82-3.82L40,51.89l3.82,3.82ZM41.89,50l2.48-2.48v5ZM40,48.1l-3.82-3.82L40,40.45l3.82,3.82Zm1.9-9.54,2.48-2.48v5ZM40,36.66l-3.82-3.82L40,29l3.82,3.82Zm1.9-9.54,2.48-2.48v5Zm2.48-7.06H35.61V15.59h8.76Zm-1.9,2.68L40,25.22l-2.48-2.48h5ZM47,14.23l14.58,5.83H47.05V14.23Zm-9,12.89L35.61,29.6v-5Zm0,11.44L35.61,41v-5Zm0,11.44-2.48,2.48v-5Zm0,11.44-2.48,2.48V59Zm0,11.44-2.48,2.48v-5Zm0,11.44L35.61,86.8v-5Zm1.9,1.9,2.48,2.48h-5Zm28.6-56,5.83,4.16H62.76Zm8.67,19.89H59.92V37H77.26ZM24.35,28.64h-5.9v-5.9h5.9ZM11.3,88.7v-13H28.64v13Zm40-13H68.68v13H51.34Zm20,13v-13H88.7v13Z" style="fill:#223f7a"/><path d="M20,77.26a1.34,1.34,0,0,0-1.34,1.34v7.15a1.34,1.34,0,0,0,2.68,0V78.6A1.34,1.34,0,0,0,20,77.26Z" style="fill:#223f7a"/><path d="M24.26,77.26a1.34,1.34,0,0,0-1.34,1.34v7.15a1.34,1.34,0,1,0,2.68,0V78.6A1.34,1.34,0,0,0,24.26,77.26Z" style="fill:#223f7a"/><path d="M15.68,77.26a1.34,1.34,0,0,0-1.34,1.34v7.15a1.34,1.34,0,0,0,2.68,0V78.6A1.34,1.34,0,0,0,15.68,77.26Z" style="fill:#223f7a"/><path d="M80,77.26a1.34,1.34,0,0,0-1.34,1.34v7.15a1.34,1.34,0,0,0,2.68,0V78.6A1.34,1.34,0,0,0,80,77.26Z" style="fill:#223f7a"/><path d="M84.32,77.26A1.34,1.34,0,0,0,83,78.6v7.15a1.34,1.34,0,0,0,2.68,0V78.6A1.34,1.34,0,0,0,84.32,77.26Z" style="fill:#223f7a"/><path d="M75.74,77.26A1.34,1.34,0,0,0,74.4,78.6v7.15a1.34,1.34,0,1,0,2.68,0V78.6A1.34,1.34,0,0,0,75.74,77.26Z" style="fill:#223f7a"/><path d="M71.45,61.53a1.34,1.34,0,0,0-1.34,1.34V70a1.34,1.34,0,1,0,2.68,0V62.87A1.34,1.34,0,0,0,71.45,61.53Z" style="fill:#223f7a"/><path d="M74.4,70a1.34,1.34,0,1,0,2.68,0V62.87a1.34,1.34,0,1,0-2.68,0Z" style="fill:#223f7a"/><path d="M65.82,62.87V70a1.34,1.34,0,1,0,2.68,0V62.87a1.34,1.34,0,1,0-2.68,0Z" style="fill:#223f7a"/><path d="M60,77.26a1.34,1.34,0,0,0-1.34,1.34v7.15a1.34,1.34,0,1,0,2.68,0V78.6A1.34,1.34,0,0,0,60,77.26Z" style="fill:#223f7a"/><path d="M64.3,77.26A1.34,1.34,0,0,0,63,78.6v7.15a1.34,1.34,0,0,0,2.68,0V78.6A1.34,1.34,0,0,0,64.3,77.26Z" style="fill:#223f7a"/><path d="M55.72,77.26a1.34,1.34,0,0,0-1.34,1.34v7.15a1.34,1.34,0,1,0,2.68,0V78.6A1.34,1.34,0,0,0,55.72,77.26Z" style="fill:#223f7a"/><path d="M68.59,48.48a1.34,1.34,0,0,0,1.34-1.34V40a1.34,1.34,0,1,0-2.68,0v7.15A1.34,1.34,0,0,0,68.59,48.48Z" style="fill:#223f7a"/><path d="M72.88,48.48a1.34,1.34,0,0,0,1.34-1.34V40a1.34,1.34,0,1,0-2.68,0v7.15A1.34,1.34,0,0,0,72.88,48.48Z" style="fill:#223f7a"/><path d="M64.3,48.48a1.34,1.34,0,0,0,1.34-1.34V40A1.34,1.34,0,1,0,63,40v7.15A1.34,1.34,0,0,0,64.3,48.48Z" style="fill:#223f7a"/></svg>