<svg id="Layer_1" data-name="Layer 1" xmlns="http://www.w3.org/2000/svg" width="100" height="100" viewBox="0 0 100 100"><title>quote</title><path d="M91.06,75.05a1.31,1.31,0,0,0,1.31-1.31V27A1.31,1.31,0,0,0,92,26L77.84,11.89a1.31,1.31,0,0,0-.94-.39H47.08v-.27a4,4,0,0,0-4-4H11.58a4,4,0,0,0-4,4V54.07a4,4,0,0,0,4,4h9.2a1,1,0,0,1,1,1V90.7A1.31,1.31,0,0,0,23.06,92h64.6a4.71,4.71,0,0,0,4.71-4.71V80.8a1.33,1.33,0,0,0-2.66,0V86a3.4,3.4,0,0,1-3.4,3.4H26.58a2.17,2.17,0,0,1-2.17-2.17V59a1,1,0,0,1,1-1h17.7a4,4,0,0,0,4-4V31.21a1.33,1.33,0,1,0-2.66,0V53.09a2.28,2.28,0,0,1-2.28,2.28H12.56a2.28,2.28,0,0,1-2.28-2.28V12.21a2.28,2.28,0,0,1,2.28-2.28H42.12a2.28,2.28,0,0,1,2.28,2.28v12a1.33,1.33,0,1,0,2.66,0V15.13a1,1,0,0,1,1-1H75.56V26a2.28,2.28,0,0,0,2.28,2.28h8.39a3.47,3.47,0,0,1,3.47,3.47V73.7A1.31,1.31,0,0,0,91,75.05ZM79.89,17.69,86.21,24a1,1,0,0,1-.69,1.66H79.2a1,1,0,0,1-1-1V18.38A1,1,0,0,1,79.89,17.69Z" style="fill:#fff"/><path d="M40.43,68.15H31.59a1.33,1.33,0,0,0,0,2.66h8.85a1.33,1.33,0,1,0,0-2.66Z" style="fill:#fff"/><path d="M40.43,75.23H31.59a1.33,1.33,0,0,0,0,2.66h8.85a1.33,1.33,0,1,0,0-2.66Z" style="fill:#fff"/><path d="M51.27,58.38a1.31,1.31,0,0,0-1.77.53l0,0a19.72,19.72,0,1,0,3.25-4.53,1.33,1.33,0,1,0,1.91,1.84,17,17,0,1,1-2.83,3.92,1.31,1.31,0,0,0-.51-1.77Z" style="fill:#fff"/><path d="M60.71,77.41h0a.93.93,0,0,1,.43-.8,6,6,0,0,0,3-5.05A12.87,12.87,0,0,0,64,69.7a.3.3,0,0,0-.29-.25h-1.9a1,1,0,0,1-1-1h0a1,1,0,0,1,1-1h1.52a.29.29,0,0,0,.29-.34,18.63,18.63,0,0,1-.28-2.93,5.56,5.56,0,0,1,5.81-5.88,7.58,7.58,0,0,1,2.44.36,1,1,0,0,1,.62,1.18l-.05.16a1,1,0,0,1-1.17.65,6.37,6.37,0,0,0-1.82-.25c-2.36,0-3.32,1.63-3.32,3.78a15.36,15.36,0,0,0,.32,3,.29.29,0,0,0,.29.24h3.16a1,1,0,0,1,1,1h0a1,1,0,0,1-1,1H66.78a.29.29,0,0,0-.3.29v0a9.72,9.72,0,0,1-.14,3.07,6.31,6.31,0,0,1-2.09,3.27v.06h8.06a1,1,0,0,1,1,1v.3a1,1,0,0,1-1,1H61.66A1,1,0,0,1,60.71,77.41Z" style="fill:#fff"/><path d="M42.81,12.83a1.31,1.31,0,0,0-1.31-1.31H13.18a1.31,1.31,0,0,0-1.31,1.31v7.08a1.31,1.31,0,0,0,1.31,1.31H41.51a1.31,1.31,0,0,0,1.31-1.31ZM40.2,18.58H14.5V14.15H40.2Z" style="fill:#fff"/><path d="M20.16,24.18a1.31,1.31,0,0,0-1.31-1.31H13.18a1.31,1.31,0,0,0-1.31,1.31v5.66a1.31,1.31,0,0,0,1.31,1.31h5.66a1.31,1.31,0,0,0,1.31-1.31Zm-2.66,4.34h-3v-3h3Z" style="fill:#fff"/><path d="M31.49,24.18a1.31,1.31,0,0,0-1.31-1.31H24.53a1.31,1.31,0,0,0-1.31,1.31v5.66a1.31,1.31,0,0,0,1.31,1.31h5.66a1.31,1.31,0,0,0,1.31-1.31Zm-2.66,4.34h-3v-3h3Z" style="fill:#fff"/><path d="M42.81,24.18a1.31,1.31,0,0,0-1.31-1.31H35.83a1.31,1.31,0,0,0-1.31,1.31v5.66a1.31,1.31,0,0,0,1.31,1.31h5.67a1.31,1.31,0,0,0,1.31-1.31ZM40.2,28.5h-3v-3h3Z" style="fill:#fff"/><path d="M20.16,35.48a1.31,1.31,0,0,0-1.31-1.31H13.18a1.31,1.31,0,0,0-1.31,1.31v5.67a1.31,1.31,0,0,0,1.31,1.31h5.66a1.31,1.31,0,0,0,1.31-1.31Zm-2.65,4.37h-3v-3h3Z" style="fill:#fff"/><path d="M31.49,35.48a1.31,1.31,0,0,0-1.31-1.31H24.53a1.31,1.31,0,0,0-1.31,1.31v5.67a1.31,1.31,0,0,0,1.31,1.31h5.66a1.31,1.31,0,0,0,1.31-1.31Zm-2.65,4.37h-3v-3h3Z" style="fill:#fff"/><path d="M18.84,45.49H13.18a1.31,1.31,0,0,0-1.31,1.31v5.66a1.31,1.31,0,0,0,1.31,1.31h5.66a1.31,1.31,0,0,0,1.31-1.31V46.81a1.31,1.31,0,0,0-1.29-1.33Zm-1.31,5.66h-3v-3h3Z" style="fill:#fff"/><path d="M30.17,45.49H24.53a1.31,1.31,0,0,0-1.31,1.31v5.66a1.31,1.31,0,0,0,1.31,1.31h5.66a1.31,1.31,0,0,0,1.31-1.31V46.81a1.31,1.31,0,0,0-1.29-1.33Zm-1.31,5.66h-3v-3h3Z" style="fill:#fff"/><path d="M41.51,34.16H35.83a1.31,1.31,0,0,0-1.31,1.31v17a1.31,1.31,0,0,0,1.31,1.31h5.67a1.31,1.31,0,0,0,1.31-1.31v-17A1.31,1.31,0,0,0,41.51,34.16Zm-1.31,17h-3V36.77h3Z" style="fill:#fff"/><path d="M63.3,21.57a1.31,1.31,0,0,0-.65-.37l-4.92-1L55.36,17.6a1.32,1.32,0,0,0-2,1.78s2.73,3,2.82,3l.84,4.36a1.31,1.31,0,0,0,.37.65L78.58,48.6a4,4,0,0,0,5.64,0h0l.25-.25a4,4,0,0,0,0-5.64l-.19-.19,2.06-2.06a1.34,1.34,0,0,0,0-1.89h0l-7.26-6.87a1.33,1.33,0,0,0-1.83,1.93l6.24,5.93-1.1,1.1ZM59.05,23.2l2.66.53,12.8,12.8-2.13,2.13-12.8-12.8ZM82.56,46.48l-.25.25a1.31,1.31,0,0,1-1.85,0l0,0L74.26,40.5l2.13-2.13,6.2,6.2a1.31,1.31,0,0,1,0,1.85l0,0Z" style="fill:#fff"/></svg>