<svg id="Layer_1" data-name="Layer 1" xmlns="http://www.w3.org/2000/svg" width="100" height="100" viewBox="0 0 100 100"><title>About us</title><path d="M74.08,75.32a6.48,6.48,0,0,0-8.73-2.47l-11,5.82h0A10.86,10.86,0,0,1,49.75,80a6,6,0,0,0-5.29-8.89h-9c-6.07,0-11.24,2-14.82,5.67v-2a3.33,3.33,0,0,0-3.33-3.33H4.77A1.57,1.57,0,0,0,3.2,73V96.76a1.57,1.57,0,0,0,1.57,1.57l12.57,0A3.33,3.33,0,0,0,20.67,95V93.47L27,95.13a20.09,20.09,0,0,0,5.07.65H46.49a14,14,0,0,0,6.63-1.68l18.41-9.8a6.51,6.51,0,0,0,2.54-9ZM3,95.2H6.33V74.6h11a.2.2,0,0,1,.2.2v6.63a1.56,1.56,0,0,0,0,.25V95a.2.2,0,0,1-.2.2H6.18ZM71.69,79.49a3.35,3.35,0,0,1-1.63,2l-18.41,9.8a10.86,10.86,0,0,1-5.15,1.31H32.1a17,17,0,0,1-4.28-.55l-7.15-1.87v-8.3c2.76-4.91,8.14-7.72,14.82-7.72h9a2.89,2.89,0,0,1,0,5.77H33.77a1.57,1.57,0,0,0,0,3.13H49.13a14,14,0,0,0,6.64-1.68l11-5.82h0a3.38,3.38,0,0,1,4.86,3.89Z" style="fill:#213e7a"/><path d="M25.45,26a6.48,6.48,0,0,0,8.73,2.47l11-5.82h0a10.86,10.86,0,0,1,4.54-1.29,6,6,0,0,0,5.29,8.89h9c6.07,0,11.24-2,14.82-5.67v2a3.33,3.33,0,0,0,3.33,3.33H94.76a1.57,1.57,0,0,0,1.57-1.57V4.57A1.57,1.57,0,0,0,94.76,3L82.18,3a3.33,3.33,0,0,0-3.33,3.33V7.86L72.49,6.21a20.09,20.09,0,0,0-5.07-.65H53A14,14,0,0,0,46.4,7.23L28,17a6.51,6.51,0,0,0-2.54,9Zm71-19.88H93.19V26.73h-11a.2.2,0,0,1-.2-.2V19.9a1.56,1.56,0,0,0,0-.25V6.31a.2.2,0,0,1,.2-.2H93.35ZM27.84,21.84a3.35,3.35,0,0,1,1.63-2L47.88,10A10.86,10.86,0,0,1,53,8.69H67.43a17,17,0,0,1,4.28.55l7.15,1.87v8.3c-2.76,4.91-8.14,7.72-14.82,7.72h-9a2.89,2.89,0,0,1,0-5.77H65.76a1.57,1.57,0,1,0,0-3.13H50.4a14,14,0,0,0-6.64,1.68l-11,5.82h0a3.38,3.38,0,0,1-4.86-3.89Z" style="fill:#213e7a"/><path d="M66.65,45a17.16,17.16,0,0,0-31.57,0,17.13,17.13,0,0,0,0,13.33,16.93,16.93,0,0,0,9.13,9.11A17.17,17.17,0,0,0,68,51.64,16.68,16.68,0,0,0,66.65,45ZM45.17,37.71a18.24,18.24,0,0,0-3.26,7.14H37.42a15.37,15.37,0,0,1,7.74-7.14ZM35.81,51.64a14.86,14.86,0,0,1,.77-4.72h4.91a31.32,31.32,0,0,0,0,9.41H36.54a15.27,15.27,0,0,1-.73-4.69Zm1.61,6.75H41.9a18.11,18.11,0,0,0,3.26,7.22,15.09,15.09,0,0,1-7.74-7.22Zm12.39,8.15a6.56,6.56,0,0,1-3.39-2.72,16.25,16.25,0,0,1-2.36-5.44h5.76Zm0-10.22H43.59a32.47,32.47,0,0,1-.38-4.69,26.77,26.77,0,0,1,.41-4.72h6.19Zm0-11.47H44.06a16.89,16.89,0,0,1,2.4-5.38,6.39,6.39,0,0,1,3.36-2.7Zm14.51,0H59.85a18.24,18.24,0,0,0-3.26-7.14,15.37,15.37,0,0,1,7.74,7.14ZM51.93,36.77a6.39,6.39,0,0,1,3.36,2.7,16.89,16.89,0,0,1,2.4,5.38H51.93Zm0,10.14h6.19a26.78,26.78,0,0,1,.41,4.72,32.74,32.74,0,0,1-.37,4.69H51.93Zm0,19.63V58.39h5.76a17,17,0,0,1-2.38,5.44,6.27,6.27,0,0,1-3.37,2.72Zm4.65-.94a18.11,18.11,0,0,0,3.26-7.22h4.48a15.09,15.09,0,0,1-7.74,7.22Zm8.62-9.28H60.26a31.33,31.33,0,0,0,0-9.41h4.91a14.86,14.86,0,0,1,.77,4.72,15.28,15.28,0,0,1-.73,4.69Zm0,0" style="fill:#213e7a"/></svg>