<svg id="Layer_1" data-name="Layer 1" xmlns="http://www.w3.org/2000/svg" width="100" height="100" viewBox="0 0 100 100"><title>About us</title><path d="M38.65,42.81a7.7,7.7,0,1,0,7.7,7.7A7.71,7.71,0,0,0,38.65,42.81Zm0,12.8a5.11,5.11,0,1,1,3.6-1.5A5.08,5.08,0,0,1,38.65,55.62Z" style="fill:#213e7a"/><path d="M56,51.62a7.7,7.7,0,1,0,7.7,7.7A7.71,7.71,0,0,0,56,51.62Zm0,12.8a5.1,5.1,0,1,1,3.6-1.5A5.09,5.09,0,0,1,56,64.42Z" style="fill:#213e7a"/><path d="M56.73,49.51a7.7,7.7,0,1,0-7.7-7.7A7.71,7.71,0,0,0,56.73,49.51Zm0-12.8a5.11,5.11,0,1,1-3.61,1.49A5.08,5.08,0,0,1,56.73,36.71Z" style="fill:#213e7a"/><path d="M74.08,75.32a6.48,6.48,0,0,0-8.73-2.47l-11,5.82h0A10.86,10.86,0,0,1,49.75,80a6,6,0,0,0-5.29-8.89h-9c-6.07,0-11.24,2-14.82,5.67v-2a3.33,3.33,0,0,0-3.33-3.33H4.77A1.57,1.57,0,0,0,3.2,73V96.76a1.57,1.57,0,0,0,1.57,1.57l12.57,0A3.33,3.33,0,0,0,20.67,95V93.47L27,95.13a20.09,20.09,0,0,0,5.07.65H46.49a14,14,0,0,0,6.63-1.68l18.41-9.8a6.51,6.51,0,0,0,2.54-9ZM3,95.2H6.33V74.6h11a.2.2,0,0,1,.2.2v6.63a1.56,1.56,0,0,0,0,.25V95a.2.2,0,0,1-.2.2H6.18ZM71.69,79.49a3.35,3.35,0,0,1-1.63,2l-18.41,9.8a10.86,10.86,0,0,1-5.15,1.31H32.1a17,17,0,0,1-4.28-.55l-7.15-1.87v-8.3c2.76-4.91,8.14-7.72,14.82-7.72h9a2.89,2.89,0,0,1,0,5.77H33.77a1.57,1.57,0,0,0,0,3.13H49.13a14,14,0,0,0,6.64-1.68l11-5.82h0a3.38,3.38,0,0,1,4.86,3.89Z" style="fill:#213e7a"/><path d="M25.45,26a6.48,6.48,0,0,0,8.73,2.47l11-5.82h0a10.86,10.86,0,0,1,4.54-1.29,6,6,0,0,0,5.29,8.89h9c6.07,0,11.24-2,14.82-5.67v2a3.33,3.33,0,0,0,3.33,3.33H94.76a1.57,1.57,0,0,0,1.57-1.57V4.57A1.57,1.57,0,0,0,94.76,3L82.18,3a3.33,3.33,0,0,0-3.33,3.33V7.86L72.49,6.21a20.09,20.09,0,0,0-5.07-.65H53A14,14,0,0,0,46.4,7.23L28,17a6.51,6.51,0,0,0-2.54,9Zm71-19.88H93.19V26.73h-11a.2.2,0,0,1-.2-.2V19.9a1.56,1.56,0,0,0,0-.25V6.31a.2.2,0,0,1,.2-.2H93.35ZM27.84,21.84a3.35,3.35,0,0,1,1.63-2L47.88,10A10.86,10.86,0,0,1,53,8.69H67.43a17,17,0,0,1,4.28.55l7.15,1.87v8.3c-2.76,4.91-8.14,7.72-14.82,7.72h-9a2.89,2.89,0,0,1,0-5.77H65.76a1.57,1.57,0,1,0,0-3.13H50.4a14,14,0,0,0-6.64,1.68l-11,5.82h0a3.38,3.38,0,0,1-4.86-3.89Z" style="fill:#213e7a"/></svg>