<svg id="Layer_1" data-name="Layer 1" xmlns="http://www.w3.org/2000/svg" width="100" height="100" viewBox="0 0 100 100"><title>About us</title><path d="M74.08,75.32a6.48,6.48,0,0,0-8.73-2.47l-11,5.82h0A10.86,10.86,0,0,1,49.75,80a6,6,0,0,0-5.29-8.89h-9c-6.07,0-11.24,2-14.82,5.67v-2a3.33,3.33,0,0,0-3.33-3.33H4.77A1.57,1.57,0,0,0,3.2,73V96.76a1.57,1.57,0,0,0,1.57,1.57l12.57,0A3.33,3.33,0,0,0,20.67,95V93.47L27,95.13a20.09,20.09,0,0,0,5.07.65H46.49a14,14,0,0,0,6.63-1.68l18.41-9.8a6.51,6.51,0,0,0,2.54-9ZM3,95.2H6.33V74.6h11a.2.2,0,0,1,.2.2v6.63a1.56,1.56,0,0,0,0,.25V95a.2.2,0,0,1-.2.2H6.18ZM71.69,79.49a3.35,3.35,0,0,1-1.63,2l-18.41,9.8a10.86,10.86,0,0,1-5.15,1.31H32.1a17,17,0,0,1-4.28-.55l-7.15-1.87v-8.3c2.76-4.91,8.14-7.72,14.82-7.72h9a2.89,2.89,0,0,1,0,5.77H33.77a1.57,1.57,0,0,0,0,3.13H49.13a14,14,0,0,0,6.64-1.68l11-5.82h0a3.38,3.38,0,0,1,4.86,3.89Z" style="fill:#213e7a"/><path d="M25.45,26a6.48,6.48,0,0,0,8.73,2.47l11-5.82h0a10.86,10.86,0,0,1,4.54-1.29,6,6,0,0,0,5.29,8.89h9c6.07,0,11.24-2,14.82-5.67v2a3.33,3.33,0,0,0,3.33,3.33H94.76a1.57,1.57,0,0,0,1.57-1.57V4.57A1.57,1.57,0,0,0,94.76,3L82.18,3a3.33,3.33,0,0,0-3.33,3.33V7.86L72.49,6.21a20.09,20.09,0,0,0-5.07-.65H53A14,14,0,0,0,46.4,7.23L28,17a6.51,6.51,0,0,0-2.54,9Zm71-19.88H93.19V26.73h-11a.2.2,0,0,1-.2-.2V19.9a1.56,1.56,0,0,0,0-.25V6.31a.2.2,0,0,1,.2-.2H93.35ZM27.84,21.84a3.35,3.35,0,0,1,1.63-2L47.88,10A10.86,10.86,0,0,1,53,8.69H67.43a17,17,0,0,1,4.28.55l7.15,1.87v8.3c-2.76,4.91-8.14,7.72-14.82,7.72h-9a2.89,2.89,0,0,1,0-5.77H65.76a1.57,1.57,0,1,0,0-3.13H50.4a14,14,0,0,0-6.64,1.68l-11,5.82h0a3.38,3.38,0,0,1-4.86-3.89Z" style="fill:#213e7a"/><polygon points="62.75 54.66 62.75 54.66 62.75 54.66 62.75 54.66" style="fill:#213e7a"/><polygon points="37.17 54.85 37.17 54.85 37.17 54.85 37.17 54.85" style="fill:#213e7a"/><path d="M64.81,37.13a10.09,10.09,0,0,0-7-2.88,9.79,9.79,0,0,0-4.5,1.09A9.67,9.67,0,0,0,50,38.06a9.65,9.65,0,0,0-3.31-2.73,9.79,9.79,0,0,0-4.5-1.09,10.09,10.09,0,0,0-7,2.88,9.94,9.94,0,0,0-2.9,7,15.12,15.12,0,0,0,.87,5,10.26,10.26,0,0,0,1.08,2.13h0c.48.73.92,1.35,1.29,1.84h0a17.47,17.47,0,0,0,1.64,1.81c.72.7,1.3,1.25,1.73,1.64s1.08,1,1.94,1.71S42.53,59.69,43,60.1h0c.44.39,1.07,1,1.91,1.8A29.3,29.3,0,0,1,49,66.67a1.23,1.23,0,0,0,1,.57,1.26,1.26,0,0,0,1.08-.58h0a29.66,29.66,0,0,1,2.62-3.39h0q1.53-1.72,2.55-2.66c.69-.64,1.68-1.54,3-2.69.79-.71,1.42-1.24,1.86-1.63h0c.43-.4,1-.93,1.68-1.63a21.63,21.63,0,0,0,1.63-1.79h0c.4-.51.82-1.12,1.3-1.84a11.61,11.61,0,0,0,1.76-4.36,12.27,12.27,0,0,0,.27-2.56A10,10,0,0,0,64.81,37.13Zm-3,14.8c-.77.86-2.21,2.24-4.31,4.1-1.09,1-2,1.77-2.66,2.4h0q-1,.93-2.48,2.5h0A31.52,31.52,0,0,0,50,63.77,36,36,0,0,0,47.54,61c-1-1-1.79-1.82-2.37-2.35h0l-2.66-2.36-1.28-1.13-1.17-1.06c-.5-.46-.89-.83-1.13-1.1h0l-1-1.08h0a9.2,9.2,0,0,1-.9-1.12h0a11.86,11.86,0,0,1-1.38-2.37h0l-.43-1.32a9.46,9.46,0,0,1-.4-3A7,7,0,0,1,37,39a7.35,7.35,0,0,1,9.15-1A7.28,7.28,0,0,1,48.86,41a1.19,1.19,0,0,0,1.14.72A1.23,1.23,0,0,0,51.17,41h0A7.26,7.26,0,0,1,53.85,38,7.37,7.37,0,0,1,63,39a7,7,0,0,1,2.16,5.17A11,11,0,0,1,65,46h0A12.06,12.06,0,0,1,61.81,51.92Z" style="fill:#213e7a"/></svg>