<svg id="Layer_1" data-name="Layer 1" xmlns="http://www.w3.org/2000/svg" width="50" height="50" viewBox="0 0 50 50"><title>quotation-mark</title><path d="M32.88,43v1h9.57a5.64,5.64,0,0,0,4.1-1.69h0a5.64,5.64,0,0,0,1.69-4.1V28.63a5.63,5.63,0,0,0-1.69-4.1h0a5.63,5.63,0,0,0-4.1-1.69H36.87a1.3,1.3,0,0,1-1-.41h0a1.3,1.3,0,0,1-.41-1v-.8a5.14,5.14,0,0,1,1.58-3.81h0a5.14,5.14,0,0,1,3.8-1.58h1.6a2.62,2.62,0,0,0,2.6-2.6V9.49a2.55,2.55,0,0,0-.77-1.83h0a2.55,2.55,0,0,0-1.83-.77h-1.6A13.44,13.44,0,0,0,35.52,8h0a13.64,13.64,0,0,0-7.33,7.33h0a13.45,13.45,0,0,0-1.09,5.34V38.21a5.63,5.63,0,0,0,1.69,4.1h0A5.63,5.63,0,0,0,32.88,44V42a3.61,3.61,0,0,1-2.68-1.1h0a3.6,3.6,0,0,1-1.1-2.68V20.66A11.44,11.44,0,0,1,30,16.1h0A11.65,11.65,0,0,1,36.3,9.82h0a11.43,11.43,0,0,1,4.55-.93h1.6a.53.53,0,0,1,.42.18h0a.52.52,0,0,1,.18.41v3.19a.62.62,0,0,1-.6.6h-1.6a7.16,7.16,0,0,0-5.22,2.16h0a7.16,7.16,0,0,0-2.16,5.22v.8a3.33,3.33,0,0,0,1,2.4h0a3.33,3.33,0,0,0,2.4,1h5.58A3.61,3.61,0,0,1,45.14,26h0a3.6,3.6,0,0,1,1.1,2.68v9.57a3.61,3.61,0,0,1-1.1,2.68h0A3.61,3.61,0,0,1,42.45,42H32.88Z" style="fill:#223f7a"/><path d="M4.16,41.6l-.71.71A5.63,5.63,0,0,0,7.54,44h9.57a5.63,5.63,0,0,0,4.1-1.69h0a5.63,5.63,0,0,0,1.69-4.1V28.63a5.76,5.76,0,0,0-5.79-5.79H11.53a1.3,1.3,0,0,1-1-.41h0a1.29,1.29,0,0,1-.41-1v-.8a5.38,5.38,0,0,1,5.38-5.38h1.6a2.55,2.55,0,0,0,1.83-.77h0a2.55,2.55,0,0,0,.77-1.83V9.49a2.55,2.55,0,0,0-.77-1.83h0a2.55,2.55,0,0,0-1.83-.77h-1.6A13.43,13.43,0,0,0,10.18,8h0a13.84,13.84,0,0,0-4.39,2.94h0a13.83,13.83,0,0,0-2.94,4.39h0a13.41,13.41,0,0,0-1.09,5.34V38.21a5.62,5.62,0,0,0,1.69,4.1h0l.71-.71.71-.71a3.6,3.6,0,0,1-1.1-2.68V20.66a11.4,11.4,0,0,1,.93-4.55h0A11.82,11.82,0,0,1,7.2,12.34h0A11.84,11.84,0,0,1,11,9.82h0a11.42,11.42,0,0,1,4.55-.93h1.6a.53.53,0,0,1,.42.18h0a.53.53,0,0,1,.18.41v3.19a.53.53,0,0,1-.18.42h0a.53.53,0,0,1-.41.18h-1.6a7.38,7.38,0,0,0-7.38,7.38v.8a3.32,3.32,0,0,0,1,2.4h0a3.32,3.32,0,0,0,2.4,1h5.58a3.76,3.76,0,0,1,3.79,3.79v9.57a3.61,3.61,0,0,1-1.1,2.68h0A3.61,3.61,0,0,1,17.12,42H7.54a3.6,3.6,0,0,1-2.68-1.1h0Z" style="fill:#223f7a"/></svg>