<svg id="Layer_1" data-name="Layer 1" xmlns="http://www.w3.org/2000/svg" width="100" height="100" viewBox="0 0 100 100"><title>services</title><rect x="21.14" y="48.68" width="2.62" height="2.62" style="fill:#213e7a"/><rect x="18.52" y="44.74" width="2.62" height="2.62" style="fill:#213e7a"/><rect x="30.32" y="51.3" width="2.62" height="2.62" style="fill:#213e7a"/><rect x="35.57" y="48.68" width="2.62" height="2.62" style="fill:#213e7a"/><path d="M73.61,71a7.87,7.87,0,1,0,7.87,7.87A7.88,7.88,0,0,0,73.61,71Zm1.31,12.93V81.47H72.3v2.44a5.24,5.24,0,0,1-2.43-1.39L72,81.29,70.68,79l-2.11,1.22a5.26,5.26,0,0,1-.21-1.39,5.19,5.19,0,0,1,.21-1.39l2.11,1.22L72,76.4l-2.12-1.23a5.23,5.23,0,0,1,2.43-1.39v2.44h2.62V73.79a5.24,5.24,0,0,1,2.43,1.39L75.23,76.4l1.31,2.27,2.11-1.22a5.26,5.26,0,0,1,.21,1.39,5.19,5.19,0,0,1-.21,1.39L76.54,79l-1.31,2.27,2.12,1.23A5.24,5.24,0,0,1,74.92,83.91Z" style="fill:#213e7a"/><path d="M88,89.34V65.73H85.42V57.86H81.48v-15a9.14,9.14,0,0,0-3-12.45L66.66,17.19a9.17,9.17,0,0,0-16.49-2.36L34.9,29.34a6.89,6.89,0,0,0-1.06,8.72l-7.06,7.06L28.63,47l7-7a6.84,6.84,0,0,0,8.7-.53L55.89,28.78A9,9,0,0,0,57.1,29l7.37,8.3a9,9,0,0,0,0,.93,9.12,9.12,0,0,0,1.31,4.71v15H61.81v7.87H59.18V89.34H35.57V65.73H32.95V63.11h2.62V60.48H32.82a6.57,6.57,0,0,0-6.43-5.25H14.58v5.25H12v2.62h2.62v2.62H12V89.34H9.34V92H90.66V89.34ZM17.21,57.86h9.18a3.93,3.93,0,0,1,3.69,2.62H17.21Zm0,5.25H30.32v2.62H17.21ZM14.58,89.34V78.85H27.7V76.22H14.58V68.35H32.95v7.87H30.32v2.62h2.62V89.34ZM80.17,38.18a6.56,6.56,0,1,1-6.56-6.56A6.57,6.57,0,0,1,80.17,38.18ZM57.87,13.26a6.56,6.56,0,0,1,0,13.12h0a6.56,6.56,0,0,1,0-13.12ZM42.57,37.5a4.29,4.29,0,0,1-5.87-6.26l12-11.39a9.17,9.17,0,0,0,4.5,7.85Zm17.76-8.85a9.2,9.2,0,0,0,6.57-7.26L73.72,29h-.11a9.18,9.18,0,0,0-8.29,5.26Zm8,17.05a9.13,9.13,0,0,0,10.49,0V57.86H68.36ZM64.43,60.48H82.79v5.25H64.43ZM61.81,89.34v-21H85.42v21Z" style="fill:#213e7a"/></svg>