<svg id="Layer_1" data-name="Layer 1" xmlns="http://www.w3.org/2000/svg" width="100" height="100" viewBox="0 0 100 100"><title>services</title><path d="M76,45.9H59.55a1.29,1.29,0,0,1-1.37-1.37V33.59a1.29,1.29,0,0,1,1.37-1.37H76a1.29,1.29,0,0,1,1.37,1.37V44.53A1.29,1.29,0,0,1,76,45.9Zm-15-2.73H74.59V35H60.92Z" style="fill:#213e7a"/><path d="M63.65,41.8a1.29,1.29,0,0,1-1.37-1.37V37.69a1.37,1.37,0,1,1,2.73,0v2.73A1.29,1.29,0,0,1,63.65,41.8Z" style="fill:#213e7a"/><path d="M67.75,41.8a1.29,1.29,0,0,1-1.37-1.37V37.69a1.37,1.37,0,1,1,2.73,0v2.73A1.29,1.29,0,0,1,67.75,41.8Z" style="fill:#213e7a"/><path d="M71.86,41.8a1.29,1.29,0,0,1-1.37-1.37V37.69a1.37,1.37,0,1,1,2.73,0v2.73A1.29,1.29,0,0,1,71.86,41.8Z" style="fill:#213e7a"/><path d="M80.06,91H56.81a1.22,1.22,0,0,1-1.09-.68L47,76.39a5.86,5.86,0,0,1-.82-5.2,6.81,6.81,0,0,1,3.42-4.1L64.47,59a9.59,9.59,0,0,1,7.79,0l15.32,8.07a6.19,6.19,0,0,1,3.28,4.1,6.37,6.37,0,0,1-1,5.2L81.29,90.34A1.63,1.63,0,0,1,80.06,91ZM57.64,88.29H79.38l8.34-13.4a3.48,3.48,0,0,0,.55-3,3.32,3.32,0,0,0-1.91-2.32L71,61.49a7.51,7.51,0,0,0-5.47,0L50.66,69.55a3.77,3.77,0,0,0-2.05,2.32,3.33,3.33,0,0,0,.55,3Z" style="fill:#213e7a"/><path d="M52.85,68.19h0A1.45,1.45,0,0,1,51.48,67L50,52.87a2.58,2.58,0,0,1,.27-1.09c.14-.27.68-.41,1.09-.41H85.53a1.22,1.22,0,0,1,1.23,1.5L85.12,66.82a1.39,1.39,0,0,1-.68,1.09,1,1,0,0,1-1.23,0L70.9,61.49a7.51,7.51,0,0,0-5.47,0l-12,6.56C53.4,68.19,53.12,68.19,52.85,68.19Zm0-1.37Zm0-12.72,1.09,10.53L64.34,59a9.59,9.59,0,0,1,7.79,0l10.53,5.61,1.23-10.39h-31Z" style="fill:#213e7a"/><path d="M39,91H17.16a1.29,1.29,0,0,1-1.37-1.37V67.78a1.29,1.29,0,0,1,1.37-1.37H39a1.29,1.29,0,0,1,1.37,1.37V89.66A1.29,1.29,0,0,1,39,91ZM18.53,88.29H37.67V69.14H18.53Z" style="fill:#213e7a"/><path d="M39,69.14H17.16a1.69,1.69,0,0,1-1.09-.55,1.23,1.23,0,0,1-.14-1.37L20,56.29a1.38,1.38,0,0,1,1.23-.82H34.94a1.38,1.38,0,0,1,1.23.82l4.1,10.94a1.28,1.28,0,0,1-.14,1.23A1.39,1.39,0,0,1,39,69.14Zm-20-2.73H37l-3-8.2H22.22Z" style="fill:#213e7a"/><path d="M26.73,51.37H13.06A1.69,1.69,0,0,1,12,50.82l-2.73-4.1A1.94,1.94,0,0,1,9,45.9v-8.2a1.29,1.29,0,0,1,1.37-1.37H26.73a1.29,1.29,0,0,1,1.37,1.37V50A1.29,1.29,0,0,1,26.73,51.37Zm-13-2.73H25.36V39.06H11.69v6.43Z" style="fill:#213e7a"/><path d="M67.75,22.65a6.84,6.84,0,1,1,6.84-6.84A6.77,6.77,0,0,1,67.75,22.65Zm0-10.94a4.1,4.1,0,1,0,4.1,4.1A4,4,0,0,0,67.75,11.71Z" style="fill:#213e7a"/><path d="M67.75,29.49a1.29,1.29,0,0,1-1.37-1.37V21.28a1.37,1.37,0,0,1,2.73,0v6.84A1.29,1.29,0,0,1,67.75,29.49Z" style="fill:#213e7a"/><path d="M60.92,35a1.24,1.24,0,0,1-1.09-.55,1.34,1.34,0,0,1,.27-1.91L66.93,27a1.37,1.37,0,1,1,1.64,2.19l-6.84,5.47A1.94,1.94,0,0,1,60.92,35Z" style="fill:#213e7a"/><path d="M74.59,35a1.94,1.94,0,0,1-.82-.27l-6.84-5.47A1.37,1.37,0,1,1,68.57,27l6.84,5.47a1.47,1.47,0,0,1,.27,1.91A1.24,1.24,0,0,1,74.59,35Z" style="fill:#213e7a"/><path d="M80.06,91H56.81a1.22,1.22,0,0,1-1.09-.68l-4.79-7.66a1.45,1.45,0,0,1-.14-1.09,1.4,1.4,0,0,1,.68-.82L64.75,74.2a8.69,8.69,0,0,1,7.79,0h0l13,6.56c.41.14.55.55.68.82a1.45,1.45,0,0,1-.14,1.09l-4.79,7.79A2,2,0,0,1,80.06,91ZM57.64,88.29H79.38l3.56-5.88L71.31,76.53a6.38,6.38,0,0,0-5.47,0l-11.9,5.88Z" style="fill:#213e7a"/><path d="M86.9,54.1H48.61a1.29,1.29,0,0,1-1.37-1.37v-8.2a1.29,1.29,0,0,1,1.37-1.37H86.9a1.29,1.29,0,0,1,1.37,1.37v8.2A1.29,1.29,0,0,1,86.9,54.1ZM50,51.37H85.53V45.9H50Z" style="fill:#213e7a"/><path d="M34.94,58.2H21.26a1.29,1.29,0,0,1-1.37-1.37V50a1.29,1.29,0,0,1,1.37-1.37h4.1V45.9a1.29,1.29,0,0,1,1.37-1.37h8.2A1.29,1.29,0,0,1,36.3,45.9V56.84A1.29,1.29,0,0,1,34.94,58.2ZM22.63,55.47H33.57v-8.2H28.1V50a1.29,1.29,0,0,1-1.37,1.37h-4.1Z" style="fill:#213e7a"/><path d="M34.94,47.27h-8.2a1.29,1.29,0,0,1-1.37-1.37v-8.2A1.63,1.63,0,0,1,26,36.46L61.6,14.58a1.24,1.24,0,0,1,1.37,0,1.44,1.44,0,0,1,.68,1.23,4,4,0,0,0,4.1,4.1,1.31,1.31,0,0,1,1.23,1,1.46,1.46,0,0,1-.41,1.5L35.76,47A1.94,1.94,0,0,1,34.94,47.27ZM28.1,44.53h6.43L64.61,22a7.8,7.8,0,0,1-3.42-3.83L28.1,38.51Z" style="fill:#213e7a"/><path d="M69.12,15.81a1.37,1.37,0,1,0-1.37,1.37,1.29,1.29,0,0,0,1.37-1.37" style="fill:#213e7a"/><path d="M25.36,85.55h-8.2a1.37,1.37,0,1,1,0-2.73h8.2a1.37,1.37,0,1,1,0,2.73Z" style="fill:#213e7a"/><path d="M22.63,80.08H17.16a1.37,1.37,0,1,1,0-2.73h5.47a1.37,1.37,0,0,1,0,2.73Z" style="fill:#213e7a"/></svg>