<svg id="Layer_1" data-name="Layer 1" xmlns="http://www.w3.org/2000/svg" width="100" height="100" viewBox="0 0 100 100"><title>services</title><path d="M45.86,84.47a1.3,1.3,0,0,1-1.38-1.38V55.53a1.38,1.38,0,0,1,2.76,0h0V83.09A1.3,1.3,0,0,1,46,84.47Z" style="fill:#213e7a"/><path d="M37.59,84.47a1.3,1.3,0,0,1-1.38-1.38V55.53a1.38,1.38,0,0,1,2.76,0h0V83.09a1.3,1.3,0,0,1-1.22,1.38Z" style="fill:#213e7a"/><path d="M29.32,84.47a1.3,1.3,0,0,1-1.38-1.38V55.53a1.38,1.38,0,0,1,2.76,0V83.09a1.3,1.3,0,0,1-1.22,1.38Z" style="fill:#213e7a"/><path d="M21,84.47a1.3,1.3,0,0,1-1.38-1.38V55.53a1.38,1.38,0,0,1,2.76,0V83.09a1.3,1.3,0,0,1-1.22,1.38Z" style="fill:#213e7a"/><path d="M79,84.47a1.3,1.3,0,0,1-1.38-1.38V55.53a1.38,1.38,0,0,1,2.76,0V83.09a1.3,1.3,0,0,1-1.22,1.38Z" style="fill:#213e7a"/><path d="M70.68,84.47a1.3,1.3,0,0,1-1.38-1.38V55.53a1.38,1.38,0,0,1,2.76,0V83.09a1.3,1.3,0,0,1-1.22,1.38Z" style="fill:#213e7a"/><path d="M62.41,84.47A1.3,1.3,0,0,1,61,83.09V55.53a1.38,1.38,0,0,1,2.76,0V83.09a1.3,1.3,0,0,1-1.22,1.38Z" style="fill:#213e7a"/><path d="M54.14,84.47a1.3,1.3,0,0,1-1.38-1.38V55.53a1.38,1.38,0,0,1,2.76,0V83.09a1.3,1.3,0,0,1-1.22,1.38Z" style="fill:#213e7a"/><path d="M90,91.36H10A1.3,1.3,0,0,1,8.64,90V87.77a6,6,0,0,1,1.79-4.27h0a3.6,3.6,0,0,0,1-2.34V57.44a3.6,3.6,0,0,0-1-2.34,6,6,0,0,1-1.79-4.27V48.61a1.3,1.3,0,0,1,1.22-1.38H90a1.3,1.3,0,0,1,1.38,1.38v2.22a6,6,0,0,1-1.79,4.27h0a3.6,3.6,0,0,0-1,2.34V81.16a3.23,3.23,0,0,0,1,2.34,6,6,0,0,1,1.79,4.27V90a1.3,1.3,0,0,1-1.23,1.37ZM11.4,88.6H88.6v-.83a3.23,3.23,0,0,0-1-2.34,6,6,0,0,1-1.79-4.27V57.44a6,6,0,0,1,1.81-4.28h0a3.92,3.92,0,0,0,1-2.34V50H11.4v.83a3.89,3.89,0,0,0,1,2.34,6.3,6.3,0,0,1,1.79,4.27V81.16a6,6,0,0,1-1.8,4.27h0a3.6,3.6,0,0,0-1,2.34Z" style="fill:#213e7a"/><path d="M51.38,26.56a6.83,6.83,0,0,1-6.89-6.76v-.14a6.89,6.89,0,1,1,7,6.89Zm0-11a4.06,4.06,0,0,0-4.14,4h0q0,.08,0,.15a4.14,4.14,0,0,0,8.27,0,4.06,4.06,0,0,0-4-4.13h-.15Z" style="fill:#213e7a"/><path d="M51.38,41.73A6.83,6.83,0,0,1,44.48,35v-.14a1.38,1.38,0,0,1,2.76,0,4.14,4.14,0,1,0,4.14-4.14h0A1.3,1.3,0,0,1,50,29.32V25.18a1.38,1.38,0,1,1,2.76,0v2.9a6.93,6.93,0,0,1,5.52,6.75,6.83,6.83,0,0,1-6.76,6.89Z" style="fill:#213e7a"/><path d="M45.86,21a1.3,1.3,0,0,1-1.38-1.38V10a1.38,1.38,0,0,1,2.76,0h0v9.65A1.3,1.3,0,0,1,46,21Z" style="fill:#213e7a"/><path d="M56.89,21a1.3,1.3,0,0,1-1.38-1.38V10a1.38,1.38,0,1,1,2.76,0v9.65A1.3,1.3,0,0,1,57.05,21Z" style="fill:#213e7a"/><path d="M14.15,50a1.18,1.18,0,0,1-1.24-1,1.43,1.43,0,0,1,.83-1.79L51,33.45A1.39,1.39,0,0,1,52,36l-.06,0L14.71,49.86A1,1,0,0,1,14.15,50Z" style="fill:#213e7a"/><path d="M52.76,36.76a1,1,0,0,1-.55-.14l-1.38-.57a1.39,1.39,0,0,1,1-2.62l1.38.55A1.43,1.43,0,0,1,54,35.78,1.18,1.18,0,0,1,52.76,36.76Z" style="fill:#213e7a"/><path d="M85.85,50a1,1,0,0,1-.55-.14L59.63,39.66A1.39,1.39,0,1,1,60.52,37l.06,0,25.65,10.2A1.43,1.43,0,0,1,87.06,49,1.18,1.18,0,0,1,85.85,50Z" style="fill:#213e7a"/></svg>