<svg id="Layer_1" data-name="Layer 1" xmlns="http://www.w3.org/2000/svg" width="512" height="512" viewBox="0 0 512 512"><title>container-01</title><path d="M242.94,364.8a4.11,4.11,0,0,1-4.35-4.35v-87a4.35,4.35,0,1,1,8.7,0v87A4.11,4.11,0,0,1,242.94,364.8Z" style="fill:#4cabe8"/><path d="M216.83,364.8a4.11,4.11,0,0,1-4.35-4.35v-87a4.35,4.35,0,1,1,8.7,0v87A4.11,4.11,0,0,1,216.83,364.8Z" style="fill:#4cabe8"/><path d="M190.72,364.8a4.11,4.11,0,0,1-4.35-4.35v-87a4.35,4.35,0,0,1,8.7,0v87A4.11,4.11,0,0,1,190.72,364.8Z" style="fill:#4cabe8"/><path d="M164.61,364.8a4.11,4.11,0,0,1-4.35-4.35v-87a4.35,4.35,0,0,1,8.7,0v87A4.11,4.11,0,0,1,164.61,364.8Z" style="fill:#4cabe8"/><path d="M347.39,364.8a4.11,4.11,0,0,1-4.35-4.35v-87a4.35,4.35,0,1,1,8.7,0v87A4.11,4.11,0,0,1,347.39,364.8Z" style="fill:#4cabe8"/><path d="M321.28,364.8a4.11,4.11,0,0,1-4.35-4.35v-87a4.35,4.35,0,0,1,8.7,0v87A4.11,4.11,0,0,1,321.28,364.8Z" style="fill:#4cabe8"/><path d="M295.17,364.8a4.11,4.11,0,0,1-4.35-4.35v-87a4.35,4.35,0,0,1,8.7,0v87A4.11,4.11,0,0,1,295.17,364.8Z" style="fill:#4cabe8"/><path d="M269.06,364.8a4.11,4.11,0,0,1-4.35-4.35v-87a4.35,4.35,0,0,1,8.7,0v87A4.11,4.11,0,0,1,269.06,364.8Z" style="fill:#4cabe8"/><path d="M382.21,386.56H129.79a4.11,4.11,0,0,1-4.35-4.35v-7a19.09,19.09,0,0,1,5.66-13.49h0c1.74-2.18,3.06-4.35,3.06-7.4V279.5a11.36,11.36,0,0,0-3.06-7.4,19.09,19.09,0,0,1-5.66-13.49v-7a4.11,4.11,0,0,1,4.35-4.35H382.21a4.11,4.11,0,0,1,4.35,4.35v7a19.09,19.09,0,0,1-5.66,13.49h0c-1.74,2.18-3.06,4.35-3.06,7.4v74.85a10.2,10.2,0,0,0,3.06,7.4,19.09,19.09,0,0,1,5.66,13.49v7A4.11,4.11,0,0,1,382.21,386.56Zm-248.06-8.71H377.85v-2.61a10.2,10.2,0,0,0-3.06-7.4,19.09,19.09,0,0,1-5.66-13.49V279.5A19.09,19.09,0,0,1,374.83,266h0a12.38,12.38,0,0,0,3.06-7.4V256H134.15v2.61a12.29,12.29,0,0,0,3.06,7.4,19.89,19.89,0,0,1,5.66,13.49v74.85a19.09,19.09,0,0,1-5.69,13.49h0c-1.74,2.18-3.06,4.35-3.06,7.4Z" style="fill:#4cabe8"/><path d="M260.35,182a21.55,21.55,0,0,1-21.76-21.33q0-.22,0-.43A21.76,21.76,0,1,1,260.78,182Zm0-34.82a12.82,12.82,0,0,0-13.06,12.58q0,.24,0,.47a13.06,13.06,0,0,0,26.11,0,12.82,12.82,0,0,0-12.59-13.05h-.47Z" style="fill:#4cabe8"/><path d="M260.35,229.89a21.55,21.55,0,0,1-21.76-21.33q0-.22,0-.43a4.35,4.35,0,0,1,8.7,0,13.06,13.06,0,1,0,13.06-13.06h0a4.11,4.11,0,0,1-4.35-4.35V177.66a4.35,4.35,0,0,1,8.7,0v9.14a21.89,21.89,0,0,1,17.41,21.32,21.55,21.55,0,0,1-21.33,21.76Z" style="fill:#4cabe8"/><path d="M242.94,164.61a4.11,4.11,0,0,1-4.35-4.35V129.79a4.35,4.35,0,1,1,8.7,0v30.47A4.11,4.11,0,0,1,242.94,164.61Z" style="fill:#4cabe8"/><path d="M277.76,164.61a4.11,4.11,0,0,1-4.35-4.35V129.79a4.35,4.35,0,1,1,8.7,0v30.47A4.11,4.11,0,0,1,277.76,164.61Z" style="fill:#4cabe8"/><path d="M142.85,256a3.73,3.73,0,0,1-3.92-3.06,4.52,4.52,0,0,1,2.61-5.66l117.52-43.51a4.4,4.4,0,1,1,3,8.27L144.59,255.57A3.29,3.29,0,0,1,142.85,256Z" style="fill:#4cabe8"/><path d="M264.71,214.22a3.29,3.29,0,0,1-1.74-.43L258.62,212a4.4,4.4,0,0,1,3-8.27l4.35,1.74a4.52,4.52,0,0,1,2.61,5.66A3.73,3.73,0,0,1,264.71,214.22Z" style="fill:#4cabe8"/><path d="M369.15,256a3.29,3.29,0,0,1-1.74-.43l-81-32.21a4.4,4.4,0,1,1,3-8.27l80.95,32.21a4.52,4.52,0,0,1,2.61,5.66A3.72,3.72,0,0,1,369.15,256Z" style="fill:#4cabe8"/></svg>