<svg id="Layer_1" data-name="Layer 1" xmlns="http://www.w3.org/2000/svg" width="400" height="400" viewBox="0 0 400 400"><title>earth-globe-01</title><path d="M128.63,167.16a3.16,3.16,0,0,0,3.92-2.15h0a76.06,76.06,0,0,1,88.85-53,16.52,16.52,0,0,0,3.12,9.68c.35.56.83,1.32.89,1.43,0,11.35-2.32,13.19-2.3,13.2-5.13,0-13.55,4.58-16.7,10.5a10.11,10.11,0,0,0,.44,10.8,76.57,76.57,0,0,1,4.11,7.29c2.69,5.21,5.67,11,10.36,11a7.21,7.21,0,0,0,3.22-.84c3.66-1.85,6.33-7.1,8.89-12.17,1.13-2.23,2.78-5.51,3.76-6.55,3.21.43,4.77,3.34,6.91,7.94,1.56,3.39,3.18,6.89,6.36,8.47,5.34,2.67,22.93-.13,32.65-4.25a3.16,3.16,0,0,0,1.82-3.74,82.75,82.75,0,0,0-48.27-54.64,3.16,3.16,0,1,0-2.62,5.76l.23.09A76.46,76.46,0,0,1,278,163.68c-9.85,3.47-22.49,4.51-24.74,3.4-1.19-.59-2.39-3.18-3.44-5.46-2.2-4.77-5.25-11.32-12.94-11.66-4-.24-6.23,4.35-9.12,10.08-1.69,3.34-4.26,8.44-6.29,9.44-1.17-.28-3.51-4.77-4.9-7.49a82,82,0,0,0-4.48-7.89,3.78,3.78,0,0,1-.13-4.29c2.17-4.06,8.69-7.16,11.13-7.16,5.73,0,8.62-6.57,8.62-19.53a9,9,0,0,0-1.86-4.77c-1.34-2.12-2.72-4.32-1.91-8.07a3.17,3.17,0,0,0-2.31-3.75,82.21,82.21,0,0,0-99.17,56.71,3.16,3.16,0,0,0,2.16,3.92Z" style="fill:#53aade"/><path d="M243.46,187.92c-.92.26-2.16.62-2.5.64-4.37,0-7.16,3.39-9.17,5.86-.77,1-2.17,2.63-3.06,2.66a9.92,9.92,0,0,0-4.47-1.07c-3.73,0-7,2.22-7.68,5.28-.51,2.15.24,5.1,3.86,6.91,5.14,2.57,10.45,5.23,12.82,7.59,1.63,1.63,4.44,2.56,7.72,2.56,5,0,11.61-2.42,13.89-9.25.9-2.69,3-4.74,5.13-6.73,2.41-2.31,4.69-4.5,4.72-7.64a7.37,7.37,0,0,0-2.43-5.25,12.23,12.23,0,0,0-9-3.34,36.6,36.6,0,0,0-9.83,1.78Zm14.91,6.75c-.15.63-1.72,2.13-2.77,3.14-2.39,2.29-5.36,5.13-6.75,9.31C247.29,211.8,242,212,241,212a5.94,5.94,0,0,1-3.25-.7c-3.09-3.09-8.62-5.86-14.46-8.78h0a3.53,3.53,0,0,1,2.67.22,6.91,6.91,0,0,0,3.12.77c3.5,0,5.73-2.7,7.66-5.08,1.43-1.74,2.9-3.54,4.29-3.54a17.05,17.05,0,0,0,4.23-.89,31,31,0,0,1,8.11-1.54,6,6,0,0,1,4.53,1.5,5.18,5.18,0,0,1,.58.69Z" style="fill:#53aade"/><path d="M287,174.88a3.17,3.17,0,0,0-6.28.87h0a77.31,77.31,0,0,1,.73,10.5,76,76,0,0,1-75,75.94c-11.25-7.19-21.8-16-17.1-26.95,8.44-19.69.59-27-2.77-30.17l-.63-.6a15.08,15.08,0,0,0-3-2.18c-2.31-1.39-2.94-1.76-1.7-5.49a11.82,11.82,0,0,1,3.18-5c2.94-3.07,5.17-6.15,5.17-15.1a11.92,11.92,0,0,0-7.25-11.4c-5.23-2.31-12.2-1.49-15.89,1.86a7.16,7.16,0,0,0-2.12,7.82c2.26,6.76-2.9,16.52-12.53,23.75-2.55,1.91-3.31,1-3.77.51-2.83-3.25-2.61-12.52-.29-14.84a4.69,4.69,0,0,0,1.23-5.31c-2.56-5.81-18.91-5.36-22.16-5.21a3.17,3.17,0,0,0-3,2.78,74.81,74.81,0,0,0-.56,9.59,82.08,82.08,0,0,0,62.48,79.87A3.16,3.16,0,0,0,187.2,260a75.77,75.77,0,0,1-57.66-73.73c0-2.2.08-4.14.24-6.11A47.6,47.6,0,0,1,142,181.48c-3.63,5.67-3.23,16.81,1.21,21.92,3.18,3.66,7.79,3.82,12.35.4,12.15-9.11,17.94-21.21,14.74-30.81-.1-.31-.2-.61.38-1.14,1.67-1.51,5.9-2.15,9.07-.75a5.56,5.56,0,0,1,3.48,5.61c0,7.16-1.43,8.67-3.43,10.78a18,18,0,0,0-4.57,7.33c-2.86,8.55,1.72,11.29,4.45,12.92a9.88,9.88,0,0,1,1.76,1.24c.23.23.48.48.78.74,2.79,2.6,8,7.44,1.27,23-7.58,17.69,12,30,20.31,35.31a3.18,3.18,0,0,0,1.69.48,82.37,82.37,0,0,0,82.27-82.27,83.29,83.29,0,0,0-.78-11.39Z" style="fill:#53aade"/><path d="M258.36,257.37a88.61,88.61,0,0,1-141.48-71.1,3.16,3.16,0,0,0-6.33,0,95,95,0,0,0,91.77,94.86v9.57a3.16,3.16,0,1,0,6.33,0h0v-9.62a94,94,0,0,0,53.5-18.61,3.17,3.17,0,0,0-3.78-5.08Z" style="fill:#53aade"/><path d="M207.9,232.21c-3.95,0-8.59,4.54-10.27,8.62-1.32,3.19-.93,6.16,1.08,8.17a11.45,11.45,0,0,0,15.39,0c2.1-2.1,2.61-5.19,1.43-8.69a18.07,18.07,0,0,0-4.18-6.68,4.87,4.87,0,0,0-3.46-1.4Zm1.72,12.31c-1.4,1.41-5.05,1.37-6.42,0a3.81,3.81,0,0,1,.8-2.31,10.5,10.5,0,0,1,3.47-3.53,11.58,11.58,0,0,1,2.07,3.59c.35,1,.38,1.91.09,2.21Z" style="fill:#53aade"/></svg>