<svg id="Layer_1" data-name="Layer 1" xmlns="http://www.w3.org/2000/svg" width="512" height="512" viewBox="0 0 512 512"><title>employees-01</title><circle cx="256" cy="245.74" r="4.59" style="fill:#4cabe8"/><circle cx="256" cy="261.2" r="4.59" style="fill:#4cabe8"/><path d="M328,194.26a21.58,21.58,0,0,0,4-12.55v-14a21.73,21.73,0,0,0-21.7-21.7h-3a21.72,21.72,0,0,0-21.7,21.7v14a21.57,21.57,0,0,0,4,12.52H275.2a21.57,21.57,0,0,0,4-12.52v-14A21.73,21.73,0,0,0,257.49,146h-3a21.73,21.73,0,0,0-21.71,21.7v14a21.57,21.57,0,0,0,4,12.52h-14.4a21.58,21.58,0,0,0,4-12.52v-14a21.73,21.73,0,0,0-21.7-21.7h-3A21.73,21.73,0,0,0,180,167.7v14a21.58,21.58,0,0,0,4,12.55,30.29,30.29,0,0,0-29,30.16V269.2a16.93,16.93,0,0,0,16.94,16.87h.28v64.61A15.33,15.33,0,0,0,187.49,366h5a15.26,15.26,0,0,0,10.72-4.39A15.26,15.26,0,0,0,213.89,366h5a15.25,15.25,0,0,0,10.71-4.4,15.26,15.26,0,0,0,10.74,4.4h5A15.26,15.26,0,0,0,256,361.61,15.26,15.26,0,0,0,266.72,366h5a15.26,15.26,0,0,0,10.74-4.4,15.25,15.25,0,0,0,10.69,4.4h5a15.26,15.26,0,0,0,10.72-4.39A15.26,15.26,0,0,0,319.53,366h5a15.33,15.33,0,0,0,15.31-15.31V286.08h.28A16.93,16.93,0,0,0,357,269.2V224.42A30.29,30.29,0,0,0,328,194.26ZM294.81,167.7a12.53,12.53,0,0,1,12.52-12.52h3a12.53,12.53,0,0,1,12.52,12.52v14a12.53,12.53,0,0,1-12.52,12.52h-3a12.53,12.53,0,0,1-12.52-12.52Zm-52.82,0a12.53,12.53,0,0,1,12.52-12.52h3A12.53,12.53,0,0,1,270,167.7v14a12.53,12.53,0,0,1-12.52,12.52h-3A12.53,12.53,0,0,1,242,181.71Zm24.63,35.71L256,220.84l-10.62-17.43ZM189.17,167.7a12.53,12.53,0,0,1,12.51-12.52h3a12.53,12.53,0,0,1,12.52,12.52v14a12.53,12.53,0,0,1-12.52,12.52h-3a12.53,12.53,0,0,1-12.52-12.52Zm-12.4,67.63a4.59,4.59,0,0,0-4.59,4.59h0v37h-.28a7.73,7.73,0,0,1-7.76-7.69V224.42a21.11,21.11,0,0,1,21.15-21h31.06a30,30,0,0,0-8.59,21V269.2a16.8,16.8,0,0,0,.56,4.3l-5.16,2.6L181.36,265v-25.1h0A4.59,4.59,0,0,0,176.77,235.33Zm42.11,121.48h-5a6.13,6.13,0,0,1-6.12-6.12V300.21a4.59,4.59,0,0,0-9.19,0v50.48a6.13,6.13,0,0,1-6.12,6.12h-5a6.13,6.13,0,0,1-6.13-6.12V275.34l19.74,10a4.59,4.59,0,0,0,4.16,0l7.77-4a16.92,16.92,0,0,0,11.69,4.66H225v64.61a6.13,6.13,0,0,1-6.12,6.12Zm58.94-6.12a6.13,6.13,0,0,1-6.12,6.12h-5a6.13,6.13,0,0,1-6.12-6.12V300.21a4.59,4.59,0,0,0-9.19,0v50.48a6.13,6.13,0,0,1-6.12,6.12h-5a6.13,6.13,0,0,1-6.12-6.12V275.37l19.74,10a4.59,4.59,0,0,0,4.16,0l19.74-10Zm0-110.76h0V265L256,276.11l-21.81-11V239.93h0a4.59,4.59,0,1,0-9.19,0h0v37h-.28a7.73,7.73,0,0,1-7.76-7.69V224.42a21.08,21.08,0,0,1,17.82-20.75l17.3,28.39a4.59,4.59,0,0,0,7.84,0l17.3-28.39A21.08,21.08,0,0,1,295,224.42V269.2a7.73,7.73,0,0,1-7.76,7.69H287v-37h0a4.59,4.59,0,1,0-9.19,0Zm52.81,110.76a6.13,6.13,0,0,1-6.12,6.12h-5a6.13,6.13,0,0,1-6.12-6.12V300.21a4.59,4.59,0,1,0-9.19,0v50.48a6.13,6.13,0,0,1-6.11,6.12h-5a6.13,6.13,0,0,1-6.12-6.12V286.08h.28A16.91,16.91,0,0,0,299,281.42l7.78,3.94a4.59,4.59,0,0,0,4.16,0l19.73-10Zm17.22-81.49a7.73,7.73,0,0,1-7.76,7.69h-.28v-37h0a4.59,4.59,0,0,0-9.19,0h0V265l-21.82,11.09-5.16-2.6a16.76,16.76,0,0,0,.56-4.3V224.42a30,30,0,0,0-8.59-21h31.06a21.11,21.11,0,0,1,21.15,21V269.2Z" style="fill:#4cabe8"/></svg>