<svg id="Layer_1" data-name="Layer 1" xmlns="http://www.w3.org/2000/svg" width="400" height="400" viewBox="0 0 400 400"><title>Industries</title><rect x="39.8" y="302.4" width="128" height="12.53" style="fill:#fff"/><rect x="193.53" y="302.27" width="12.53" height="38.4" style="fill:#fff"/><rect x="231.94" y="302.27" width="12.53" height="38.4" style="fill:#fff"/><rect x="270.34" y="302.27" width="12.53" height="38.4" style="fill:#fff"/><rect x="308.73" y="302.27" width="12.53" height="38.4" style="fill:#fff"/><rect x="347.14" y="302.27" width="12.53" height="38.4" style="fill:#fff"/><path d="M398.07,379.2V189.73L307.93,234.8,295.33,8h-63L219.37,215.07l-39.61,19.8L167.22,65.6H104.45L91.46,215,1.53,260V379.2H-5v12.53H404.6V379.2Zm-154-358.67h39.39l.73,13.07H243.27Zm-1.6,25.6h42.41l.73,13.07h-44Zm-1.6,25.6h45.43l9.4,169.17-25.65,12.82v-64l-37.73,18.87Zm-124.94,6.4h39.64l1,13.07H114.81Zm-2.23,25.6h43.76l1,13.07H112.58Zm-2.23,25.6h47.88l8.27,111.6-25.58,12.79v-64l-37.45,18.73ZM39.93,379.2H14.07V366.13H39.93Zm115.2,0H52.46V334.13H155.13Zm230.4,0H167.66V366.13H385.54Zm0-25.6H167.66v-32H39.93v32H14.07V267.74L129.53,210v64l128-64v64l128-64Zm0,0" style="fill:#fff"/></svg>