<svg id="Layer_1" data-name="Layer 1" xmlns="http://www.w3.org/2000/svg" width="400" height="400" viewBox="0 0 400 400"><title>Knowledge Centre</title><path d="M385.67,329.48l-70-252L255.38,94.22l6.66,24H195V84.79H132.37v24.73H98.47V55H14V346.34H273.48V159.41l51.87,186.82ZM144.37,96.79H183v29.71H144.37Zm0,79.49H183V312.74H144.37Zm0-12v-6.89H183v6.89Zm0-18.89v-6.89H183v6.89ZM86.47,311H26V90.2H86.47Zm0-244V78.2H26V67ZM26,334.34V323H86.47v11.35Zm106.37,0H98.47V121.53h33.9Zm12,0v-9.59H183v9.59Zm117.12,0H195V130.21h66.52Zm72.22-2.88-42.19-152,37.19-10.32,42.19,152ZM288.3,167.93,285,156l37.19-10.33,3.31,11.91Zm19-75.68L319,134.13l-37.19,10.33-11.63-41.89Zm0,0" style="fill:#fff"/><rect x="208.9" y="143.2" width="38.65" height="12" style="fill:#fff"/><rect x="208.9" y="164.28" width="38.65" height="12" style="fill:#fff"/><rect x="208.9" y="185.37" width="38.65" height="12" style="fill:#fff"/><rect x="208.9" y="307.47" width="38.65" height="12" style="fill:#fff"/><rect x="109.42" y="232.65" width="12" height="20.21" style="fill:#fff"/><rect x="109.42" y="264.28" width="12" height="45.68" style="fill:#fff"/><rect x="109.42" y="166.77" width="12" height="54.46" style="fill:#fff"/><rect x="109.42" y="135.14" width="12" height="21.08" style="fill:#fff"/></svg>