<svg id="Layer_1" data-name="Layer 1" xmlns="http://www.w3.org/2000/svg" width="512" height="512" viewBox="0 0 512 512"><title>warehouse-01</title><path d="M358.08,361.6H153.92a3.32,3.32,0,0,1-3.52-3.52V164.84a14.27,14.27,0,0,1,14.11-14.44h183a14.2,14.2,0,0,1,14.08,14.44V358.08A3.32,3.32,0,0,1,358.08,361.6Zm-200.64-7H354.56V164.84a7.22,7.22,0,0,0-7-7.4H164.84a7.22,7.22,0,0,0-7.4,7q0,.18,0,.36Z" style="fill:#4cabe8"/><path d="M344,231.36H168a3.32,3.32,0,0,1-3.52-3.52V206.72A3.32,3.32,0,0,1,168,203.2H344a3.32,3.32,0,0,1,3.52,3.52v21.12A3.32,3.32,0,0,1,344,231.36Zm-172.47-7h169V210.24h-169Z" style="fill:#4cabe8"/><path d="M340.48,287.68h-169a3.32,3.32,0,0,1-3.52-3.52V227.84a3.32,3.32,0,0,1,3.52-3.52h169a3.32,3.32,0,0,1,3.52,3.52v56.32A3.32,3.32,0,0,1,340.48,287.68Zm-165.44-7H337V231.36H175Z" style="fill:#4cabe8"/><path d="M340.48,361.6h-169a3.32,3.32,0,0,1-3.52-3.52V284.16a3.32,3.32,0,0,1,3.52-3.52h169a3.32,3.32,0,0,1,3.52,3.52v73.92A3.32,3.32,0,0,1,340.48,361.6Zm-165.44-7H337V287.68H175Z" style="fill:#4cabe8"/><path d="M284.16,361.6H241.92a3.32,3.32,0,0,1-3.52-3.52V329.92a3.32,3.32,0,0,1,3.52-3.52h42.24a3.32,3.32,0,0,1,3.52,3.52v28.16A3.32,3.32,0,0,1,284.16,361.6Zm-38.72-7h35.2V333.44h-35.2Z" style="fill:#4cabe8"/><path d="M305.28,333.44H263a3.32,3.32,0,0,1-3.52-3.52V301.76a3.32,3.32,0,0,1,3.52-3.52h42.24a3.32,3.32,0,0,1,3.52,3.52v28.16A3.32,3.32,0,0,1,305.28,333.44Zm-38.72-7h35.2V305.28h-35.2Z" style="fill:#4cabe8"/><path d="M326.4,361.6H284.16a3.32,3.32,0,0,1-3.52-3.52V329.92a3.32,3.32,0,0,1,3.52-3.52H326.4a3.32,3.32,0,0,1,3.52,3.52v28.16A3.32,3.32,0,0,1,326.4,361.6Zm-38.72-7h35.2V333.44h-35.2Z" style="fill:#4cabe8"/><path d="M196.16,361.6a14.08,14.08,0,1,1,14.08-14.08A14.08,14.08,0,0,1,196.16,361.6Zm0-21.12a7,7,0,1,0,7,7A7,7,0,0,0,196.16,340.48Z" style="fill:#4cabe8"/><path d="M217.28,361.6a14.08,14.08,0,1,1,14.08-14.08A14.08,14.08,0,0,1,217.28,361.6Zm0-21.12a7,7,0,1,0,7,7A7,7,0,0,0,217.28,340.48Z" style="fill:#4cabe8"/><path d="M291.2,319.36H277.12a3.32,3.32,0,0,1-3.52-3.52V301.76a3.32,3.32,0,0,1,3.52-3.52H291.2a3.32,3.32,0,0,1,3.52,3.52v14.08A3.32,3.32,0,0,1,291.2,319.36Zm-10.56-7h7v-7h-7Z" style="fill:#4cabe8"/><path d="M270.08,347.52H256a3.32,3.32,0,0,1-3.52-3.52V329.92A3.32,3.32,0,0,1,256,326.4h14.08a3.32,3.32,0,0,1,3.52,3.52V344A3.32,3.32,0,0,1,270.08,347.52Zm-10.56-7h7v-7h-7Z" style="fill:#4cabe8"/><path d="M312.32,347.52H298.24a3.32,3.32,0,0,1-3.52-3.52V329.92a3.32,3.32,0,0,1,3.52-3.52h14.08a3.32,3.32,0,0,1,3.52,3.52V344A3.32,3.32,0,0,1,312.32,347.52Zm-10.56-7h7v-7h-7Z" style="fill:#4cabe8"/><path d="M305.28,196.16H206.72a3.32,3.32,0,0,1-3.52-3.52V168a3.32,3.32,0,0,1,3.52-3.52h98.56A3.32,3.32,0,0,1,308.8,168v24.64A3.32,3.32,0,0,1,305.28,196.16Zm-95-7h91.52v-17.6H210.24Z" style="fill:#4cabe8"/><path d="M340.48,245.44h-169a3.52,3.52,0,0,1,0-7h169a3.52,3.52,0,1,1,0,7Z" style="fill:#4cabe8"/><path d="M340.48,259.52h-169a3.52,3.52,0,0,1,0-7h169a3.52,3.52,0,1,1,0,7Z" style="fill:#4cabe8"/><path d="M340.48,273.6h-169a3.52,3.52,0,0,1,0-7h169a3.52,3.52,0,1,1,0,7Z" style="fill:#4cabe8"/></svg>